<svg xmlns="http://www.w3.org/2000/svg" viewBox="0 0 500 500"><g id="freepik--background-complete--inject-2"><rect x="416.78" y="398.49" width="33.12" height="0.25" style="fill:#ebebeb"></rect><rect x="322.53" y="401.21" width="8.69" height="0.25" style="fill:#ebebeb"></rect><rect x="396.59" y="389.21" width="19.19" height="0.25" style="fill:#ebebeb"></rect><rect x="52.46" y="390.89" width="43.19" height="0.25" style="fill:#ebebeb"></rect><rect x="104.56" y="390.89" width="6.33" height="0.25" style="fill:#ebebeb"></rect><rect x="131.47" y="395.11" width="93.68" height="0.25" style="fill:#ebebeb"></rect><path d="M238.4,337.8H45.3a5.71,5.71,0,0,1-5.71-5.71V60.66A5.71,5.71,0,0,1,45.3,55H238.4a5.71,5.71,0,0,1,5.71,5.71V332.09A5.71,5.71,0,0,1,238.4,337.8ZM45.3,55.2a5.47,5.47,0,0,0-5.46,5.46V332.09a5.47,5.47,0,0,0,5.46,5.46H238.4a5.47,5.47,0,0,0,5.46-5.46V60.66a5.47,5.47,0,0,0-5.46-5.46Z" style="fill:#ebebeb"></path><path d="M454.7,337.8H261.6a5.71,5.71,0,0,1-5.71-5.71V60.66A5.71,5.71,0,0,1,261.6,55H454.7a5.71,5.71,0,0,1,5.71,5.71V332.09A5.71,5.71,0,0,1,454.7,337.8ZM261.6,55.2a5.47,5.47,0,0,0-5.46,5.46V332.09a5.47,5.47,0,0,0,5.46,5.46H454.7a5.47,5.47,0,0,0,5.46-5.46V60.66a5.47,5.47,0,0,0-5.46-5.46Z" style="fill:#ebebeb"></path><rect y="382.4" width="500" height="0.25" style="fill:#ebebeb"></rect><path d="M153.85,200.26a41.48,41.48,0,1,0-83,.25c0,3.84,0,7.68,0,11.51V366.39c0,4.24-.5,8.83,0,13.05a3.87,3.87,0,0,1,0,.59A1,1,0,0,0,73,380V205c0-5.78.11-11.41,1.94-17a39.42,39.42,0,0,1,74.93,0,41,41,0,0,1,1.94,12.24,1,1,0,0,0,2.07,0Z" style="fill:#ebebeb"></path><path d="M174,205.75a24.7,24.7,0,1,0-49.39,0Z" style="fill:#f0f0f0"></path><path d="M150.6,181.08q-.34,0-.69,0c-9.28,0-16.81,11.06-16.81,24.7h7.07C140.17,192.44,144.8,181.6,150.6,181.08Z" style="fill:#fafafa"></path><path d="M161.92,205.75h4.81c0-12-5.86-22.05-13.61-24.24C158.13,183.7,161.92,193.72,161.92,205.75Z" style="fill:#fafafa"></path><rect x="65.99" y="308.74" width="12.04" height="73.51" style="fill:#e0e0e0"></rect><path d="M58.9,378.09H85a4.47,4.47,0,0,1,4.47,4.47v.15a0,0,0,0,1,0,0h-35a0,0,0,0,1,0,0v-.15A4.47,4.47,0,0,1,58.9,378.09Z" style="fill:#e0e0e0"></path><path d="M407.73,341.11s-19.32-8.89-16.94-13.81c1.27-2.63,11.41,2.54,11.41,2.54s-20.26-17.51-15.68-22.65c2.37-2.65,12.53,6.68,12.53,6.68s-16.05-27.3-8.78-30.44c6.53-2.83,14.53,24.48,14.53,24.48s4.09-16.45,8.15-15.09c7,2.35-4.4,29.35-4.4,29.35s6.82-10.73,9.68-9.05c6,3.56-6.8,27.2-6.8,27.2Z" style="fill:#ebebeb"></path><path d="M409,341.34s-13.58-6.84-11.44-10c1.38-2,8.75,4.54,8.75,4.54l-4.19-12.31s-12.74-9.09-11.58-11.52c.88-1.86,11.8,8.8,11.8,8.8s.17-6.65-.59-8.7c-2.08-5.67-11.36-20.44-9.18-22.37s9.87,15.75,11.06,21.73c.22,1.13.77,4.55.77,4.55s3.26-18.4,7.53-16.73c5.38,2.11-7.38,21.9-7.38,21.9l3,9.5s5.25-13.06,8.26-11.28c3.61,2.13-7,15.22-7,15.22s1,3.94.79,5.25A7.23,7.23,0,0,1,409,341.34Z" style="fill:#fafafa"></path><path d="M420.72,341.5s23.51-12.72,20.12-18.7c-1.81-3.19-14.1,4.11-14.1,4.11s24-23.61,17.82-29.69c-3.18-3.13-15.18,9.4-15.18,9.4s17.93-35.55,8.55-38.9c-8.42-3-16.24,31.89-16.24,31.89s-6.46-20.3-11.46-18.26c-8.63,3.52,7.92,36.46,7.92,36.46s-9.43-12.9-12.88-10.56C398,312.2,416,340.81,416,340.81Z" style="fill:#e6e6e6"></path><path d="M419.15,341.9s15.43-12.12,16.25-15.54c.72-3-13.31,8.48-13.31,8.48l4.25-15.77s14.09-10.25,13.6-15.4c-.45-4.61-14.1,12-14.1,12s-.75-8.33,0-11c2.15-7.28,12.3-27.64,9.7-28.81-5.07-2.28-11.1,20.56-12.1,28.16-.19,1.44-.6,5.77-.6,5.77s-8.92-23.94-10.81-20.37c-2,3.74,11,26.87,11,26.87l-3,12.16s-11.39-17-11.27-13.48,10.06,18.52,10.06,18.52-.88,5-.56,6.66A9.06,9.06,0,0,0,419.15,341.9Z" style="fill:#fafafa"></path><path d="M418.44,382.71H406.73a8.72,8.72,0,0,1-8.7-8.19l-2.17-35.27h33.46l-2.17,35.27A8.73,8.73,0,0,1,418.44,382.71Z" style="fill:#ebebeb"></path><rect x="353.82" y="196.45" width="37.09" height="9.95" rx="1.32" style="fill:#f5f5f5"></rect><rect x="342.5" y="208.79" width="37.09" height="9.95" rx="1.32" style="fill:#f5f5f5"></rect><rect x="381.31" y="208.79" width="37.09" height="9.95" rx="1.32" style="fill:#f0f0f0"></rect><rect x="355.95" y="125.37" width="37.09" height="9.95" rx="1.32" style="fill:#f5f5f5"></rect><rect x="344.62" y="137.71" width="37.09" height="9.95" rx="1.32" style="fill:#f5f5f5"></rect><rect x="383.44" y="137.71" width="37.09" height="9.95" rx="1.32" style="fill:#f0f0f0"></rect><rect x="100.53" y="123.66" width="37.09" height="9.95" rx="1.32" style="fill:#e6e6e6"></rect><rect x="89.21" y="136" width="37.09" height="9.95" rx="1.32" style="fill:#f5f5f5"></rect><rect x="128.02" y="136" width="37.09" height="9.95" rx="1.32" style="fill:#f0f0f0"></rect><rect x="89.21" y="111.99" width="37.09" height="9.95" rx="1.32" style="fill:#f0f0f0"></rect><rect x="388.28" y="196.45" width="37.09" height="9.95" rx="1.32" transform="translate(813.65 402.86) rotate(180)" style="fill:#f0f0f0"></rect></g><g id="freepik--Shadow--inject-2"><ellipse id="freepik--path--inject-2" cx="250" cy="412.39" rx="193.89" ry="11.32" style="fill:#f5f5f5"></ellipse></g><g id="freepik--character-2--inject-2"><path d="M377.81,261.83a2.82,2.82,0,0,0-2.54,1.46A98,98,0,0,0,363,331a2.48,2.48,0,0,0,2.36,2.21c1.84.12,34.58,0,35.77,0a3.3,3.3,0,0,0,3.33-3.84,91.47,91.47,0,0,1,11.66-63c1.4-2.33-.67-4.51-2.75-4.55C412.42,261.81,379.9,261.87,377.81,261.83Z" style="fill:#263238"></path><path d="M377.81,261.83a2.82,2.82,0,0,0-2.54,1.46A98,98,0,0,0,363,331a2.48,2.48,0,0,0,2.36,2.21c1.84.12,34.58,0,35.77,0a3.3,3.3,0,0,0,3.33-3.84,91.47,91.47,0,0,1,11.66-63c1.4-2.33-.67-4.51-2.75-4.55C412.42,261.81,379.9,261.87,377.81,261.83Z" style="fill:#fff;opacity:0.1"></path><path d="M404.46,329.34a91.47,91.47,0,0,1,11.66-63c2-3.39-3.26-6.47-5.29-3.09A98.06,98.06,0,0,0,398.55,331c.7,3.88,6.61,2.24,5.91-1.62Z" style="fill:#263238"></path><path d="M308.05,327.56a104.1,104.1,0,0,1,23-3.16c8-.2,37.8,0,44.89,0a103.47,103.47,0,0,1,25.62,3.19c5.26,1.34,3.64,8.94-1.11,9-.42,0-90.62,0-91,0C304.49,336.8,302.68,328.93,308.05,327.56Z" style="fill:#263238"></path><path d="M399.08,336.42a94.25,94.25,0,0,0-46.36,0c-5.73,1.46-8.17-7.4-2.44-8.86a104.08,104.08,0,0,1,51.24,0c5.72,1.46,3.3,10.33-2.44,8.86Z" style="fill:#263238"></path><path d="M399.08,336.42a94.25,94.25,0,0,0-46.36,0c-5.73,1.46-8.17-7.4-2.44-8.86a104.08,104.08,0,0,1,51.24,0c5.72,1.46,3.3,10.33-2.44,8.86Z" style="fill:#fff;opacity:0.1"></path><path d="M353.16,340.87c-8.59,0-17.24-.31-25.83,0-13.68.5-12.82,14.34-13.51,24.18-.71,10.19-1.56,20.38-2.14,30.58-.38,6.7,3.43,12,10.48,12.32,3.37.13,6.78,0,10.16,0h30.46c2.81,0,2.82,4.36,0,4.36H332.32c-3.62,0-7.31.19-10.93,0a14.83,14.83,0,0,1-14.17-14.4c-.26-10.09,1.38-20.53,2.08-30.58s-.55-23,9.86-28.73c5.15-2.85,11.49-2.06,17.17-2.06h16.83c2.81,0,2.81,4.36,0,4.36Z" style="fill:#263238"></path><g style="opacity:0.5"><path d="M353.16,340.87c-8.59,0-17.24-.31-25.83,0-13.68.5-12.82,14.34-13.51,24.18-.71,10.19-1.56,20.38-2.14,30.58-.38,6.7,3.43,12,10.48,12.32,3.37.13,6.78,0,10.16,0h30.46c2.81,0,2.82,4.36,0,4.36H332.32c-3.62,0-7.31.19-10.93,0a14.83,14.83,0,0,1-14.17-14.4c-.26-10.09,1.38-20.53,2.08-30.58s-.55-23,9.86-28.73c5.15-2.85,11.49-2.06,17.17-2.06h16.83c2.81,0,2.81,4.36,0,4.36Z" style="fill:#fff"></path></g><g style="opacity:0.2"><path d="M353.16,340.87c-8.59,0-17.24-.31-25.83,0-13.68.5-12.82,14.34-13.51,24.18-.71,10.19-1.56,20.38-2.14,30.58-.38,6.7,3.43,12,10.48,12.32,3.37.13,6.78,0,10.16,0h30.46c2.81,0,2.82,4.36,0,4.36H332.32c-3.62,0-7.31.19-10.93,0a14.83,14.83,0,0,1-14.17-14.4c-.26-10.09,1.38-20.53,2.08-30.58s-.55-23,9.86-28.73c5.15-2.85,11.49-2.06,17.17-2.06h16.83c2.81,0,2.81,4.36,0,4.36Z"></path></g><path d="M319.16,338.57c5.15-2.85,11.49-2.06,17.17-2.06h16.83c2.81,0,2.81,4.36,0,4.36-8.59,0-17.24-.31-25.83,0a13.45,13.45,0,0,0-6.64,1.8H314.3A15.54,15.54,0,0,1,319.16,338.57Z" style="opacity:0.2"></path><path d="M394.81,340.87c-8.6,0-17.25-.31-25.84,0-13.67.5-12.81,14.34-13.5,24.18-.71,10.19-1.56,20.38-2.14,30.58-.38,6.7,3.43,12,10.47,12.32,3.38.13,6.79,0,10.17,0h30.46c2.81,0,2.81,4.36,0,4.36H374c-3.63,0-7.31.19-10.93,0a14.82,14.82,0,0,1-14.17-14.4c-.27-10.09,1.37-20.53,2.08-30.58s-.56-23,9.85-28.73c5.16-2.85,11.5-2.06,17.17-2.06h16.84c2.81,0,2.81,4.36,0,4.36Z" style="fill:#263238"></path><g style="opacity:0.5"><path d="M394.81,340.87c-8.6,0-17.25-.31-25.84,0-13.67.5-12.81,14.34-13.5,24.18-.71,10.19-1.56,20.38-2.14,30.58-.38,6.7,3.43,12,10.47,12.32,3.38.13,6.79,0,10.17,0h30.46c2.81,0,2.81,4.36,0,4.36H374c-3.63,0-7.31.19-10.93,0a14.82,14.82,0,0,1-14.17-14.4c-.27-10.09,1.37-20.53,2.08-30.58s-.56-23,9.85-28.73c5.16-2.85,11.5-2.06,17.17-2.06h16.84c2.81,0,2.81,4.36,0,4.36Z" style="fill:#fff"></path></g><path d="M360.8,338.57c5.16-2.85,11.5-2.06,17.17-2.06h16.84c2.81,0,2.81,4.36,0,4.36-8.6,0-17.25-.31-25.84,0a13.44,13.44,0,0,0-6.63,1.8h-6.4A15.77,15.77,0,0,1,360.8,338.57Z" style="opacity:0.2"></path><path d="M320.4,256.26l1.92-12.66,0-9.42s4.3-2.57,3.82-4.08c-.66-2.12-7.43-2.75-7.43-2.75s-3,1.63-3.44,3.08c-.8,2.82,2.19,11.29,2.19,11.29l-3.06,12.11Z" style="fill:#ce7a63"></path><path d="M320.4,256.26l1.92-12.66,0-9.42s4.3-2.57,3.82-4.08c-.66-2.12-7.43-2.75-7.43-2.75s-3,1.63-3.44,3.08c-.8,2.82,2.19,11.29,2.19,11.29l-3.06,12.11Z" style="opacity:0.1"></path><polygon points="318.4 375.71 323.79 399.19 317.1 401.79 307.46 378.17 318.4 375.71" style="fill:#ce7a63"></polygon><polygon points="307.46 378.16 313.96 394.1 322.2 392.26 318.4 375.71 307.46 378.16" style="opacity:0.1"></polygon><path d="M317.22,400.61l6.08-3.25a.64.64,0,0,1,.79.15l4.34,5a1.06,1.06,0,0,1-.1,1.51.83.83,0,0,1-.18.13c-2.55,1.32-4.88,2.39-8,4.09-3.72,2-2.54,1.94-6.87,4.35-2.62,1.45-4.71-1.28-3.67-2,4.76-3.39,5.39-5.75,6.38-8.63A2.56,2.56,0,0,1,317.22,400.61Z" style="fill:#263238"></path><path d="M372.67,302.86l-32.88-1.81s-54.63,8.54-53.86,23.82S309,388.3,309,388.3l13-3.62s-9.93-48.42-16.41-56.44c0,0,40.8-4.79,51-7.51C362.24,319.23,375.78,321.76,372.67,302.86Z" style="fill:#B536C6"></path><path d="M311.13,327.57a29.22,29.22,0,0,1,2.51-13.19c3-6.86,28.05-11,40-12.57l19,1.05c3.11,18.9-10.43,16.37-16.05,17.87C348.74,322.83,322.63,326.16,311.13,327.57Z" style="opacity:0.1"></path><polygon points="340.74 382.18 341.6 406.26 334.35 406.6 329.53 382.52 340.74 382.18" style="fill:#ce7a63"></polygon><polygon points="332.57 397.7 341.28 397.38 340.74 382.18 329.53 382.52 332.57 397.7" style="opacity:0.1"></polygon><path d="M334.87,404.41l7,.15a.65.65,0,0,1,.63.52l1.35,6.63A1.09,1.09,0,0,1,343,413l-.23,0c-2.92-.1-5.52-.31-9.16-.37-4.3-.08-3.22.45-8.27.43-3.05,0-3.54-3.48-2.25-3.63,5.92-.63,7.66-2.41,10-4.48A2.57,2.57,0,0,1,334.87,404.41Z" style="fill:#263238"></path><path d="M363.87,302.86s-44,1.56-46.61,15,12.17,73.79,12.17,73.79h13.21s-.53-59.9-6-65.5c0,0,32.25,5.69,41.83-2.54,6.85-5.88,2.71-20.77,2.71-20.77Z" style="fill:#B536C6"></path><polygon points="323.05 381.83 306.65 386.41 309.65 392.71 324.6 389 323.05 381.83" style="fill:#B536C6"></polygon><polygon points="323.05 381.83 306.65 386.41 309.65 392.71 324.6 389 323.05 381.83" style="fill:#fff;opacity:0.30000000000000004"></polygon><polygon points="343.93 388.31 327.36 389.08 328.92 395.68 343.93 394.91 343.93 388.31" style="fill:#B536C6"></polygon><polygon points="343.93 388.31 327.36 389.08 328.92 395.68 343.93 394.91 343.93 388.31" style="fill:#fff;opacity:0.30000000000000004"></polygon><path d="M323.81,256.9,319.06,268l2.88-18.12-6.25-1.17s-8.81,29.17-2,31.61c7.12,2.56,15-10.49,15.84-16.07C329.89,262,328.73,254.23,323.81,256.9Z" style="fill:#B536C6"></path><path d="M323.81,256.9,319.06,268l2.88-18.12-6.25-1.17s-8.81,29.17-2,31.61c7.12,2.56,15-10.49,15.84-16.07C329.89,262,328.73,254.23,323.81,256.9Z" style="fill:#fff;opacity:0.6000000000000001"></path><polygon points="315.55 247.53 322.6 248.73 322.16 252.65 314.05 251.23 315.55 247.53" style="fill:#B536C6"></polygon><polygon points="315.55 247.53 322.6 248.73 322.16 252.65 314.05 251.23 315.55 247.53" style="fill:#fff;opacity:0.30000000000000004"></polygon><path d="M329.39,261.21l-1.11-2.73h-2.6l-1.28,1.79a45.14,45.14,0,0,0,1.09,13,25.55,25.55,0,0,0,4-9A10.47,10.47,0,0,0,329.39,261.21Z" style="opacity:0.2"></path><path d="M338.3,301.24s6,2.57,43.19,1.78c0,0-1.89-30.16-20.05-57.5,0,0-26.46-8.62-37.63,11.38a71.17,71.17,0,0,0,9.88,26.72C341.81,296.15,338.3,301.24,338.3,301.24Z" style="fill:#B536C6"></path><path d="M338.3,301.24s6,2.57,43.19,1.78c0,0-1.89-30.16-20.05-57.5,0,0-26.46-8.62-37.63,11.38a71.17,71.17,0,0,0,9.88,26.72C341.81,296.15,338.3,301.24,338.3,301.24Z" style="fill:#fff;opacity:0.7000000000000001"></path><path d="M341.12,255.73c-1.81,1.33-4.81,0-4.81,0s-2,3.33-4.67,1.5a13.63,13.63,0,0,1-3-3,13.22,13.22,0,0,0,3.58,4.36c2.66,1.84,4.66-1.5,4.66-1.5s3,1.34,4.81,0c1.3-1,1.89-7.07,2.13-10.42C343.29,250,342.29,254.86,341.12,255.73Z" style="opacity:0.2"></path><path d="M334.92,239.53s-.24,2.79,5.51,4.75c0,0-3.22,10.2-4.65,10.28s-6.88-4.62-6.88-4.62l.69-2.89Z" style="fill:#ce7a63"></path><path d="M334.92,239.53s-.24,2.79,5.51,4.75c0,0-3.22,10.2-4.65,10.28s-6.88-4.62-6.88-4.62l.69-2.89Z" style="opacity:0.1"></path><path d="M328.16,249l7.82,5.28,4.5-12.5,3.83,1.94s-1.39,10.73-3.2,12.06-4.8,0-4.8,0-2,3.33-4.67,1.5a16.47,16.47,0,0,1-4.41-5.14Z" style="fill:#B536C6"></path><path d="M328.16,249l7.82,5.28,4.5-12.5,3.83,1.94s-1.39,10.73-3.2,12.06-4.8,0-4.8,0-2,3.33-4.67,1.5a16.47,16.47,0,0,1-4.41-5.14Z" style="fill:#fff;opacity:0.7000000000000001"></path><path d="M334.19,229.92c.8,7.3,1.65,11.52-1.33,16a9.54,9.54,0,0,1-16.82-1.6c-2.66-6.15-3.52-17,3-21.38a9.65,9.65,0,0,1,15.17,7Z" style="fill:#ce7a63"></path><path d="M323.69,234.21c.11.58-.13,1.12-.52,1.17s-.76-.34-.87-.92.12-1.13.52-1.17S323.59,233.62,323.69,234.21Z" style="fill:#263238"></path><path d="M317.11,235.58c.1.59-.12,1.12-.52,1.17s-.77-.33-.88-.92.13-1.12.53-1.17S317,235,317.11,235.58Z" style="fill:#263238"></path><path d="M325.35,231.64a.38.38,0,0,0,.16-.06.34.34,0,0,0,0-.48h0a3.4,3.4,0,0,0-3.06-.9.36.36,0,0,0-.25.42h0a.34.34,0,0,0,.42.25h0a2.7,2.7,0,0,1,2.38.68A.32.32,0,0,0,325.35,231.64Z" style="fill:#263238"></path><path d="M313.89,233.89a.35.35,0,0,0,.22-.24,2.92,2.92,0,0,1,1.67-2,.35.35,0,0,0,.14-.48.34.34,0,0,0-.37-.17h0a3.56,3.56,0,0,0-2.1,2.43.35.35,0,0,0,.23.43h0A.34.34,0,0,0,313.89,233.89Z" style="fill:#263238"></path><path d="M319.36,235.45a22.74,22.74,0,0,1-1.91,5.6,3.45,3.45,0,0,0,2.88,0Z" style="fill:#ba4d3c"></path><path d="M338,235.44a6.49,6.49,0,0,1-2.27,4.18c-1.66,1.36-3.25,0-3.42-2-.16-1.86.53-4.79,2.5-5.35S338.2,233.43,338,235.44Z" style="fill:#ce7a63"></path><path d="M321.78,243.15c.06.71.5,1.24,1,1.18s.76-.65.68-1.35-.5-1.22-1-1.17S321.7,242.49,321.78,243.15Z" style="fill:#263238"></path><path d="M333.36,235.7a6.14,6.14,0,0,1-2.31-4.68c-.21-2.36-2.25-4.88-3.49-6.21a2.08,2.08,0,0,0-2.1-.6,25.08,25.08,0,0,1-5.72,1c-3.21.09-2.38-1.66-1.94-2.25,1.42-1.9,4-3.94,9.15-2.57s10,3.62,8.17,14.24Z" style="fill:#263238"></path><path d="M344.31,282.49c3.92,0,11-7.49,15.42-15.34a31.68,31.68,0,0,0,2.73-6.88c-4.58,8.78-13.4,20.07-18.15,20.07-4.3,0-7.24-5-9.34-11.69C336.81,276.34,339.56,282.49,344.31,282.49Z" style="opacity:0.2"></path><path d="M346.48,285.23a1.26,1.26,0,1,1-1.26-1.25A1.26,1.26,0,0,1,346.48,285.23Z" style="fill:#B536C6"></path><path d="M349.22,298.53a1.26,1.26,0,1,1-1.25-1.25A1.25,1.25,0,0,1,349.22,298.53Z" style="fill:#B536C6"></path><g style="opacity:0.30000000000000004"><path d="M346.48,285.23a1.26,1.26,0,1,1-1.26-1.25A1.26,1.26,0,0,1,346.48,285.23Z" style="fill:#fff"></path><path d="M349.22,298.53a1.26,1.26,0,1,1-1.25-1.25A1.25,1.25,0,0,1,349.22,298.53Z" style="fill:#fff"></path></g><path d="M326.23,228.4s-1.76,2,2.82,4.89a80.27,80.27,0,0,0,.25,9.35c.42,2.79,1.29,6.59,1.29,6.59l5.18-2.13-3.93-15.25-1-3.45-2.74-.76Z" style="opacity:0.1"></path><path d="M332,254.56l-1.92-12.66,0-9.42s-4.3-2.57-3.82-4.08c.67-2.12,7.44-2.75,7.44-2.75s3,1.63,3.43,3.08c.8,2.82-2.18,11.29-2.18,11.29l3.72,11.84Z" style="fill:#ce7a63"></path><path d="M332,254.56l-1.92-12.66,0-9.42s-4.3-2.57-3.82-4.08c.67-2.12,7.44-2.75,7.44-2.75s3,1.63,3.43,3.08c.8,2.82-2.18,11.29-2.18,11.29l3.72,11.84Z" style="fill:#fff;opacity:0.1"></path><path d="M331.05,249.76c1.91,12.93,5.21,30.58,13.26,30.58,6.88,0,22.31-23.67,21-29.13-1.62-6.81-7.33-15.31-20.33,16l-7.78-20.56Z" style="fill:#B536C6"></path><path d="M331.05,249.76c1.91,12.93,5.21,30.58,13.26,30.58,6.88,0,22.31-23.67,21-29.13-1.62-6.81-7.33-15.31-20.33,16l-7.78-20.56Z" style="fill:#fff;opacity:0.6000000000000001"></path><polygon points="330.23 248.56 337.31 245.18 339.1 249.06 330.44 252.73 330.23 248.56" style="fill:#B536C6"></polygon><polygon points="330.23 248.56 337.31 245.18 339.1 249.06 330.44 252.73 330.23 248.56" style="fill:#fff;opacity:0.30000000000000004"></polygon><path d="M319,268.66H319c-.24,1.26-.8,4.58.1,4.21S319,270.42,319,268.66Z" style="opacity:0.2"></path></g><g id="freepik--Table--inject-2"><path d="M219.3,262.23l-1.35-.6c-1.83,1.28-4.87-.6-5.68-1.15l.07-.18a.27.27,0,0,0-.13-.35.26.26,0,0,0-.28,0l-.4-1.25-1.28-.57-.33.76.47.21L210,260l-.48-.21-.7,1.58.47.21-.37.83-.47-.21-.34.76,1.27.57,1.2-.54a.27.27,0,0,0,.16.24.28.28,0,0,0,.36-.14l.07-.18c1,.24,4.38,1.26,4.65,3.48l1.34.6.29.76,2.59-5.77Z" style="fill:#263238"></path><path d="M220,274.28l-.6-1.07c-1.85,0-3-2.77-3.23-3.55l.13-.07a.23.23,0,0,0,.09-.31.22.22,0,0,0-.21-.11l-.08,0a1.68,1.68,0,1,0-2.19,1.24l-.07.06a.19.19,0,0,0,0,.23.23.23,0,0,0,.31.09l.14-.08c.52.63,2.31,3,1.4,4.59l.6,1.06-.18.65,4.55-2.58Z" style="fill:#B536C6"></path><path d="M220,274.28l-.6-1.07c-1.85,0-3-2.77-3.23-3.55l.13-.07a.23.23,0,0,0,.09-.31.22.22,0,0,0-.21-.11l-.08,0a1.68,1.68,0,1,0-2.19,1.24l-.07.06a.19.19,0,0,0,0,.23.23.23,0,0,0,.31.09l.14-.08c.52.63,2.31,3,1.4,4.59l.6,1.06-.18.65,4.55-2.58Z" style="fill:#fff;opacity:0.8"></path><rect x="147.9" y="280.96" width="210.38" height="7.56" style="fill:#263238"></rect><rect x="147.9" y="280.96" width="210.38" height="7.56" style="fill:#fff;opacity:0.5"></rect><rect x="147.9" y="280.96" width="76.45" height="7.56" style="fill:#fff;opacity:0.30000000000000004"></rect><rect x="229.32" y="288.51" width="47.53" height="121.42" style="fill:#263238"></rect><rect x="229.32" y="288.51" width="47.53" height="121.42" style="fill:#fff;opacity:0.1"></rect><rect x="229.32" y="288.51" width="19.18" height="121.42" style="fill:#fff;opacity:0.1"></rect><rect x="198.72" y="405.29" width="108.73" height="6.91" style="fill:#263238"></rect><rect x="198.72" y="405.29" width="108.73" height="6.91" style="fill:#fff;opacity:0.4"></rect><rect x="198.72" y="405.29" width="39.51" height="6.91" style="fill:#fff;opacity:0.2"></rect><rect x="197.81" y="276.35" width="110.55" height="4.6" style="fill:#B536C6"></rect><rect x="197.81" y="276.35" width="110.55" height="4.6" style="fill:#fff;opacity:0.30000000000000004"></rect><rect x="197.81" y="276.35" width="55.28" height="4.6" style="fill:#fff;opacity:0.2"></rect><path d="M283.59,275.78V274.3c-1.92-1.15-1.45-4.68-1.28-5.66h.2a.27.27,0,0,0,.27-.27.28.28,0,0,0-.15-.24l1-.87v-1.4h-.83v.52h-.91v-.52h-1.73v.52h-.91v-.52h-.83v1.4l1,.87a.28.28,0,0,0-.15.24.27.27,0,0,0,.27.27h.19c.17,1,.65,4.51-1.27,5.66v1.48l-.58.57h6.32Z" style="fill:#263238"></path><path d="M259.64,275.78V274.3c-1.92-1.15-1.45-4.68-1.28-5.66h.2a.27.27,0,0,0,.27-.27.28.28,0,0,0-.15-.24l1-.87v-1.4h-.82v.52h-.91v-.52h-1.73v.52h-.91v-.52h-.83v1.4l1,.87a.28.28,0,0,0-.15.24.27.27,0,0,0,.27.27h.19c.17,1,.65,4.51-1.27,5.66v1.48l-.58.57h6.32Z" style="fill:#B536C6"></path><path d="M259.64,275.78V274.3c-1.92-1.15-1.45-4.68-1.28-5.66h.2a.27.27,0,0,0,.27-.27.28.28,0,0,0-.15-.24l1-.87v-1.4h-.82v.52h-.91v-.52h-1.73v.52h-.91v-.52h-.83v1.4l1,.87a.28.28,0,0,0-.15.24.27.27,0,0,0,.27.27h.19c.17,1,.65,4.51-1.27,5.66v1.48l-.58.57h6.32Z" style="fill:#fff;opacity:0.7000000000000001"></path><path d="M292.21,266.36l-.46-.47a.33.33,0,0,1,0,.45.31.31,0,0,1-.45,0l.46.47a.33.33,0,0,0,.45,0A.31.31,0,0,0,292.21,266.36Z" style="fill:#263238"></path><path d="M292.21,266.36l-.46-.47a.33.33,0,0,1,0,.45.31.31,0,0,1-.45,0l.46.47a.33.33,0,0,0,.45,0A.31.31,0,0,0,292.21,266.36Z" style="fill:#fff;opacity:0.2"></path><path d="M294.5,275.78V274.3c-1.92-1.15-1.45-4.68-1.28-5.66h.2a.27.27,0,0,0,.27-.27.28.28,0,0,0-.15-.24h-1a1.21,1.21,0,0,0,.82-1.17c0-.8-1.46-2.16-1.46-2.16s-.29.27-.61.64l.91.92a.31.31,0,0,1,0,.45.33.33,0,0,1-.45,0l-.86-.86a2,2,0,0,0-.45,1,1.2,1.2,0,0,0,.83,1.17h-1a.28.28,0,0,0-.15.24.27.27,0,0,0,.27.27h.19c.17,1,.65,4.51-1.27,5.66v1.48l-.58.57h6.32Z" style="fill:#263238"></path><path d="M265,266.36l-.46-.47a.33.33,0,0,1,0,.45.31.31,0,0,1-.45,0l.46.47a.33.33,0,0,0,.45,0A.31.31,0,0,0,265,266.36Z" style="fill:#B536C6"></path><path d="M265,266.36l-.46-.47a.33.33,0,0,1,0,.45.31.31,0,0,1-.45,0l.46.47a.33.33,0,0,0,.45,0A.31.31,0,0,0,265,266.36Z" style="fill:#fff;opacity:0.2"></path><path d="M267.3,275.78V274.3c-1.92-1.15-1.45-4.68-1.27-5.66h.19a.27.27,0,0,0,.27-.27.28.28,0,0,0-.15-.24h-1a1.21,1.21,0,0,0,.82-1.17c0-.8-1.46-2.16-1.46-2.16s-.29.27-.61.64l.91.92a.31.31,0,0,1,0,.45.33.33,0,0,1-.45,0l-.86-.86a2,2,0,0,0-.44,1,1.2,1.2,0,0,0,.82,1.17h-1a.28.28,0,0,0-.15.24.27.27,0,0,0,.27.27h.19c.17,1,.65,4.51-1.27,5.66v1.48l-.58.57h6.32Z" style="fill:#B536C6"></path><path d="M267.3,275.78V274.3c-1.92-1.15-1.45-4.68-1.27-5.66h.19a.27.27,0,0,0,.27-.27.28.28,0,0,0-.15-.24h-1a1.21,1.21,0,0,0,.82-1.17c0-.8-1.46-2.16-1.46-2.16s-.29.27-.61.64l.91.92a.31.31,0,0,1,0,.45.33.33,0,0,1-.45,0l-.86-.86a2,2,0,0,0-.44,1,1.2,1.2,0,0,0,.82,1.17h-1a.28.28,0,0,0-.15.24.27.27,0,0,0,.27.27h.19c.17,1,.65,4.51-1.27,5.66v1.48l-.58.57h6.32Z" style="fill:#fff;opacity:0.7000000000000001"></path><path d="M298.25,274.3v1.48l-.58.57H304l-.57-.57V274.3c-1.92-1.15,0-3.32,0-5.48,0-1.79-1.7-1.95-2.91-1.84l-1-.23.17.34a3.55,3.55,0,0,0-.41.1l.17.57a3.88,3.88,0,0,0-1,.78c-.29.42-.6.2-1,.85s.18.83.18.83c.71-.35.13.14.13.14a7,7,0,0,0,1.93-.3C299.87,271,300.17,273.15,298.25,274.3Z" style="fill:#263238"></path><path d="M274,275.87v-1.22c-1.59-.95-1.19-3.88-1.05-4.68h.16a.22.22,0,0,0,.22-.22.19.19,0,0,0-.12-.2l-.09,0a1.71,1.71,0,0,0,.43-1.12,1.69,1.69,0,1,0-2.95,1.12l-.08,0a.2.2,0,0,0-.13.2.22.22,0,0,0,.23.22h.16c.14.8.53,3.73-1.06,4.68v1.22l-.48.48h5.24Z" style="fill:#B536C6"></path><path d="M274,275.87v-1.22c-1.59-.95-1.19-3.88-1.05-4.68h.16a.22.22,0,0,0,.22-.22.19.19,0,0,0-.12-.2l-.09,0a1.71,1.71,0,0,0,.43-1.12,1.69,1.69,0,1,0-2.95,1.12l-.08,0a.2.2,0,0,0-.13.2.22.22,0,0,0,.23.22h.16c.14.8.53,3.73-1.06,4.68v1.22l-.48.48h5.24Z" style="fill:#fff;opacity:0.7000000000000001"></path><path d="M231.46,275.87v-1.22c-1.59-.95-1.19-3.88-1.05-4.68h.16a.22.22,0,0,0,.22-.22.19.19,0,0,0-.12-.2l-.09,0a1.71,1.71,0,0,0,.43-1.12,1.69,1.69,0,1,0-3.37,0,1.66,1.66,0,0,0,.43,1.12l-.09,0a.2.2,0,0,0-.13.2.22.22,0,0,0,.23.22h.16c.14.8.53,3.73-1.06,4.68v1.22l-.47.48h5.23Z" style="fill:#B536C6"></path><path d="M231.46,275.87v-1.22c-1.59-.95-1.19-3.88-1.05-4.68h.16a.22.22,0,0,0,.22-.22.19.19,0,0,0-.12-.2l-.09,0a1.71,1.71,0,0,0,.43-1.12,1.69,1.69,0,1,0-3.37,0,1.66,1.66,0,0,0,.43,1.12l-.09,0a.2.2,0,0,0-.13.2.22.22,0,0,0,.23.22h.16c.14.8.53,3.73-1.06,4.68v1.22l-.47.48h5.23Z" style="fill:#fff;opacity:0.7000000000000001"></path><path d="M249.88,275.87v-1.22c-1.59-.95-1.2-3.88-1.06-4.68H249a.22.22,0,0,0,.23-.22.2.2,0,0,0-.13-.2l-.09,0a1.66,1.66,0,0,0,.43-1.12,1.69,1.69,0,1,0-3.37,0,1.71,1.71,0,0,0,.43,1.12l-.09,0a.19.19,0,0,0-.12.2.22.22,0,0,0,.22.22h.16c.14.8.54,3.73-1.05,4.68v1.22l-.48.48h5.24Z" style="fill:#263238"></path><path d="M239.77,275.79v-1.43c-1.86-1.12-1.61-4.55-1.44-5.5h.39a.26.26,0,0,0,.26-.26.23.23,0,0,0-.14-.23l-.11,0-.62,0a7.8,7.8,0,0,1,.52-2.7h-1.09l-.13-.92.77.17v-.64l-.77.18.17-.78h-.64l.17.78-.77-.18v.64l.77-.17-.13.92h-1.09a7.8,7.8,0,0,1,.52,2.7l-.62,0-.11,0a.23.23,0,0,0-.14.23.26.26,0,0,0,.26.26h.39c.17.95.42,4.38-1.44,5.5v1.43l-.56.56h6.14Z" style="fill:#B536C6"></path><path d="M239.77,275.79v-1.43c-1.86-1.12-1.61-4.55-1.44-5.5h.39a.26.26,0,0,0,.26-.26.23.23,0,0,0-.14-.23l-.11,0-.62,0a7.8,7.8,0,0,1,.52-2.7h-1.09l-.13-.92.77.17v-.64l-.77.18.17-.78h-.64l.17.78-.77-.18v.64l.77-.17-.13.92h-1.09a7.8,7.8,0,0,1,.52,2.7l-.62,0-.11,0a.23.23,0,0,0-.14.23.26.26,0,0,0,.26.26h.39c.17.95.42,4.38-1.44,5.5v1.43l-.56.56h6.14Z" style="fill:#fff;opacity:0.7000000000000001"></path><path d="M288.19,275.79v-1.43c-1.86-1.12-1.61-4.55-1.44-5.5h.39a.26.26,0,0,0,.26-.26.23.23,0,0,0-.14-.23l-.11,0-.62,0a7.8,7.8,0,0,1,.52-2.7H286l-.13-.92.77.17v-.64l-.77.18.17-.78h-.64l.17.78-.77-.18v.64l.77-.17-.13.92h-1.09a7.8,7.8,0,0,1,.52,2.7l-.62,0-.11,0a.23.23,0,0,0-.14.23.26.26,0,0,0,.26.26h.39c.17.95.42,4.38-1.44,5.5v1.43l-.56.56h6.14Z" style="fill:#263238"></path></g><g id="freepik--character-1--inject-2"><path d="M162.27,220.9a2.84,2.84,0,0,1-.69-.09,2.54,2.54,0,0,1-1.78-1.4c-.86-1.83.43-4.62.49-4.73l.13-.29h.32c4.72,0,4.76.1,4.94.39.26.44-.2,3.49-1.32,5A2.57,2.57,0,0,1,162.27,220.9Zm-1.2-5.51c-.35.86-.85,2.57-.36,3.6a1.57,1.57,0,0,0,1.12.85,1.39,1.39,0,0,0,1.35-.28c1-.86,1.47-3.14,1.56-4.09C164,215.43,162.52,215.4,161.07,215.39Z" style="fill:#B536C6"></path><polygon points="187.8 386.78 186.83 404.7 180.33 405.2 178.62 386.89 187.8 386.78" style="fill:#ffc3bd"></polygon><path d="M188.13,404.63a.17.17,0,0,1-.14-.13.18.18,0,0,1,.08-.18c.11-.06,2.58-1.49,3.76-1.18a.91.91,0,0,1,.53.39.63.63,0,0,1,0,.73,3,3,0,0,1-2.08.56A12.16,12.16,0,0,1,188.13,404.63Zm.54-.23c1.32.16,3.11.13,3.44-.33,0-.06.09-.16,0-.37a.46.46,0,0,0-.33-.23,1.12,1.12,0,0,0-.32,0A7.93,7.93,0,0,0,188.67,404.4Z" style="fill:#B536C6"></path><path d="M188,404.62a.18.18,0,0,1-.08-.15,4.83,4.83,0,0,1,1.09-2.75,1.2,1.2,0,0,1,.93-.29c.46,0,.61.27.63.46.15.8-1.54,2.35-2.38,2.73,0,0,0,0-.07,0A.17.17,0,0,1,188,404.62Zm1.83-2.87a.88.88,0,0,0-.58.21,4,4,0,0,0-.93,2.18c.88-.52,2-1.73,1.94-2.22,0,0,0-.16-.33-.18Z" style="fill:#B536C6"></path><path d="M187.4,403.65H180a.62.62,0,0,0-.6.49l-1.35,6.31a1,1,0,0,0,.78,1.24l.22,0c2.79-.07,4.89-.18,8.36-.2,4.1,0,3.06.47,7.88.5,2.91,0,3.41-3.28,2.18-3.44-5.64-.67-6.24-2.36-8.43-4.36A2.44,2.44,0,0,0,187.4,403.65Z" style="fill:#263238"></path><polygon points="187.15 398.75 179.73 398.77 179.05 391.54 187.55 391.44 187.15 398.75" style="opacity:0.1"></polygon><path d="M118,307.81s-3.79,18.82,12,22.33,45.13-.3,45.13-.3-3.35,10.22,4,65.39h8.75s8.14-62,2.85-71.68S153.55,309.28,118,307.81Z" style="fill:#B536C6"></path><path d="M118,307.81s-3.79,18.82,12,22.33,45.13-.3,45.13-.3-3.35,10.22,4,65.39h8.75s8.14-62,2.85-71.68S153.55,309.28,118,307.81Z" style="fill:#B536C6"></path><path d="M190,322.56a7.93,7.93,0,0,1,.67,1c2.68,4.9,1.91,23.28.49,40.2C184.61,343.17,185,338,185,338s-4.32-.28-10.61-.61c.16-5.8.72-7.52.72-7.52S185.12,320.25,190,322.56Z" style="opacity:0.2"></path><polygon points="188.72 392.82 188.23 396.29 178.62 396.31 178.15 392.98 188.72 392.82" style="fill:#B536C6"></polygon><polygon points="188.72 392.82 188.23 396.29 178.62 396.31 178.15 392.98 188.72 392.82" style="fill:#fff;opacity:0.30000000000000004"></polygon><polygon points="213.07 383.45 215.83 401.45 209.2 402.72 203.34 385.95 213.07 383.45" style="fill:#ffc3bd"></polygon><path d="M217.06,401.33a.21.21,0,0,1-.14-.16A.18.18,0,0,1,217,401c.13-.06,3.07-1.45,4.4-1a1,1,0,0,1,.58.48.68.68,0,0,1,0,.81,3.59,3.59,0,0,1-2.43.45A14.72,14.72,0,0,1,217.06,401.33Zm.64-.21c1.51.28,3.56.4,4-.09.06-.06.12-.17,0-.41a.51.51,0,0,0-.36-.28,1.15,1.15,0,0,0-.36-.07A9.09,9.09,0,0,0,217.7,401.12Z" style="fill:#B536C6"></path><path d="M217,401.31a.18.18,0,0,1-.07-.17c0-.1.38-2.21,1.47-3a1.43,1.43,0,0,1,1.1-.25c.52.09.67.36.68.57.11.9-2,2.48-3,2.84h-.08A.2.2,0,0,1,217,401.31Zm2.34-3a1,1,0,0,0-.68.19,4.4,4.4,0,0,0-1.25,2.34c1-.51,2.43-1.76,2.41-2.3,0-.05,0-.19-.37-.24Z" style="fill:#B536C6"></path><path d="M216.31,400.17l-8.88-.58a.72.72,0,0,0-.73.5l-2.09,6.9a1.16,1.16,0,0,0,.79,1.44,1.18,1.18,0,0,0,.25,0c3.21.16,6.06.17,10,.44,4.7.31,3.47.77,9,1.21,3.33.26,4.19-3.37,2.79-3.64-6.41-1.21-6.95-3.15-9.28-5.56A3,3,0,0,0,216.31,400.17Z" style="fill:#263238"></path><polygon points="204.62 389.63 213.5 386.3 214.84 395.03 207.19 396.98 204.62 389.63" style="opacity:0.1"></polygon><path d="M122.79,309s-2,21,14.17,20.68,49.73,1.8,49.73,1.8-.83,10.72,19.42,62.56l8.49-2.07s-6.86-62.18-14.29-70.3S157.72,301.92,122.79,309Z" style="fill:#B536C6"></path><polygon points="214.89 389.38 215.25 392.87 205.92 395.17 204.66 392.05 214.89 389.38" style="fill:#B536C6"></polygon><polygon points="214.89 389.38 215.25 392.87 205.92 395.17 204.66 392.05 214.89 389.38" style="fill:#fff;opacity:0.30000000000000004"></polygon><path d="M160.72,217.81l3.08,4.32a4,4,0,0,1-3.54.53Z" style="fill:#ed893e"></path><path d="M162.4,217.1c0,.58-.23,1.06-.61,1.09s-.74-.45-.76-1,.23-1.06.61-1.08S162.36,216.53,162.4,217.1Z" style="fill:#1a2e35"></path><path d="M140,214.67c.15,7.67,0,10.92,3.74,15,5.74,4.25,15,4.3,17.11-3.27,1.93-6.8,1.37-18.17-6-21.57A10.47,10.47,0,0,0,140,214.67Z" style="fill:#ffc3bd"></path><path d="M151.71,232.53l0-.38c.08-.83.82-2.41,1.64-2.23l3.21,1.69A10.19,10.19,0,0,1,151.71,232.53Z" style="fill:#1a2e35;opacity:0.2"></path><path d="M160.19,214.6a.3.3,0,0,0,.26-.12,2.38,2.38,0,0,1,1.93-1,.3.3,0,0,0,.32-.28.31.31,0,0,0-.28-.32,3,3,0,0,0-2.45,1.22.31.31,0,0,0,.06.43h0A.31.31,0,0,0,160.19,214.6Z" style="fill:#1a2e35"></path><polygon points="151.89 230.58 149.81 242.09 139.21 240.68 142.64 228.83 151.89 230.58" style="fill:#ffc3bd"></polygon><path d="M151.64,237.2l3.59-2.07s-11.47-3.74-16.4-2.31-2.79,3.71-2.79,3.71Z" style="fill:#B536C6"></path><path d="M151.64,237.2l3.59-2.07s-11.47-3.74-16.4-2.31-2.79,3.71-2.79,3.71Z" style="opacity:0.30000000000000004"></path><path d="M136,236.53l15.6.67,2-1.14c-11-3.3-16.18-1.54-18-.5A2,2,0,0,0,136,236.53Z" style="opacity:0.2"></path><path d="M138.64,253.34s5,19.08,7,20.94c1.24,1.19,23-1.33,23-1.33l6.06-2.13a3,3,0,0,1,3,.56c1.84,1.57,4.89,4.42,5,6.1a3,3,0,0,1-1.49,2.16c-1.25.35-4.72-2.13-4.72-2.13l-7.9.69s-19.64,5.9-25.39,5.34c-6.68-.65-12.82-24.72-12.82-24.72Z" style="fill:#ff8b7b"></path><path d="M138.64,253.34s5,19.08,7,20.94c1.24,1.19,23-1.33,23-1.33l6.06-2.13a3,3,0,0,1,3,.56c1.84,1.57,4.89,4.42,5,6.1a3,3,0,0,1-1.49,2.16c-1.25.35-4.72-2.13-4.72-2.13l-7.9.69s-19.64,5.9-25.39,5.34c-6.68-.65-12.82-24.72-12.82-24.72Z" style="fill:#ffc3bd"></path><path d="M138.64,253.34s5,19.08,7,20.94c1.24,1.19,23-1.33,23-1.33l6.06-2.13a3,3,0,0,1,3,.56c1.84,1.57,4.89,4.42,5,6.1a3,3,0,0,1-1.49,2.16c-1.25.35-4.72-2.13-4.72-2.13l-7.9.69s-19.64,5.9-25.39,5.34c-6.68-.65-12.82-24.72-12.82-24.72Z" style="opacity:0.1"></path><path d="M131,239.29s5.67.67,9.88,19.53a25.26,25.26,0,0,0-9.43,5.28s-3.37-8.6-3.7-13.3A19.85,19.85,0,0,1,131,239.29Z" style="fill:#B536C6"></path><path d="M131,239.29s5.67.67,9.88,19.53a25.26,25.26,0,0,0-9.43,5.28s-3.37-8.6-3.7-13.3A19.85,19.85,0,0,1,131,239.29Z" style="opacity:0.30000000000000004"></path><path d="M161.82,242.53s-6.14,42.87-6.84,65.1c0,0-14,1.62-37.8,2,0,0-3.63-69.29,18.86-73.08C157,233,161.82,242.53,161.82,242.53Z" style="fill:#B536C6"></path><path d="M161.82,242.53s-6.14,42.87-6.84,65.1c0,0-14,1.62-37.8,2,0,0-3.63-69.29,18.86-73.08C157,233,161.82,242.53,161.82,242.53Z" style="opacity:0.30000000000000004"></path><path d="M156.83,244.62l3.44,9.35c-.46,3.51-1,7.64-1.52,12.09a40.5,40.5,0,0,1-3.09-21.38Z" style="opacity:0.2"></path><path d="M167.6,250.33s6.91,11.1,9.43,12.4c1.61.84,18.43-3.32,18.43-3.32s4.8-4.93,6.94-5c2.53-.08,7.72,3,8.58,5.41a3.09,3.09,0,0,1-.86,2.62c-1.15.72-4.05-.91-5.4-.75-2.07.24-5.85,2.23-7.77,3.05-6.22,2.63-13.66,6.93-19.63,8.07-6.94,1.32-16.48-14.48-16.48-14.48Z" style="fill:#ffc3bd"></path><path d="M156.15,239.3s8.59-3.56,17,16.78c0,0-4.48.18-10.36,7.54,0,0-4.76-7.09-6.49-11.74C154,245.68,156.15,239.3,156.15,239.3Z" style="fill:#B536C6"></path><path d="M156.15,239.3s8.59-3.56,17,16.78c0,0-4.48.18-10.36,7.54,0,0-4.76-7.09-6.49-11.74C154,245.68,156.15,239.3,156.15,239.3Z" style="opacity:0.30000000000000004"></path><path d="M149.72,230.17a23.3,23.3,0,0,0,4.64-11.59s2.76.26,3.15-1.93-3.67-8-3.67-8,4.47.28,5.16-2.56c.42-1.73.2-4.28-2.59-6.64-3.1-2.63-2.91,2.54-2.91,2.54s-2.25-4.37-4.71-5.09-.56,4.7-.56,4.7-2.83-2.23-5.27-1.24c-1.54.63-.12,3.87-.12,3.87s-5.6,2.28-6.32,4c-.84,2,.07,5.11.44,8.43.32,3,2,7.54,4.52,11.57a2.66,2.66,0,0,0,2.29,1.28A27.36,27.36,0,0,1,149.72,230.17Z" style="fill:#263238"></path><rect x="159.56" y="210.44" width="1" height="10.31" transform="matrix(0.02, -1, 1, 0.02, -59.26, 370.51)" style="fill:#B536C6"></rect><path d="M155.76,216.92a5.9,5.9,0,0,1-.15,4.52c-.87,1.88-1.9,1.44-3-.19-1-1.48-1.71-4.24-.19-5.6S155.06,215.13,155.76,216.92Z" style="fill:#ffc3bd"></path><path d="M95.55,340.92c8.59,0,17.25-.31,25.83,0,13.68.49,12.82,14.33,13.51,24.17.71,10.19,1.56,20.38,2.14,30.58.38,6.7-3.43,12-10.48,12.32-3.37.13-6.78,0-10.16,0H85.93c-2.81,0-2.82,4.36,0,4.36h30.46c3.62,0,7.31.19,10.93,0a14.83,14.83,0,0,0,14.17-14.4c.26-10.09-1.38-20.52-2.08-30.58s.55-23-9.86-28.73c-5.15-2.85-11.49-2.06-17.17-2.06H95.55c-2.81,0-2.81,4.37,0,4.37Z" style="fill:#263238"></path><g style="opacity:0.5"><path d="M95.55,340.92c8.59,0,17.25-.31,25.83,0,13.68.49,12.82,14.33,13.51,24.17.71,10.19,1.56,20.38,2.14,30.58.38,6.7-3.43,12-10.48,12.32-3.37.13-6.78,0-10.16,0H85.93c-2.81,0-2.82,4.36,0,4.36h30.46c3.62,0,7.31.19,10.93,0a14.83,14.83,0,0,0,14.17-14.4c.26-10.09-1.38-20.52-2.08-30.58s.55-23-9.86-28.73c-5.15-2.85-11.49-2.06-17.17-2.06H95.55c-2.81,0-2.81,4.37,0,4.37Z" style="fill:#fff"></path></g><g style="opacity:0.2"><path d="M95.55,340.92c8.59,0,17.25-.31,25.83,0,13.68.49,12.82,14.33,13.51,24.17.71,10.19,1.56,20.38,2.14,30.58.38,6.7-3.43,12-10.48,12.32-3.37.13-6.78,0-10.16,0H85.93c-2.81,0-2.82,4.36,0,4.36h30.46c3.62,0,7.31.19,10.93,0a14.83,14.83,0,0,0,14.17-14.4c.26-10.09-1.38-20.52-2.08-30.58s.55-23-9.86-28.73c-5.15-2.85-11.49-2.06-17.17-2.06H95.55c-2.81,0-2.81,4.37,0,4.37Z"></path></g><path d="M129.55,338.61c-5.15-2.85-11.49-2.06-17.17-2.06H95.55c-2.81,0-2.81,4.37,0,4.37,8.59,0,17.25-.31,25.83,0a13.45,13.45,0,0,1,6.64,1.79h6.39A15.68,15.68,0,0,0,129.55,338.61Z" style="opacity:0.2"></path><path d="M88.84,327.56a104.09,104.09,0,0,1,23-3.16c8-.2,37.81,0,44.9,0a103.53,103.53,0,0,1,25.62,3.19c5.26,1.34,3.63,8.94-1.12,9-.42,0-90.61,0-90.94,0C85.28,336.8,83.46,328.93,88.84,327.56Z" style="fill:#263238"></path><path d="M179.86,336.42a94.21,94.21,0,0,0-46.35,0c-5.73,1.46-8.17-7.4-2.44-8.86a104.08,104.08,0,0,1,51.24,0c5.72,1.46,3.29,10.33-2.45,8.86Z" style="fill:#263238"></path><path d="M179.86,336.42a94.21,94.21,0,0,0-46.35,0c-5.73,1.46-8.17-7.4-2.44-8.86a104.08,104.08,0,0,1,51.24,0c5.72,1.46,3.29,10.33-2.45,8.86Z" style="fill:#fff;opacity:0.1"></path><path d="M112.55,261.83a2.79,2.79,0,0,1,2.53,1.46A98,98,0,0,1,127.36,331a2.49,2.49,0,0,1-2.36,2.21c-1.84.12-34.59,0-35.77,0a3.3,3.3,0,0,1-3.33-3.84,91.58,91.58,0,0,0-11.66-63c-1.4-2.33.66-4.51,2.75-4.55C77.94,261.81,110.46,261.87,112.55,261.83Z" style="fill:#263238"></path><path d="M112.55,261.83a2.79,2.79,0,0,1,2.53,1.46A98,98,0,0,1,127.36,331a2.49,2.49,0,0,1-2.36,2.21c-1.84.12-34.59,0-35.77,0a3.3,3.3,0,0,1-3.33-3.84,91.58,91.58,0,0,0-11.66-63c-1.4-2.33.66-4.51,2.75-4.55C77.94,261.81,110.46,261.87,112.55,261.83Z" style="fill:#fff;opacity:0.1"></path><path d="M121.45,329.34a91.47,91.47,0,0,0-11.66-63c-2-3.39,3.26-6.47,5.29-3.09A98,98,0,0,1,127.36,331c-.7,3.88-6.6,2.24-5.91-1.62Z" style="fill:#263238"></path><path d="M137.19,340.92c8.6,0,17.25-.31,25.84,0,13.68.49,12.82,14.33,13.5,24.17.72,10.19,1.56,20.38,2.14,30.58.38,6.7-3.43,12-10.47,12.32-3.38.13-6.79,0-10.17,0H127.57c-2.81,0-2.81,4.36,0,4.36H158c3.63,0,7.31.19,10.94,0a14.82,14.82,0,0,0,14.16-14.4c.27-10.09-1.37-20.52-2.07-30.58s.55-23-9.86-28.73c-5.16-2.85-11.5-2.06-17.17-2.06H137.19c-2.8,0-2.81,4.37,0,4.37Z" style="fill:#263238"></path><g style="opacity:0.5"><path d="M137.19,340.92c8.6,0,17.25-.31,25.84,0,13.68.49,12.82,14.33,13.5,24.17.72,10.19,1.56,20.38,2.14,30.58.38,6.7-3.43,12-10.47,12.32-3.38.13-6.79,0-10.17,0H127.57c-2.81,0-2.81,4.36,0,4.36H158c3.63,0,7.31.19,10.94,0a14.82,14.82,0,0,0,14.16-14.4c.27-10.09-1.37-20.52-2.07-30.58s.55-23-9.86-28.73c-5.16-2.85-11.5-2.06-17.17-2.06H137.19c-2.8,0-2.81,4.37,0,4.37Z" style="fill:#fff"></path></g><path d="M171.2,338.61c-5.16-2.85-11.5-2.06-17.17-2.06H137.19c-2.8,0-2.81,4.37,0,4.37,8.6,0,17.25-.31,25.84,0a13.48,13.48,0,0,1,6.64,1.79h6.39A15.91,15.91,0,0,0,171.2,338.61Z" style="opacity:0.2"></path></g><g id="freepik--Screen--inject-2"><rect x="168.78" y="91.15" width="162.44" height="114.44" rx="9.06" style="fill:#B536C6"></rect><rect x="168.78" y="91.15" width="162.44" height="114.44" rx="9.06" style="fill:#fff;opacity:0.8"></rect><path d="M322.16,207.59H177.84a11.07,11.07,0,0,1-11.06-11.06V100.21a11.07,11.07,0,0,1,11.06-11.06H322.16a11.07,11.07,0,0,1,11.06,11.06v96.32A11.07,11.07,0,0,1,322.16,207.59ZM177.84,93.15a7.07,7.07,0,0,0-7.06,7.06v96.32a7.07,7.07,0,0,0,7.06,7.06H322.16a7.07,7.07,0,0,0,7.06-7.06V100.21a7.07,7.07,0,0,0-7.06-7.06Z" style="fill:#263238"></path><rect x="199.91" y="98.28" width="100.19" height="100.19" style="fill:#263238"></rect><rect x="199.91" y="98.28" width="100.19" height="100.19" style="fill:#fff"></rect><rect x="212.43" y="98.28" width="12.52" height="12.52" style="fill:#B536C6"></rect><rect x="237.48" y="98.28" width="12.52" height="12.52" style="fill:#B536C6"></rect><rect x="262.52" y="98.28" width="12.52" height="12.52" style="fill:#B536C6"></rect><rect x="287.57" y="98.28" width="12.52" height="12.52" style="fill:#B536C6"></rect><rect x="199.91" y="110.8" width="12.52" height="12.52" style="fill:#B536C6"></rect><rect x="224.95" y="110.8" width="12.52" height="12.52" style="fill:#B536C6"></rect><rect x="250" y="110.8" width="12.52" height="12.52" style="fill:#B536C6"></rect><rect x="275.05" y="110.8" width="12.52" height="12.52" style="fill:#B536C6"></rect><rect x="212.43" y="123.33" width="12.52" height="12.52" style="fill:#B536C6"></rect><rect x="237.48" y="123.33" width="12.52" height="12.52" style="fill:#B536C6"></rect><rect x="262.52" y="123.33" width="12.52" height="12.52" style="fill:#B536C6"></rect><rect x="287.57" y="123.33" width="12.52" height="12.52" style="fill:#B536C6"></rect><rect x="199.91" y="135.85" width="12.52" height="12.52" style="fill:#B536C6"></rect><rect x="224.95" y="135.85" width="12.52" height="12.52" style="fill:#B536C6"></rect><rect x="250" y="135.85" width="12.52" height="12.52" style="fill:#B536C6"></rect><rect x="275.05" y="135.85" width="12.52" height="12.52" style="fill:#B536C6"></rect><rect x="212.43" y="148.37" width="12.52" height="12.52" style="fill:#B536C6"></rect><rect x="237.48" y="148.37" width="12.52" height="12.52" style="fill:#B536C6"></rect><rect x="262.52" y="148.37" width="12.52" height="12.52" style="fill:#B536C6"></rect><rect x="287.57" y="148.37" width="12.52" height="12.52" style="fill:#B536C6"></rect><rect x="199.91" y="160.9" width="12.52" height="12.52" style="fill:#B536C6"></rect><rect x="224.95" y="160.9" width="12.52" height="12.52" style="fill:#B536C6"></rect><rect x="250" y="160.9" width="12.52" height="12.52" style="fill:#B536C6"></rect><rect x="275.05" y="160.9" width="12.52" height="12.52" style="fill:#B536C6"></rect><rect x="212.43" y="173.42" width="12.52" height="12.52" style="fill:#B536C6"></rect><rect x="237.48" y="173.42" width="12.52" height="12.52" style="fill:#B536C6"></rect><rect x="262.52" y="173.42" width="12.52" height="12.52" style="fill:#B536C6"></rect><rect x="287.57" y="173.42" width="12.52" height="12.52" style="fill:#B536C6"></rect><rect x="199.91" y="185.94" width="12.52" height="12.52" style="fill:#B536C6"></rect><rect x="224.95" y="185.94" width="12.52" height="12.52" style="fill:#B536C6"></rect><rect x="250" y="185.94" width="12.52" height="12.52" style="fill:#B536C6"></rect><rect x="275.05" y="185.94" width="12.52" height="12.52" style="fill:#B536C6"></rect><g style="opacity:0.30000000000000004"><rect x="212.43" y="98.28" width="12.52" height="12.52"></rect><rect x="237.48" y="98.28" width="12.52" height="12.52"></rect><rect x="262.52" y="98.28" width="12.52" height="12.52"></rect><rect x="287.57" y="98.28" width="12.52" height="12.52"></rect><rect x="199.91" y="110.8" width="12.52" height="12.52"></rect><rect x="224.95" y="110.8" width="12.52" height="12.52"></rect><rect x="250" y="110.8" width="12.52" height="12.52"></rect><rect x="275.05" y="110.8" width="12.52" height="12.52"></rect><rect x="212.43" y="123.33" width="12.52" height="12.52"></rect><rect x="237.48" y="123.33" width="12.52" height="12.52"></rect><rect x="262.52" y="123.33" width="12.52" height="12.52"></rect><rect x="287.57" y="123.33" width="12.52" height="12.52"></rect><rect x="199.91" y="135.85" width="12.52" height="12.52"></rect><rect x="224.95" y="135.85" width="12.52" height="12.52"></rect><rect x="250" y="135.85" width="12.52" height="12.52"></rect><rect x="275.05" y="135.85" width="12.52" height="12.52"></rect><rect x="212.43" y="148.37" width="12.52" height="12.52"></rect><rect x="237.48" y="148.37" width="12.52" height="12.52"></rect><rect x="262.52" y="148.37" width="12.52" height="12.52"></rect><rect x="287.57" y="148.37" width="12.52" height="12.52"></rect><rect x="199.91" y="160.9" width="12.52" height="12.52"></rect><rect x="224.95" y="160.9" width="12.52" height="12.52"></rect><rect x="250" y="160.9" width="12.52" height="12.52"></rect><rect x="275.05" y="160.9" width="12.52" height="12.52"></rect><rect x="212.43" y="173.42" width="12.52" height="12.52"></rect><rect x="237.48" y="173.42" width="12.52" height="12.52"></rect><rect x="262.52" y="173.42" width="12.52" height="12.52"></rect><rect x="287.57" y="173.42" width="12.52" height="12.52"></rect><rect x="199.91" y="185.94" width="12.52" height="12.52"></rect><rect x="224.95" y="185.94" width="12.52" height="12.52"></rect><rect x="250" y="185.94" width="12.52" height="12.52"></rect><rect x="275.05" y="185.94" width="12.52" height="12.52"></rect></g><path d="M233.8,134.26v-1.48c-1.92-1.15-1.45-4.68-1.27-5.66h.19a.27.27,0,0,0,.27-.27.28.28,0,0,0-.15-.24l1-.87v-1.4H233v.52h-.91v-.52h-1.73v.52h-.91v-.52h-.83v1.4l1,.87a.28.28,0,0,0-.15.24.27.27,0,0,0,.27.27h.19c.17,1,.65,4.51-1.27,5.66v1.48l-.58.57h6.33Z" style="fill:#263238"></path><path d="M258.85,159v-1.47c-1.92-1.15-1.45-4.69-1.28-5.66h.2a.27.27,0,0,0,.27-.27.28.28,0,0,0-.15-.24l1-.87v-1.4H258v.52h-.91v-.52H255.4v.52h-.91v-.52h-.83v1.4l1,.87a.28.28,0,0,0-.15.24.27.27,0,0,0,.27.27H255c.17,1,.65,4.51-1.27,5.66V159l-.58.58h6.32Z" style="fill:#263238"></path><path d="M258.85,159v-1.47c-1.92-1.15-1.45-4.69-1.28-5.66h.2a.27.27,0,0,0,.27-.27.28.28,0,0,0-.15-.24l1-.87v-1.4H258v.52h-.91v-.52H255.4v.52h-.91v-.52h-.83v1.4l1,.87a.28.28,0,0,0-.15.24.27.27,0,0,0,.27.27H255c.17,1,.65,4.51-1.27,5.66V159l-.58.58h6.32Z" style="fill:#fff;opacity:0.7000000000000001"></path><path d="M281.3,125l-.46-.47a.33.33,0,0,1,0,.45.31.31,0,0,1-.45,0l.46.47a.33.33,0,0,0,.45,0A.31.31,0,0,0,281.3,125Z" style="fill:#263238"></path><path d="M281.3,125l-.46-.47a.33.33,0,0,1,0,.45.31.31,0,0,1-.45,0l.46.47a.33.33,0,0,0,.45,0A.31.31,0,0,0,281.3,125Z" style="fill:#fff;opacity:0.2"></path><path d="M283.59,134.44V133c-1.92-1.15-1.45-4.68-1.28-5.66h.2a.27.27,0,0,0,.27-.27.28.28,0,0,0-.15-.24h-1a1.21,1.21,0,0,0,.82-1.17c0-.8-1.46-2.16-1.46-2.16s-.29.27-.61.64l.91.92a.31.31,0,0,1,0,.45.33.33,0,0,1-.45,0l-.86-.86a2,2,0,0,0-.44,1,1.2,1.2,0,0,0,.82,1.17h-1a.28.28,0,0,0-.15.24.27.27,0,0,0,.27.27h.19c.17,1,.65,4.51-1.27,5.66v1.48l-.58.57h6.32Z" style="fill:#263238"></path><path d="M294.13,162.52l-.46-.46a.32.32,0,1,1-.45.45l.46.46a.32.32,0,0,0,.45-.45Z" style="fill:#263238"></path><path d="M294.13,162.52l-.46-.46a.32.32,0,1,1-.45.45l.46.46a.32.32,0,0,0,.45-.45Z" style="fill:#fff;opacity:0.5"></path><path d="M296.42,171.94v-1.48c-1.92-1.14-1.45-4.68-1.28-5.65h.2a.27.27,0,0,0,.27-.27.26.26,0,0,0-.15-.24h-1a1.22,1.22,0,0,0,.82-1.17c0-.81-1.46-2.17-1.46-2.17a8.2,8.2,0,0,0-.61.65l.91.91a.32.32,0,0,1-.45.45l-.86-.86a2,2,0,0,0-.44,1,1.21,1.21,0,0,0,.82,1.17h-1a.26.26,0,0,0-.15.24.27.27,0,0,0,.27.27h.19c.17,1,.65,4.51-1.27,5.65v1.48l-.58.58H297Z" style="fill:#263238"></path><path d="M296.42,171.94v-1.48c-1.92-1.14-1.45-4.68-1.28-5.65h.2a.27.27,0,0,0,.27-.27.26.26,0,0,0-.15-.24h-1a1.22,1.22,0,0,0,.82-1.17c0-.81-1.46-2.17-1.46-2.17a8.2,8.2,0,0,0-.61.65l.91.91a.32.32,0,0,1-.45.45l-.86-.86a2,2,0,0,0-.44,1,1.21,1.21,0,0,0,.82,1.17h-1a.26.26,0,0,0-.15.24.27.27,0,0,0,.27.27h.19c.17,1,.65,4.51-1.27,5.65v1.48l-.58.58H297Z" style="fill:#fff;opacity:0.7000000000000001"></path><path d="M266.37,119.81v1.48l-.58.57h6.32l-.57-.57v-1.48c-1.92-1.15,0-3.31,0-5.48,0-1.79-1.7-2-2.92-1.84l-.94-.23.16.35a3.22,3.22,0,0,0-.41.09l.18.58a3.77,3.77,0,0,0-1,.77c-.29.43-.6.2-1,.85s.18.83.18.83c.71-.34.13.14.13.14a7.19,7.19,0,0,0,1.93-.29C268,116.55,268.29,118.66,266.37,119.81Z" style="fill:#263238"></path><path d="M208.31,196.22V195c-1.59-.95-1.2-3.88-1.06-4.68h.16a.23.23,0,0,0,.23-.23.21.21,0,0,0-.13-.2h-.09a1.66,1.66,0,0,0,.43-1.12,1.69,1.69,0,1,0-3.37,0,1.71,1.71,0,0,0,.43,1.12h-.09a.2.2,0,0,0-.12.2.22.22,0,0,0,.22.23h.16c.14.8.54,3.73-1.05,4.68v1.22l-.48.48h5.23Z" style="fill:#263238"></path><path d="M208.31,196.22V195c-1.59-.95-1.2-3.88-1.06-4.68h.16a.23.23,0,0,0,.23-.23.21.21,0,0,0-.13-.2h-.09a1.66,1.66,0,0,0,.43-1.12,1.69,1.69,0,1,0-3.37,0,1.71,1.71,0,0,0,.43,1.12h-.09a.2.2,0,0,0-.12.2.22.22,0,0,0,.22.23h.16c.14.8.54,3.73-1.05,4.68v1.22l-.48.48h5.23Z" style="fill:#fff;opacity:0.7000000000000001"></path><path d="M233.28,171.08v-1.23c-1.59-.95-1.2-3.87-1.05-4.68h.16a.22.22,0,0,0,.22-.22.19.19,0,0,0-.12-.2l-.09,0a1.71,1.71,0,0,0,.43-1.12,1.69,1.69,0,1,0-3,1.12l-.09,0a.21.21,0,0,0-.12.2.22.22,0,0,0,.23.22h.15c.15.81.54,3.73-1.05,4.68v1.23l-.48.47h5.24Z" style="fill:#263238"></path><path d="M233.28,171.08v-1.23c-1.59-.95-1.2-3.87-1.05-4.68h.16a.22.22,0,0,0,.22-.22.19.19,0,0,0-.12-.2l-.09,0a1.71,1.71,0,0,0,.43-1.12,1.69,1.69,0,1,0-3,1.12l-.09,0a.21.21,0,0,0-.12.2.22.22,0,0,0,.23.22h.15c.15.81.54,3.73-1.05,4.68v1.23l-.48.47h5.24Z" style="fill:#fff;opacity:0.7000000000000001"></path><path d="M270.93,184V182.8c-1.59-1-1.2-3.88-1.06-4.69H270a.22.22,0,0,0,.22-.22.19.19,0,0,0-.12-.2l-.09,0a1.68,1.68,0,0,0-1.25-2.8,1.69,1.69,0,0,0-1.69,1.68,1.66,1.66,0,0,0,.43,1.12l-.09,0a.19.19,0,0,0-.12.2.22.22,0,0,0,.22.22h.16c.14.81.53,3.74-1.05,4.69V184l-.48.48h5.23Z" style="fill:#263238"></path><path d="M270.93,184V182.8c-1.59-1-1.2-3.88-1.06-4.69H270a.22.22,0,0,0,.22-.22.19.19,0,0,0-.12-.2l-.09,0a1.68,1.68,0,0,0-1.25-2.8,1.69,1.69,0,0,0-1.69,1.68,1.66,1.66,0,0,0,.43,1.12l-.09,0a.19.19,0,0,0-.12.2.22.22,0,0,0,.22.22h.16c.14.81.53,3.74-1.05,4.69V184l-.48.48h5.23Z" style="fill:#fff;opacity:0.7000000000000001"></path><path d="M220.83,171.08v-1.23c-1.59-.95-1.19-3.87-1.05-4.68h.16a.22.22,0,0,0,.22-.22.19.19,0,0,0-.12-.2l-.09,0a1.71,1.71,0,0,0,.43-1.12,1.69,1.69,0,1,0-2.95,1.12l-.08,0a.2.2,0,0,0-.13.2.22.22,0,0,0,.23.22h.15c.15.81.54,3.73-1,4.68v1.23l-.48.47h5.24Z" style="fill:#263238"></path><path d="M246.25,158.27v-1.43c-1.87-1.11-1.61-4.55-1.45-5.5h.4a.26.26,0,0,0,.26-.26.23.23,0,0,0-.14-.23l-.11,0-.62,0a7.37,7.37,0,0,1,.52-2.71H244l-.14-.92.78.17v-.64l-.78.18.18-.78h-.64l.17.78-.77-.18v.64l.77-.17-.13.92h-1.09a7.81,7.81,0,0,1,.52,2.71l-.63,0-.1,0a.23.23,0,0,0-.15.23.26.26,0,0,0,.27.26h.39c.17.95.42,4.39-1.44,5.5v1.43l-.56.56h6.14Z" style="fill:#263238"></path><path d="M246.25,158.27v-1.43c-1.87-1.11-1.61-4.55-1.45-5.5h.4a.26.26,0,0,0,.26-.26.23.23,0,0,0-.14-.23l-.11,0-.62,0a7.37,7.37,0,0,1,.52-2.71H244l-.14-.92.78.17v-.64l-.78.18.18-.78h-.64l.17.78-.77-.18v.64l.77-.17-.13.92h-1.09a7.81,7.81,0,0,1,.52,2.71l-.63,0-.1,0a.23.23,0,0,0-.15.23.26.26,0,0,0,.27.26h.39c.17.95.42,4.39-1.44,5.5v1.43l-.56.56h6.14Z" style="fill:#fff;opacity:0.7000000000000001"></path><path d="M257.77,134.45V133c-1.86-1.12-1.61-4.55-1.44-5.5h.39a.27.27,0,0,0,.27-.26.23.23,0,0,0-.15-.23l-.1,0c-.18,0-.39,0-.63,0a7.81,7.81,0,0,1,.52-2.71h-1.09l-.13-.92.77.17v-.64l-.77.18.17-.78h-.64l.18.78-.78-.18v.64l.78-.17-.14.92h-1.09a7.37,7.37,0,0,1,.52,2.71c-.24,0-.45,0-.62,0l-.11,0a.23.23,0,0,0-.14.23.26.26,0,0,0,.26.26h.4c.16,1,.42,4.38-1.45,5.5v1.43l-.56.56h6.14Z" style="fill:#263238"></path></g></svg>