<svg xmlns="http://www.w3.org/2000/svg" viewBox="0 0 750 500"><g id="freepik--background-simple--inject-2"><path d="M579,128.94a105.47,105.47,0,0,0-14.79-20.72C543.72,86,516.33,71.13,488.17,61a371.11,371.11,0,0,0-129.55-21.5c-49.5.6-100.15,14.24-141.86,41.26a188.6,188.6,0,0,0-53,51.11c-16.49,23.82-21,52.36-34.16,77.85-13.68,26.58-31.89,50.55-50.93,73.48-12.24,14.73-25,29.3-33.85,46.27S31.14,366.41,36,384.93c4.4,16.82,16.36,30.93,30.65,40.83,33.44,23.15,77.52,29,117.13,31.15,174.29,9.6,151.91-12.79,277.43-1.6,71.92,6.42,173.19,9.73,213.58-63.86,13.72-25,18.21-53.93,5.65-80.46-9.56-20.19-26.94-35.33-42.64-51.21-21.67-21.92-31.11-44.32-38.75-73.63C593.86,166.29,588.68,146.55,579,128.94Z" style="fill:#B536C6"></path><path d="M579,128.94a105.47,105.47,0,0,0-14.79-20.72C543.72,86,516.33,71.13,488.17,61a371.11,371.11,0,0,0-129.55-21.5c-49.5.6-100.15,14.24-141.86,41.26a188.6,188.6,0,0,0-53,51.11c-16.49,23.82-21,52.36-34.16,77.85-13.68,26.58-31.89,50.55-50.93,73.48-12.24,14.73-25,29.3-33.85,46.27S31.14,366.41,36,384.93c4.4,16.82,16.36,30.93,30.65,40.83,33.44,23.15,77.52,29,117.13,31.15,174.29,9.6,151.91-12.79,277.43-1.6,71.92,6.42,173.19,9.73,213.58-63.86,13.72-25,18.21-53.93,5.65-80.46-9.56-20.19-26.94-35.33-42.64-51.21-21.67-21.92-31.11-44.32-38.75-73.63C593.86,166.29,588.68,146.55,579,128.94Z" style="fill:#fff;opacity:0.7000000000000001"></path></g><g id="freepik--Wall--inject-2"><rect x="342.45" y="102.78" width="50.34" height="20.38" style="opacity:0.2"></rect><rect x="342.45" y="157.78" width="50.34" height="20.38" style="opacity:0.2"></rect><rect x="110.06" y="158.78" width="50.34" height="20.38" style="opacity:0.2"></rect><rect x="428.92" y="130.95" width="50.34" height="20.38" style="opacity:0.1"></rect><rect x="401.45" y="157.6" width="50.34" height="20.38" style="opacity:0.1"></rect><rect x="574.48" y="130.95" width="50.34" height="20.38" style="opacity:0.1"></rect><rect x="547" y="157.6" width="50.34" height="20.38" style="opacity:0.1"></rect><rect x="284.03" y="102.78" width="50.34" height="20.38" style="opacity:0.2"></rect><rect x="579.05" y="265.08" width="50.34" height="20.38" style="opacity:0.2"></rect><rect x="314" y="130.95" width="50.34" height="20.38" style="opacity:0.1"></rect><rect x="612.21" y="292.45" width="50.34" height="20.38" style="opacity:0.1"></rect><rect x="68.25" y="293.22" width="50.34" height="20.38" style="opacity:0.1"></rect><rect x="98.63" y="320.4" width="50.34" height="20.38" style="opacity:0.1"></rect><rect x="290" y="188.95" width="50.34" height="20.38" style="opacity:0.1"></rect><rect x="362" y="215.95" width="50.34" height="20.38" style="opacity:0.1"></rect><rect x="172" y="215.95" width="50.34" height="20.38" style="opacity:0.1"></rect><rect x="441.61" y="218.07" width="50.34" height="20.38" style="opacity:0.1"></rect><rect x="269" y="61.95" width="50.34" height="20.38" style="opacity:0.1"></rect><rect x="429" y="61.95" width="50.34" height="20.38" style="opacity:0.1"></rect><rect x="169.11" y="102.78" width="50.34" height="20.38" style="opacity:0.2"></rect><rect x="224.54" y="160.95" width="50.34" height="20.38" style="opacity:0.1"></rect><rect x="126.15" y="217.11" width="50.34" height="20.38" style="opacity:0.2"></rect><rect x="123.4" y="291.92" width="50.34" height="20.38" style="opacity:0.2"></rect><rect x="98.58" y="245.28" width="50.34" height="20.38" style="opacity:0.1"></rect><rect x="156.11" y="245.28" width="50.34" height="20.38" style="opacity:0.1"></rect></g><g id="freepik--Floor--inject-2"><line x1="673.85" y1="367.37" x2="49.45" y2="367.37" style="fill:none;stroke:#263238;stroke-miterlimit:10"></line></g><g id="freepik--Lamp--inject-2"><circle cx="374.63" cy="78.56" r="11.44" style="fill:#fff;stroke:#263238;stroke-miterlimit:10"></circle><polygon points="424.9 81.88 385.19 54.04 385.47 54.04 385.47 42.04 376.19 42.04 376.19 7.36 373.08 7.36 373.08 42.04 363.79 42.04 363.79 54.04 364.08 54.04 324.37 81.88 424.9 81.88" style="fill:#263238;stroke:#263238;stroke-miterlimit:10"></polygon></g><g id="freepik--plant-2--inject-2"><path d="M639.92,199.51h0a.12.12,0,0,0-.07-.17.12.12,0,0,0-.17.07,174.54,174.54,0,0,0-9.17,28.72,269.69,269.69,0,0,0-5,29.77l-.72,7.53c-.11,1.25-.24,2.51-.33,3.76L624.2,273c-.11,2.52-.26,5-.33,7.56l.06,7.56.09,3.78c.05,1.26.14,2.52.23,3.77.19,2.52.34,5,.57,7.54.49,5,1.24,10,2,15a.13.13,0,0,0,.13.11.13.13,0,0,0,.13-.13h0c0-2.52-.12-5-.18-7.54s-.29-5-.25-7.51-.06-5-.08-7.5l-.07-3.75.06-3.75,0-7.5.2-7.49.08-3.74c0-1.25.14-2.5.21-3.75l.46-7.48a263.42,263.42,0,0,1,4.24-29.7A173.33,173.33,0,0,1,639.92,199.51Z" style="fill:#263238"></path><path d="M641,238.69a.13.13,0,0,0-.25-.08,176.63,176.63,0,0,0-5.33,19,174.11,174.11,0,0,0-3.15,19.57c-.67,6.55-1.4,13.12-1.49,19.71a163.48,163.48,0,0,0,.7,19.78.13.13,0,0,0,.12.12.14.14,0,0,0,.14-.12c.76-6.57,1.23-13.12,1.68-19.66s.53-13.11,1-19.66a175.42,175.42,0,0,1,2.33-19.48A180.54,180.54,0,0,1,641,238.69Z" style="fill:#263238"></path><path d="M662.72,252.48a.14.14,0,0,0-.19,0A66.59,66.59,0,0,0,648,265.1a57.73,57.73,0,0,0-5.68,7.9l-1.17,2.2-.91,2.29a21.93,21.93,0,0,0-.8,2.32c-.24.78-.5,1.56-.71,2.35a93.21,93.21,0,0,0-3,19.16,110.14,110.14,0,0,0,.72,19.3.15.15,0,0,0,.12.12.13.13,0,0,0,.14-.13l1.66-19.1c.66-6.32,1.06-12.67,2.42-18.84.17-.77.39-1.52.59-2.28a17.15,17.15,0,0,1,.67-2.25l.77-2.21,1-2.09a56.66,56.66,0,0,1,5.2-7.9,65.81,65.81,0,0,1,13.64-13.28h0A.14.14,0,0,0,662.72,252.48Z" style="fill:#263238"></path><path d="M652.2,277c-3,1.91-4.94,4.91-6.6,7.94a47.15,47.15,0,0,0-3.71,9.73c-.26.83-.46,1.67-.64,2.52l-.6,2.54a40.86,40.86,0,0,0-.64,5.16c0,1.73-.07,3.46,0,5.19a47.31,47.31,0,0,0,.68,5.16.17.17,0,0,0,.11.11.14.14,0,0,0,.16-.11,45.54,45.54,0,0,0,.91-5.08c.27-1.68.53-3.35.73-5s.47-3.33.6-5,.36-3.35.72-5a45.24,45.24,0,0,1,2.83-9.64,21.39,21.39,0,0,1,5.55-8.29h0a.12.12,0,0,0,0-.17A.12.12,0,0,0,652.2,277Z" style="fill:#263238"></path><path d="M621.73,296.16c-.71-8.48-2.11-16.87-3.43-25.27s-2.79-16.76-4.33-25.11-3.25-16.67-5.05-25a.13.13,0,0,0-.15-.11.15.15,0,0,0-.11.16c1.45,8.36,2.77,16.74,4,25.14s2.47,16.78,3.53,25.19S618,288,619.1,296.44l3.1,25.25a.13.13,0,0,0,.13.12.14.14,0,0,0,.14-.13c.09-2.13.1-4.25.15-6.39s-.09-4.25-.13-6.38C622.42,304.65,622.05,300.41,621.73,296.16Z" style="fill:#263238"></path><path d="M616.65,296c-.46-3.36-1.07-6.7-1.72-10l-1.19-4.95c-.39-1.65-.76-3.3-1.24-4.93A139.64,139.64,0,0,0,606,256.84l-1-2.34-1.13-2.28c-.72-1.54-1.59-3-2.41-4.48a38.21,38.21,0,0,0-6.12-8.12.13.13,0,0,0-.19.19h0a37.23,37.23,0,0,1,5.6,8.3c.74,1.51,1.52,3,2.15,4.55l1,2.31.88,2.36a137.5,137.5,0,0,1,5.65,19.29c.78,3.26,1.29,6.59,1.92,9.88l.79,5c.29,1.65.65,3.29.88,5,.53,3.31,1.14,6.62,1.72,9.94s1.12,6.65,1.82,10a.14.14,0,0,0,.13.11.13.13,0,0,0,.13-.13q0-5.08-.23-10.16C617.4,302.78,617,299.42,616.65,296Z" style="fill:#263238"></path><path d="M609.63,296.48c-1.57-4.46-3.39-8.81-5.37-13.08A117.79,117.79,0,0,0,597.5,271a.14.14,0,0,0-.18,0,.13.13,0,0,0,0,.18A117,117,0,0,1,603,283.92c1.72,4.34,3.27,8.74,4.57,13.21s2.28,9,3.47,13.51,2.26,9,3.64,13.56a.15.15,0,0,0,.13.1.13.13,0,0,0,.13-.13,67.56,67.56,0,0,0-1.32-14.12A87.75,87.75,0,0,0,609.63,296.48Z" style="fill:#263238"></path><path d="M609.34,311.3a30.64,30.64,0,0,0-3.74-7.83,32.44,32.44,0,0,0-5.43-6.75,24.9,24.9,0,0,0-3.46-2.61,14,14,0,0,0-3.92-1.77.12.12,0,0,0-.15.07.13.13,0,0,0,.06.17h0a19.45,19.45,0,0,1,6.5,5.05,31.12,31.12,0,0,1,4.54,6.87c1.28,2.43,2,5.13,3.07,7.63.49,1.29,1,2.59,1.55,3.87a32.58,32.58,0,0,0,1.71,3.92h0a.14.14,0,0,0,.12.07.14.14,0,0,0,.14-.13,33.08,33.08,0,0,0-.16-4.34C610,314.12,609.68,312.71,609.34,311.3Z" style="fill:#263238"></path><path d="M609.86,233s-13.9-3.21-17.1-18.18,7.12-8.55-2.14-32.07-7.13-28.87-3.92-35.64,5-4.63,7.84,4.28,13.18,22.81,17.1,48.82S609.86,233,609.86,233Z" style="fill:#B536C6"></path><path d="M637.3,207.65S628,204.44,627.68,187s6.77-13.9,7.84-35.64,2.49-37.06,6.41-37.42,14.26,10.69,17.82,34.93-4.63,40.27-11.76,47.39S637.3,207.65,637.3,207.65Z" style="fill:#B536C6"></path><path d="M604.87,254s-2.14-12.83-6.41-18.89-13.55-11.41-19.6-23.17-12.83-17.46-12.48-.71,7.84,25.3,17.11,31S604.87,254,604.87,254Z" style="fill:#B536C6"></path><path d="M601,276.07s-8.55-16.39-21-28.51S557.47,229.39,561,235.44s7.84,5.71,13.9,16.4,4.27,18.53,12.83,24.59S601,276.07,601,276.07Z" style="fill:#B536C6"></path><path d="M599.88,297.1c-.35-1.07-.71-8.91-12.83-15.33s-23.52-3.92-22.09-.71,8.91,8.55,16.39,11.76S599.88,297.1,599.88,297.1Z" style="fill:#B536C6"></path><path d="M636.59,254.69s-5.35-6.77-2.5-21,9.27-10.69,16.4-18.17,5.7-8.56,12.83-16.4,13.54-12.11,16.39-8.91-1.42,13.19-5.7,18.89-11,8.56-14.26,15.68-1.78,18.53-10,23.88S636.59,254.69,636.59,254.69Z" style="fill:#B536C6"></path><path d="M654.41,258.61s12.83-14.61,22.09-25.3,12.83-18.89,13.19-11.76,3.21,12.83-4.28,22.09S654.41,258.61,654.41,258.61Z" style="fill:#B536C6"></path><path d="M647.64,282.13s-.36-5.7,20-18.89,28.87-15.68,26.73-10.33-11.05,10.69-20.67,20.31S647.64,282.13,647.64,282.13Z" style="fill:#B536C6"></path><path d="M610.71,231.43s-4.77-25.56-9.76-43.74-8.19-29.22-8.19-29.22" style="fill:none;stroke:#263238;stroke-linecap:round;stroke-linejoin:round"></path><path d="M636.48,207.92s8.66-27.71,11.51-44.46-.35-29.23-1.78-36.71" style="fill:none;stroke:#263238;stroke-linecap:round;stroke-linejoin:round"></path><path d="M603.75,253.44a134.6,134.6,0,0,0-13.13-18.71c-7.84-9.26-13.9-14.25-17.47-23.16" style="fill:none;stroke:#263238;stroke-linecap:round;stroke-linejoin:round"></path><path d="M636.59,254.69s2.85-17.11,9.62-26,20.31-22.8,25.66-31.71" style="fill:none;stroke:#263238;stroke-linecap:round;stroke-linejoin:round"></path><path d="M599.05,296.71s-12-7.81-20.55-12.09" style="fill:none;stroke:#263238;stroke-linecap:round;stroke-linejoin:round"></path><path d="M633.92,372.29H618.23a6.87,6.87,0,0,1-6.35-4.22c-5.13-12.29-18.81-47.74-10.57-57.79,7.85-9.57,41.68-9.57,49.53,0,8.25,10.05-5.44,45.5-10.56,57.79A6.89,6.89,0,0,1,633.92,372.29Z" style="fill:#263238;stroke:#263238;stroke-linecap:round;stroke-linejoin:round"></path></g><g id="freepik--plant-1--inject-2"><path d="M121.84,199.51h0a.14.14,0,0,0-.07-.17.14.14,0,0,0-.18.07,174.5,174.5,0,0,0-9.16,28.72,267.38,267.38,0,0,0-5.06,29.77l-.71,7.53c-.11,1.25-.25,2.51-.34,3.76l-.2,3.78c-.11,2.52-.27,5-.34,7.56l.07,7.56.08,3.78c.06,1.26.15,2.52.24,3.77.19,2.52.34,5,.57,7.54.48,5,1.24,10,2,15a.14.14,0,0,0,.13.11.12.12,0,0,0,.13-.13h0c0-2.52-.11-5-.17-7.54s-.29-5-.26-7.51,0-5-.08-7.5l-.07-3.75.07-3.75,0-7.5.21-7.49.07-3.74c.05-1.25.14-2.5.21-3.75l.46-7.48a268.07,268.07,0,0,1,4.24-29.7A174.29,174.29,0,0,1,121.84,199.51Z" style="fill:#263238"></path><path d="M122.92,238.69a.13.13,0,0,0-.09-.16.12.12,0,0,0-.16.08,173.75,173.75,0,0,0-8.49,38.6c-.66,6.55-1.4,13.12-1.49,19.71a165.54,165.54,0,0,0,.7,19.78.15.15,0,0,0,.12.12.14.14,0,0,0,.15-.12c.76-6.57,1.22-13.12,1.68-19.66s.53-13.11,1-19.66a177.85,177.85,0,0,1,2.34-19.48A175.75,175.75,0,0,1,122.92,238.69Z" style="fill:#263238"></path><path d="M144.64,252.48a.13.13,0,0,0-.18,0,66.41,66.41,0,0,0-14.53,12.66,58.6,58.6,0,0,0-5.68,7.9l-1.16,2.2-.92,2.29a19.82,19.82,0,0,0-.79,2.32c-.24.78-.5,1.56-.71,2.35a93.91,93.91,0,0,0-3,19.16,111.12,111.12,0,0,0,.72,19.3.15.15,0,0,0,.13.12.14.14,0,0,0,.14-.13l1.65-19.1c.66-6.32,1.07-12.67,2.42-18.84.18-.77.4-1.52.59-2.28a20.87,20.87,0,0,1,.67-2.25l.78-2.21,1-2.09a56.66,56.66,0,0,1,5.2-7.9,65.57,65.57,0,0,1,13.64-13.28h0A.14.14,0,0,0,144.64,252.48Z" style="fill:#263238"></path><path d="M134.13,277c-3,1.91-4.94,4.91-6.61,7.94a47.12,47.12,0,0,0-3.7,9.73c-.26.83-.46,1.67-.65,2.52l-.59,2.54a42.8,42.8,0,0,0-.65,5.16c0,1.73-.07,3.46,0,5.19a45,45,0,0,0,.68,5.16.14.14,0,0,0,.11.11.13.13,0,0,0,.15-.11,45.59,45.59,0,0,0,.92-5.08c.27-1.68.53-3.35.73-5s.47-3.33.6-5,.35-3.35.71-5a45.26,45.26,0,0,1,2.84-9.64,21.37,21.37,0,0,1,5.54-8.29h0a.13.13,0,0,0,0-.17A.12.12,0,0,0,134.13,277Z" style="fill:#263238"></path><path d="M103.66,296.16c-.72-8.48-2.11-16.87-3.44-25.27s-2.78-16.76-4.32-25.11-3.25-16.67-5.05-25a.13.13,0,1,0-.26.05c1.45,8.36,2.76,16.74,4,25.14s2.47,16.78,3.54,25.19S100,288,101,296.44l3.1,25.25a.13.13,0,0,0,.26,0c.1-2.13.1-4.25.15-6.39s-.08-4.25-.12-6.38C104.34,304.65,104,300.41,103.66,296.16Z" style="fill:#263238"></path><path d="M98.57,296c-.45-3.36-1.07-6.7-1.71-10l-1.19-4.95c-.39-1.65-.76-3.3-1.24-4.93a141,141,0,0,0-6.49-19.29l-1-2.34-1.13-2.28c-.72-1.54-1.59-3-2.42-4.48a37.55,37.55,0,0,0-6.12-8.12.13.13,0,0,0-.18,0,.14.14,0,0,0,0,.19h0a37.23,37.23,0,0,1,5.6,8.3c.74,1.51,1.52,3,2.15,4.55l1,2.31.89,2.36a138.85,138.85,0,0,1,5.65,19.29c.77,3.26,1.28,6.59,1.92,9.88l.79,5c.29,1.65.64,3.29.87,5,.53,3.31,1.14,6.62,1.72,9.94s1.12,6.65,1.83,10a.13.13,0,0,0,.13.11.13.13,0,0,0,.13-.13c0-3.39-.06-6.78-.24-10.16S98.93,299.42,98.57,296Z" style="fill:#263238"></path><path d="M91.55,296.48C90,292,88.16,287.67,86.18,283.4A117.71,117.71,0,0,0,79.43,271a.14.14,0,0,0-.18,0,.13.13,0,0,0,0,.18A115.23,115.23,0,0,1,85,283.92c1.72,4.34,3.27,8.74,4.57,13.21s2.28,9,3.47,13.51,2.26,9,3.64,13.56a.13.13,0,0,0,.12.1.13.13,0,0,0,.14-.13,68.24,68.24,0,0,0-1.32-14.12A86.7,86.7,0,0,0,91.55,296.48Z" style="fill:#263238"></path><path d="M91.26,311.3a30.28,30.28,0,0,0-3.73-7.83,32.49,32.49,0,0,0-5.44-6.75,24.23,24.23,0,0,0-3.45-2.61,14.14,14.14,0,0,0-3.92-1.77.14.14,0,0,0-.16.07.12.12,0,0,0,.07.17h0a19.55,19.55,0,0,1,6.5,5.05,30.73,30.73,0,0,1,4.53,6.87c1.29,2.43,1.95,5.13,3.07,7.63.5,1.29,1,2.59,1.56,3.87a32.49,32.49,0,0,0,1.7,3.92h0a.12.12,0,0,0,.11.07.13.13,0,0,0,.14-.13,31.44,31.44,0,0,0-.16-4.34C91.9,314.12,91.6,312.71,91.26,311.3Z" style="fill:#263238"></path><path d="M91.79,233s-13.9-3.21-17.11-18.18,7.13-8.55-2.14-32.07-7.12-28.87-3.92-35.64,5-4.63,7.84,4.28,13.19,22.81,17.11,48.82S91.79,233,91.79,233Z" style="fill:#B536C6"></path><path d="M119.23,207.65S110,204.44,109.61,187s6.77-13.9,7.84-35.64,2.49-37.06,6.41-37.42,14.26,10.69,17.82,34.93-4.63,40.27-11.76,47.39S119.23,207.65,119.23,207.65Z" style="fill:#B536C6"></path><path d="M86.8,254s-2.14-12.83-6.42-18.89-13.54-11.41-19.6-23.17S48,194.46,48.31,211.21s7.84,25.3,17.11,31S86.8,254,86.8,254Z" style="fill:#B536C6"></path><path d="M82.88,276.07s-8.56-16.39-21-28.51S39.4,229.39,43,235.44s7.84,5.71,13.9,16.4,4.28,18.53,12.83,24.59S82.88,276.07,82.88,276.07Z" style="fill:#B536C6"></path><path d="M81.81,297.1c-.36-1.07-.71-8.91-12.83-15.33s-23.52-3.92-22.1-.71,8.91,8.55,16.4,11.76S81.81,297.1,81.81,297.1Z" style="fill:#B536C6"></path><path d="M118.52,254.69s-5.35-6.77-2.5-21,9.27-10.69,16.39-18.17,5.71-8.56,12.83-16.4,13.55-12.11,16.4-8.91-1.43,13.19-5.71,18.89-11,8.56-14.25,15.68-1.78,18.53-10,23.88S118.52,254.69,118.52,254.69Z" style="fill:#B536C6"></path><path d="M136.33,258.61s12.83-14.61,22.1-25.3,12.83-18.89,13.19-11.76,3.2,12.83-4.28,22.09S136.33,258.61,136.33,258.61Z" style="fill:#B536C6"></path><path d="M129.56,282.13s-.35-5.7,20-18.89,28.87-15.68,26.73-10.33-11.05,10.69-20.67,20.31S129.56,282.13,129.56,282.13Z" style="fill:#B536C6"></path><path d="M92.64,231.43s-4.77-25.56-9.76-43.74-8.2-29.22-8.2-29.22" style="fill:none;stroke:#263238;stroke-linecap:round;stroke-linejoin:round"></path><path d="M118.41,207.92s8.66-27.71,11.51-44.46-.36-29.23-1.78-36.71" style="fill:none;stroke:#263238;stroke-linecap:round;stroke-linejoin:round"></path><path d="M85.67,253.44a134.6,134.6,0,0,0-13.13-18.71c-7.84-9.26-13.9-14.25-17.46-23.16" style="fill:none;stroke:#263238;stroke-linecap:round;stroke-linejoin:round"></path><path d="M118.52,254.69s2.85-17.11,9.62-26,20.31-22.8,25.66-31.71" style="fill:none;stroke:#263238;stroke-linecap:round;stroke-linejoin:round"></path><path d="M81,296.71s-12-7.81-20.54-12.09" style="fill:none;stroke:#263238;stroke-linecap:round;stroke-linejoin:round"></path><path d="M115.85,372.29H100.16a6.89,6.89,0,0,1-6.36-4.22C88.68,355.78,75,320.33,83.23,310.28c7.86-9.57,41.69-9.57,49.54,0,8.24,10.05-5.44,45.5-10.57,57.79A6.88,6.88,0,0,1,115.85,372.29Z" style="fill:#263238;stroke:#263238;stroke-linecap:round;stroke-linejoin:round"></path></g><g id="freepik--Characters--inject-2"><rect x="531.75" y="427.56" width="110.74" height="7.09" style="fill:#fff;stroke:#263238;stroke-linecap:round;stroke-linejoin:round"></rect><polygon points="531.44 427.56 642.49 427.56 606.23 386.77 513.31 386.77 531.44 427.56" style="fill:#fff;stroke:#263238;stroke-linecap:round;stroke-linejoin:round"></polygon><polygon points="513.31 386.77 513.31 393.13 531.75 434.65 531.44 427.56 513.31 386.77" style="fill:#fff;stroke:#263238;stroke-linecap:round;stroke-linejoin:round"></polygon><rect x="95.25" y="427.56" width="110.74" height="7.09" transform="translate(301.23 862.21) rotate(180)" style="fill:#fff;stroke:#263238;stroke-linecap:round;stroke-linejoin:round"></rect><polygon points="206.3 427.56 95.25 427.56 131.51 386.77 224.43 386.77 206.3 427.56" style="fill:#fff;stroke:#263238;stroke-linecap:round;stroke-linejoin:round"></polygon><polygon points="224.43 386.77 224.43 393.13 205.98 434.65 206.3 427.56 224.43 386.77" style="fill:#fff;stroke:#263238;stroke-linecap:round;stroke-linejoin:round"></polygon><rect x="172.77" y="434.13" width="390.93" height="8.26" style="fill:#fff;stroke:#263238;stroke-miterlimit:10"></rect><polygon points="268.27 277.09 172.77 434.13 563.6 434.13 468.09 277.09 268.27 277.09" style="fill:#fff;stroke:#263238;stroke-miterlimit:10"></polygon><line x1="284.2" y1="416.93" x2="280.18" y2="431.43" style="fill:none;stroke:#263238;stroke-linecap:round;stroke-linejoin:round"></line><line x1="322.83" y1="277.68" x2="285.71" y2="411.48" style="fill:none;stroke:#263238;stroke-linecap:round;stroke-linejoin:round"></line><line x1="443.38" y1="385.79" x2="456.24" y2="431.93" style="fill:none;stroke:#263238;stroke-linecap:round;stroke-linejoin:round"></line><line x1="413.1" y1="277.18" x2="442.03" y2="380.93" style="fill:none;stroke:#263238;stroke-linecap:round;stroke-linejoin:round"></line><line x1="224.63" y1="434.9" x2="231.57" y2="419.03" style="fill:none;stroke:#263238;stroke-linecap:round;stroke-linejoin:round"></line><line x1="425.99" y1="433.41" x2="423.51" y2="418.04" style="fill:none;stroke:#263238;stroke-linecap:round;stroke-linejoin:round"></line><line x1="526.18" y1="434.41" x2="521.22" y2="425.97" style="fill:none;stroke:#263238;stroke-linecap:round;stroke-linejoin:round"></line><line x1="535.6" y1="432.92" x2="524.69" y2="413.08" style="fill:none;stroke:#263238;stroke-linecap:round;stroke-linejoin:round"></line><path d="M463.59,159.59s-3.12,15.59-3.12,17.77,4.06,6.55,4.37,7.8-4.68,17.77-3.12,18.71a21.34,21.34,0,0,0,5.3,1.56,131,131,0,0,0,2.81,13.09c1.56,5.3,1.24,11.85,5,10.61s12.47-4.68,12.47-4.68l12.16,8.42,32.43-34.93-3.43-4.67-5.93-8.42a38.5,38.5,0,0,0,2.81-14.34c0-8.11-11.23-18.09-27.75-21.52s-22.76-1.25-26.82,1.56S463.59,159.59,463.59,159.59Z" style="fill:#fff;stroke:#263238;stroke-miterlimit:10"></path><path d="M473.88,138.7s-26.19,16.21-24,19.33,15.59,3.43,22.14.94,15.59-7.17,14.65-.63-3.74,9.67-1.87,10.92,4.68,1.25,5.93,3.12,6.23,7.48,5.92,10.29-3.74,10.6-1.87,18.7-.93,10.61-2.8,11.85-21.83,2.5-22.14,5.3.93,9.36,5,10.61,22.13-9,28.37-13.72,6.24-10.29,5.3-15-6.86-15.59-5.3-21.83,3.74-10.91,6.86-9,5,10,5,13.72V187s12.47,11.23,13.41,6.24-1.56-10-1.25-11.23,8.11-13.41,7.17-25.25-16.21-22.46-29.93-24.95S473.88,138.7,473.88,138.7Z" style="fill:#263238;stroke:#263238;stroke-miterlimit:10"></path><path d="M464.06,190.22s-3.83-3.83-3.64-5,4.79-1.34,4.79-1.34,7.85-2.69,10.92-2.69,5.74,9,4.4,12.27-6.51,4.79-9.38-.39a56.89,56.89,0,0,1-4.22-9.39" style="fill:none;stroke:#263238;stroke-miterlimit:10;stroke-width:2px"></path><line x1="476.13" y1="181.21" x2="505.82" y2="171.63" style="fill:none;stroke:#263238;stroke-miterlimit:10;stroke-width:2px"></line><path d="M474.68,187.55c.63,1.28.72,2.53.2,2.78s-1.46-.57-2.09-1.85-.73-2.53-.2-2.78S474,186.27,474.68,187.55Z" style="fill:#263238"></path><path d="M468.08,181.6c.58-.19,1.15-4.41,8.81-3.26" style="fill:none;stroke:#263238;stroke-miterlimit:10"></path><path d="M501.42,180.06s1.55-11.41,8.63-10.49,5.78,13.51,5,17.46-3.66,6.06-5.19,5.87" style="fill:#fff;stroke:#263238;stroke-miterlimit:10"></path><path d="M467.7,221.83s-2.69-5.75-3.07-9.58,8.24-9.2,11.31-10.15,3.25-.19,2.29,3.06-6.7,7.09-6.7,7.09l3.26,5.75Z" style="fill:none;stroke:#263238;stroke-miterlimit:10"></path><path d="M504.6,229s-9.22,11.93-10,17.62-3,18.43-3,19.25-8.41,9.21-12.47,14.09S462,294.35,460.42,300s-.82,9.76,1.35,13,5.69,7.05,13.55,7.59,7.32-.81,14.1-4.06a53.22,53.22,0,0,0,9.76-5.7s5.42-7.05,3.25-27.1-5.69-24.67-3.25-32.53,17.62-21.42,16.8-25.48S507.31,224.68,504.6,229Z" style="fill:#B536C6;stroke:#263238;stroke-miterlimit:10"></path><path d="M467.7,217.62s-2.11,10.72-2.11,13,5.56,15.14,6.71,16.29a16,16,0,0,1,2.29,3.83s-9,28.55-12.83,42.15,4.79,18.77,9,21.65,9.39.19,14-4.6,4.21-5.75,4.4-28,0-32,0-32,3.26-8,3.84-12.64a52.34,52.34,0,0,0,.38-8.24l-6.08-4.66a7.78,7.78,0,0,0,.14-3.39c-.38-1.53-5.75-4.59-7.66-5.74s-8.24.76-8.82,1S468.46,216.27,467.7,217.62Z" style="fill:#fff;stroke:#263238;stroke-miterlimit:10"></path><path d="M468.27,229.3s6.52-1.72,7.86-1.15,7.09,5,6.51,7.09-4.6,2.68-5.94,3.26-1.34-3.07-1.34-3.07l-2.11,1.73" style="fill:none;stroke:#263238;stroke-miterlimit:10"></path><path d="M468.27,223.75s9-2.11,10.92-1,8.05,6.7,7.28,9-3.83,3.45-3.83,3.45" style="fill:none;stroke:#263238;stroke-miterlimit:10"></path><path d="M468.66,220.11s7.47-2.69,10-2.11,8.53,3.89,8.67,6.45a25.1,25.1,0,0,1-.63,5.81" style="fill:none;stroke:#263238;stroke-miterlimit:10"></path><line x1="539.02" y1="282.96" x2="552.58" y2="265.89" style="fill:#fff;stroke:#263238;stroke-miterlimit:10"></line><path d="M600.56,347.48S609.77,374,610,384.07s-6.56,21.85-21.43,28.49c-22.26,9.95-35.81,3-35.81,3L526.93,374.5Z" style="fill:#263238;stroke:#263238;stroke-miterlimit:10"></path><path d="M534.69,201.92s20.33,1.35,34.42,23.58,18.43,24.12,23.31,50.69,5.15,53.13,7.32,59.09,6,6,3.26,11.11S567,369.44,557.52,373c-22.39,8.46-29.85,2.74-29.85,2.74L503.51,338s9.22-8.4,6.51-42.29-13-49.06-7.86-60.72,22.77-24.39,22.77-24.39Z" style="fill:#B536C6;stroke:#263238;stroke-miterlimit:10"></path><path d="M530.73,194.62s-34.68,33.72-34.29,35.26,2.1,10,2.1,10l39.85-38.13Z" style="fill:#B536C6;stroke:#263238;stroke-miterlimit:10"></path><path d="M509.75,233.9s-13.28,4.61-14.64,22.5a136.2,136.2,0,0,0,1.9,33.07c0,1.08-4.34,21.68-5.15,25.48s-5.15,4.06-5.15,10.84a29.15,29.15,0,0,0,6,17.35c3.53,4.88,14.1,9.22,19.79,6s12.47-6.5,18.16-15.45,4.07-23.31,4.34-32,8.94-36.87,8.94-36.87" style="fill:#B536C6;stroke:#263238;stroke-miterlimit:10"></path><path d="M557.72,297.57c2,.54,4.11,1,6.24,1.39" style="fill:none;stroke:#263238;stroke-miterlimit:10"></path><path d="M537.4,289.47a96.11,96.11,0,0,0,15.26,6.58" style="fill:none;stroke:#263238;stroke-miterlimit:10"></path><path d="M491.86,317.66s-3,7.86-1.09,13.82,2.44,12.2,13,14.91S519,344.77,519,344.77" style="fill:#B536C6;stroke:#263238;stroke-miterlimit:10"></path><path d="M134.54,353.57s-7.32,20-10,33.13,13.37,29.33,19.91,32.41,33.84,2.62,35,2.62,4.66-5.83,4.66-5.83l30.56-50.42Z" style="fill:#263238;stroke:#263238;stroke-miterlimit:10"></path><path d="M214.38,200.08s-20.28-4.74-21.6.52-.52,7.38-.52,7.38S173,213.25,162.5,230.37s-18.44,45.3-19,62.16-2.11,37.13-7.37,51.62-3.95,12.38,6.05,19.75,30.56,15.81,49.26,12.38,23.18-10.8,23.18-10.8l49-89s1.31-8.43,1.05-12.38a35.2,35.2,0,0,0-2.11-8.69s7.11-22.39-1.05-33.72-36.35-18.43-40-20A20.06,20.06,0,0,0,214.38,200.08Z" style="fill:#B536C6;stroke:#263238;stroke-miterlimit:10"></path><path d="M209.91,212.46s-16.07-10.8-13.44-11.07,15.54.79,15.54,3.16S209.91,212.46,209.91,212.46Z" style="fill:#263238;stroke:#263238;stroke-miterlimit:10"></path><path d="M159.33,306s16.86-3.16,23.45-8.17" style="fill:none;stroke:#263238;stroke-miterlimit:10"></path><path d="M161.66,325.1c-1.56.76-3,1.42-4.43,1.93" style="fill:none;stroke:#263238;stroke-miterlimit:10"></path><path d="M187.52,308.86a237.2,237.2,0,0,1-21.62,14" style="fill:none;stroke:#263238;stroke-miterlimit:10"></path><path d="M173.05,344.84a37.21,37.21,0,0,1-7.39,6.16" style="fill:none;stroke:#263238;stroke-miterlimit:10"></path><path d="M194.1,317a223.94,223.94,0,0,1-17.28,23.71" style="fill:none;stroke:#263238;stroke-miterlimit:10"></path><path d="M249.57,261.67a57.78,57.78,0,0,0-.16-7.86" style="fill:none;stroke:#263238;stroke-miterlimit:10"></path><path d="M241,292a72.4,72.4,0,0,0,7.82-23" style="fill:none;stroke:#263238;stroke-miterlimit:10"></path><path d="M265.74,225.1s-.79,6.58.27,7.64,2.89,2.89,4.74,1.31l1.84-1.58a12.56,12.56,0,0,0,.79,5.27c1.06,2.64,4.22,4.74,4.22,4.74s-5.27,15-11.33,27.92-14.49,21.34-19.75,29.24-6.59,7.37-5.53,10.8,8.69,16.33,11.32,19.75,2.9,5,4.48,3.69,11.32-11.59,18.17-29.5,14.75-56.63,14.49-62.95-.53-7.9-.79-14,0-9.75-2.37-11.33-14.75-4.47-14.75-4.47S267.06,222.2,265.74,225.1Z" style="fill:#fff;stroke:#263238;stroke-miterlimit:10"></path><path d="M277.6,242.48a15,15,0,0,0,5,1.85" style="fill:none;stroke:#263238;stroke-miterlimit:10"></path><polyline points="272.59 232.47 273.12 230.37 270.49 230.1" style="fill:none;stroke:#263238;stroke-miterlimit:10"></polyline><path d="M275.65,302.51c-14.44-1.08-19.17-9.88-20.62-14.2-3.14,4.12-6.15,7.78-8.51,11.33-5.27,7.9-6.59,7.37-5.53,10.8s8.69,16.33,11.32,19.75,2.9,5,4.48,3.69,11.32-11.59,18.17-29.5C275.19,303.78,275.42,303.15,275.65,302.51Z" style="fill:#B536C6;stroke:#263238;stroke-miterlimit:10"></path><path d="M283.65,159.25s-.79,20.55-1.31,22.39-3.16,3.42-3.43,4.74,3.43,12.64,2.9,15-7.37,4.74-7.37,4.74-4.75,15.28-6.06,16.6-3.16,3.16-5.8,2.11-11.06-5-11.06-5-3.69,3.95-8.69,10.54-4.22,7.9-6.06,9.21-1.05-11.06-6.06-14.22-15.54-9.22-20.8-12.9-3.43-6.06-3.43-6.06,8.43-15.54,11.33-24.23-10-14.23,5.26-24,41.09-13.7,49.26-12.91S283.65,159.25,283.65,159.25Z" style="fill:#fff;stroke:#263238;stroke-miterlimit:10"></path><path d="M261.79,155.56s-1.84,4.48-1.31,6.33,1.84,10,0,11.85-13.17,0-13.17,0-1.06,6.58-3.43,7.11-6.32.26-5.79-3.69-.27-10-2.9-11.32-11.06.26-12.12,5.26a58.74,58.74,0,0,0-1,8.17c-.26,1.58-4.21,2.9-4.21,2.9s-10.8-25.55-4.22-37.67,18.7-18.44,29.77-18.17,16.06,2.89,16.06,2.89-4.21-4.21,2.11-2.37S275,134.49,275,134.49s1.85-7.9,7.11-4.47,11.86,16.59,7.91,24.23-8.7,4.74-8.7,4.74Z" style="fill:#263238;stroke:#263238;stroke-miterlimit:10"></path><path d="M251.52,219.83s-12.38-7.37-14.49-10-3.95-16.33-3.95-16.33-.79,10.54.27,18.18,6.85,22.65,6.85,22.65Z" style="fill:#263238;stroke:#263238;stroke-miterlimit:10"></path><path d="M277.33,183s-5.79-3.16-8.16-3.16-4.48,2.1-4.48,2.1" style="fill:none;stroke:#263238;stroke-miterlimit:10"></path><path d="M273,188.68c-.24,1.39-1,2.41-1.64,2.29s-1-1.33-.76-2.71,1-2.41,1.64-2.29S273.21,187.3,273,188.68Z" style="fill:#263238;stroke:#263238;stroke-miterlimit:10"></path><path d="M273.38,194.81a28.6,28.6,0,0,1-6.32,3.42" style="fill:none;stroke:#263238;stroke-miterlimit:10"></path><path d="M203.58,216.14s19.23,5.53,26.61,19,3.16,36.61,3.42,37.66,7.11,16.33,10.8,28.45,5,17.38,5,17.38,9.22,10,10,16.33,1.85,14.75-3.16,20.55-17.91,4.74-25.28,3.42-11.59-3.16-13.7-8.16-10.8-18.18-10.8-18.18S187,308.07,185.41,304.12s-2.63-6.33-2.63-6.33l-16.86-10" style="fill:#B536C6;stroke:#263238;stroke-miterlimit:10"></path><path d="M173.66,248.3a15.42,15.42,0,0,0,.16,5.51" style="fill:none;stroke:#263238;stroke-miterlimit:10"></path><path d="M203.58,223s-18.17-2.11-25,10.8a46.87,46.87,0,0,0-4.12,10.31" style="fill:none;stroke:#263238;stroke-miterlimit:10"></path></g><g id="freepik--Chess--inject-2"><polygon points="317.2 305.52 300.21 305.52 302.83 298.51 319.17 298.51 317.2 305.52" style="fill:#fff;stroke:#263238;stroke-miterlimit:10"></polygon><polygon points="334.19 305.52 317.2 305.52 319.17 298.51 335.5 298.51 334.19 305.52" style="fill:#B536C6;stroke:#263238;stroke-miterlimit:10"></polygon><polygon points="351.19 305.52 334.19 305.52 335.5 298.51 351.84 298.51 351.19 305.52" style="fill:#fff;stroke:#263238;stroke-miterlimit:10"></polygon><polygon points="368.18 305.52 351.19 305.52 351.84 298.51 368.18 298.51 368.18 305.52" style="fill:#B536C6;stroke:#263238;stroke-miterlimit:10"></polygon><polygon points="385.17 305.52 368.18 305.52 368.18 298.51 384.52 298.51 385.17 305.52" style="fill:#fff;stroke:#263238;stroke-miterlimit:10"></polygon><polygon points="402.17 305.52 385.17 305.52 384.52 298.51 400.86 298.51 402.17 305.52" style="fill:#B536C6;stroke:#263238;stroke-miterlimit:10"></polygon><polygon points="419.16 305.52 402.17 305.52 400.86 298.51 417.2 298.51 419.16 305.52" style="fill:#fff;stroke:#263238;stroke-miterlimit:10"></polygon><polygon points="436.15 305.52 419.16 305.52 417.2 298.51 433.53 298.51 436.15 305.52" style="fill:#B536C6;stroke:#263238;stroke-miterlimit:10"></polygon><polygon points="315.1 313.02 297.4 313.02 300.24 305.43 317.23 305.43 315.1 313.02" style="fill:#B536C6;stroke:#263238;stroke-miterlimit:10"></polygon><polygon points="332.79 313.02 315.1 313.02 317.23 305.43 334.21 305.43 332.79 313.02" style="fill:#fff;stroke:#263238;stroke-miterlimit:10"></polygon><polygon points="350.49 313.02 332.79 313.02 334.21 305.43 351.19 305.43 350.49 313.02" style="fill:#B536C6;stroke:#263238;stroke-miterlimit:10"></polygon><polygon points="368.18 313.02 350.49 313.02 351.19 305.43 368.18 305.43 368.18 313.02" style="fill:#fff;stroke:#263238;stroke-miterlimit:10"></polygon><polygon points="385.87 313.02 368.18 313.02 368.18 305.43 385.17 305.43 385.87 313.02" style="fill:#B536C6;stroke:#263238;stroke-miterlimit:10"></polygon><polygon points="403.57 313.02 385.87 313.02 385.17 305.43 402.15 305.43 403.57 313.02" style="fill:#fff;stroke:#263238;stroke-miterlimit:10"></polygon><polygon points="421.26 313.02 403.57 313.02 402.15 305.43 419.14 305.43 421.26 313.02" style="fill:#B536C6;stroke:#263238;stroke-miterlimit:10"></polygon><polygon points="438.96 313.02 421.26 313.02 419.14 305.43 436.12 305.43 438.96 313.02" style="fill:#fff;stroke:#263238;stroke-miterlimit:10"></polygon><polygon points="312.82 321.17 294.36 321.17 297.44 312.92 315.13 312.92 312.82 321.17" style="fill:#fff;stroke:#263238;stroke-miterlimit:10"></polygon><polygon points="331.27 321.17 312.82 321.17 315.13 312.92 332.81 312.92 331.27 321.17" style="fill:#B536C6;stroke:#263238;stroke-miterlimit:10"></polygon><polygon points="349.73 321.17 331.27 321.17 332.81 312.92 350.5 312.92 349.73 321.17" style="fill:#fff;stroke:#263238;stroke-miterlimit:10"></polygon><polygon points="368.18 321.17 349.73 321.17 350.5 312.92 368.18 312.92 368.18 321.17" style="fill:#B536C6;stroke:#263238;stroke-miterlimit:10"></polygon><polygon points="386.63 321.17 368.18 321.17 368.18 312.92 385.87 312.92 386.63 321.17" style="fill:#fff;stroke:#263238;stroke-miterlimit:10"></polygon><polygon points="405.09 321.17 386.63 321.17 385.87 312.92 403.55 312.92 405.09 321.17" style="fill:#B536C6;stroke:#263238;stroke-miterlimit:10"></polygon><polygon points="423.54 321.17 405.09 321.17 403.55 312.92 421.24 312.92 423.54 321.17" style="fill:#fff;stroke:#263238;stroke-miterlimit:10"></polygon><polygon points="442 321.17 423.54 321.17 421.24 312.92 438.92 312.92 442 321.17" style="fill:#B536C6;stroke:#263238;stroke-miterlimit:10"></polygon><polygon points="310.33 330.04 291.05 330.04 294.4 321.06 312.85 321.06 310.33 330.04" style="fill:#B536C6;stroke:#263238;stroke-miterlimit:10"></polygon><polygon points="329.61 330.04 310.33 330.04 312.85 321.06 331.29 321.06 329.61 330.04" style="fill:#fff;stroke:#263238;stroke-miterlimit:10"></polygon><polygon points="348.9 330.04 329.61 330.04 331.29 321.06 349.74 321.06 348.9 330.04" style="fill:#B536C6;stroke:#263238;stroke-miterlimit:10"></polygon><polygon points="368.18 330.04 348.9 330.04 349.74 321.06 368.18 321.06 368.18 330.04" style="fill:#fff;stroke:#263238;stroke-miterlimit:10"></polygon><polygon points="387.46 330.04 368.18 330.04 368.18 321.06 386.63 321.06 387.46 330.04" style="fill:#B536C6;stroke:#263238;stroke-miterlimit:10"></polygon><polygon points="406.75 330.04 387.46 330.04 386.63 321.06 405.07 321.06 406.75 330.04" style="fill:#fff;stroke:#263238;stroke-miterlimit:10"></polygon><polygon points="426.03 330.04 406.75 330.04 405.07 321.06 423.52 321.06 426.03 330.04" style="fill:#B536C6;stroke:#263238;stroke-miterlimit:10"></polygon><polygon points="445.32 330.04 426.03 330.04 423.52 321.06 441.96 321.06 445.32 330.04" style="fill:#fff;stroke:#263238;stroke-miterlimit:10"></polygon><polygon points="307.61 339.76 287.42 339.76 291.09 329.93 310.36 329.93 307.61 339.76" style="fill:#fff;stroke:#263238;stroke-miterlimit:10"></polygon><polygon points="327.8 339.76 307.61 339.76 310.36 329.93 329.63 329.93 327.8 339.76" style="fill:#B536C6;stroke:#263238;stroke-miterlimit:10"></polygon><polygon points="347.99 339.76 327.8 339.76 329.63 329.93 348.91 329.93 347.99 339.76" style="fill:#fff;stroke:#263238;stroke-miterlimit:10"></polygon><polygon points="368.18 339.76 347.99 339.76 348.91 329.93 368.18 329.93 368.18 339.76" style="fill:#B536C6;stroke:#263238;stroke-miterlimit:10"></polygon><polygon points="388.37 339.76 368.18 339.76 368.18 329.93 387.45 329.93 388.37 339.76" style="fill:#fff;stroke:#263238;stroke-miterlimit:10"></polygon><polygon points="408.56 339.76 388.37 339.76 387.45 329.93 406.73 329.93 408.56 339.76" style="fill:#B536C6;stroke:#263238;stroke-miterlimit:10"></polygon><polygon points="428.75 339.76 408.56 339.76 406.73 329.93 426 329.93 428.75 339.76" style="fill:#fff;stroke:#263238;stroke-miterlimit:10"></polygon><polygon points="448.94 339.76 428.75 339.76 426 329.93 445.27 329.93 448.94 339.76" style="fill:#B536C6;stroke:#263238;stroke-miterlimit:10"></polygon><polygon points="304.62 350.43 283.43 350.43 287.46 339.64 307.64 339.64 304.62 350.43" style="fill:#B536C6;stroke:#263238;stroke-miterlimit:10"></polygon><polygon points="325.8 350.43 304.62 350.43 307.64 339.64 327.82 339.64 325.8 350.43" style="fill:#fff;stroke:#263238;stroke-miterlimit:10"></polygon><polygon points="346.99 350.43 325.8 350.43 327.82 339.64 348 339.64 346.99 350.43" style="fill:#B536C6;stroke:#263238;stroke-miterlimit:10"></polygon><polygon points="368.18 350.43 346.99 350.43 348 339.64 368.18 339.64 368.18 350.43" style="fill:#fff;stroke:#263238;stroke-miterlimit:10"></polygon><polygon points="389.37 350.43 368.18 350.43 368.18 339.64 388.36 339.64 389.37 350.43" style="fill:#B536C6;stroke:#263238;stroke-miterlimit:10"></polygon><polygon points="410.56 350.43 389.37 350.43 388.36 339.64 408.54 339.64 410.56 350.43" style="fill:#fff;stroke:#263238;stroke-miterlimit:10"></polygon><polygon points="431.74 350.43 410.56 350.43 408.54 339.64 428.72 339.64 431.74 350.43" style="fill:#B536C6;stroke:#263238;stroke-miterlimit:10"></polygon><polygon points="452.93 350.43 431.74 350.43 428.72 339.64 448.9 339.64 452.93 350.43" style="fill:#fff;stroke:#263238;stroke-miterlimit:10"></polygon><polygon points="301.32 362.21 279.03 362.21 283.48 350.3 304.65 350.3 301.32 362.21" style="fill:#fff;stroke:#263238;stroke-miterlimit:10"></polygon><polygon points="323.6 362.21 301.32 362.21 304.65 350.3 325.83 350.3 323.6 362.21" style="fill:#B536C6;stroke:#263238;stroke-miterlimit:10"></polygon><polygon points="345.89 362.21 323.6 362.21 325.83 350.3 347 350.3 345.89 362.21" style="fill:#fff;stroke:#263238;stroke-miterlimit:10"></polygon><polygon points="368.18 362.21 345.89 362.21 347 350.3 368.18 350.3 368.18 362.21" style="fill:#B536C6;stroke:#263238;stroke-miterlimit:10"></polygon><polygon points="390.47 362.21 368.18 362.21 368.18 350.3 389.36 350.3 390.47 362.21" style="fill:#fff;stroke:#263238;stroke-miterlimit:10"></polygon><polygon points="412.76 362.21 390.47 362.21 389.36 350.3 410.53 350.3 412.76 362.21" style="fill:#B536C6;stroke:#263238;stroke-miterlimit:10"></polygon><polygon points="435.05 362.21 412.76 362.21 410.53 350.3 431.71 350.3 435.05 362.21" style="fill:#fff;stroke:#263238;stroke-miterlimit:10"></polygon><polygon points="457.33 362.21 435.05 362.21 431.71 350.3 452.88 350.3 457.33 362.21" style="fill:#B536C6;stroke:#263238;stroke-miterlimit:10"></polygon><polygon points="297.65 375.29 274.14 375.29 279.08 362.07 301.36 362.07 297.65 375.29" style="fill:#B536C6;stroke:#263238;stroke-miterlimit:10"></polygon><polygon points="321.16 375.29 297.65 375.29 301.36 362.07 323.63 362.07 321.16 375.29" style="fill:#fff;stroke:#263238;stroke-miterlimit:10"></polygon><polygon points="344.67 375.29 321.16 375.29 323.63 362.07 345.91 362.07 344.67 375.29" style="fill:#B536C6;stroke:#263238;stroke-miterlimit:10"></polygon><polygon points="368.18 375.29 344.67 375.29 345.91 362.07 368.18 362.07 368.18 375.29" style="fill:#fff;stroke:#263238;stroke-miterlimit:10"></polygon><polygon points="391.69 375.29 368.18 375.29 368.18 362.07 390.45 362.07 391.69 375.29" style="fill:#B536C6;stroke:#263238;stroke-miterlimit:10"></polygon><polygon points="415.2 375.29 391.69 375.29 390.45 362.07 412.73 362.07 415.2 375.29" style="fill:#fff;stroke:#263238;stroke-miterlimit:10"></polygon><polygon points="438.71 375.29 415.2 375.29 412.73 362.07 435 362.07 438.71 375.29" style="fill:#B536C6;stroke:#263238;stroke-miterlimit:10"></polygon><polygon points="462.22 375.29 438.71 375.29 435 362.07 457.28 362.07 462.22 375.29" style="fill:#fff;stroke:#263238;stroke-miterlimit:10"></polygon><ellipse cx="426.82" cy="301.63" rx="7.24" ry="2.12" style="fill:#a6a6a6;stroke:#263238;stroke-miterlimit:10"></ellipse><path d="M421.86,294.77s.27.24-.09.73-2.19.57-2.45,2.62S422,302,426,301.87s6.41-.24,7.46-2.12-.17-3-1.14-3.68a1.86,1.86,0,0,1-1-1.39Z" style="fill:#a6a6a6;stroke:#263238;stroke-miterlimit:10"></path><path d="M432.4,294.52c0,.59-2.5,1.06-5.58,1.06s-5.57-.47-5.57-1.06,2.49-1.06,5.57-1.06S432.4,293.93,432.4,294.52Z" style="fill:#a6a6a6;stroke:#263238;stroke-miterlimit:10"></path><path d="M429.56,283.22h0l1.78-3.23h-9.29l2.21,3.37c0,3.2-.45,7.64-2.13,10.59a23.15,23.15,0,0,0,9.57,0C430,291,429.59,286.43,429.56,283.22Z" style="fill:#a6a6a6;stroke:#263238;stroke-miterlimit:10"></path><polygon points="427.48 275.08 427.48 278.11 426.01 278.11 426.01 275.08 422.05 275.08 422.05 279.99 424.55 279.99 426.01 279.99 427.48 279.99 429.04 279.99 431.44 279.99 431.44 275.08 427.48 275.08" style="fill:#a6a6a6;stroke:#263238;stroke-miterlimit:10"></polygon><path d="M421,310.06c0,1.08,3,1.95,6.65,1.95s6.65-.87,6.65-1.95-3-1.95-6.65-1.95S421,309,421,310.06Z" style="fill:#a6a6a6;stroke:#263238;stroke-miterlimit:10"></path><path d="M432.22,303.76s-.24.23.08.68,2,.52,2.26,2.4-2.42,3.52-6.13,3.45-5.89-.23-6.85-2,.16-2.78,1-3.38a1.71,1.71,0,0,0,.89-1.27Z" style="fill:#a6a6a6;stroke:#263238;stroke-miterlimit:10"></path><path d="M422.54,303.54c0,.54,2.3,1,5.12,1s5.12-.43,5.12-1-2.29-1-5.12-1S422.54,303,422.54,303.54Z" style="fill:#a6a6a6;stroke:#263238;stroke-miterlimit:10"></path><path d="M425.7,285.35l-.28-2.32a8.26,8.26,0,0,1,5.91,1.05c3.3,1.83,4,4.57,3.51,7.53s-1.62,5.9-1.26,8,1.12,2.32,1.12,2.32a17.24,17.24,0,0,1-3.16.92c-1.62.28-2-.56-1.48-3.52s2.95-7.17,1.69-10-2.74-3.24-3.94-3.45S425.7,286,425.7,285.35Z" style="fill:#a6a6a6;stroke:#263238;stroke-miterlimit:10"></path><path d="M425.7,285.35s-.14-1.9.42-1.62a6.43,6.43,0,0,1,1.2.85s3.58.07,4.85,2.6.84,6-.14,8.72-1,4.57-.49,5.83-.28,1.83-2.32,2-4.29,0-5.35-1a4,4,0,0,1-.84-4.57c.84-1.76,4.22-3.8,4.85-4.85s-.07-2.89-.07-2.89a1.17,1.17,0,0,1-1.05.71,11.45,11.45,0,0,1-1.62-.14s-1.55,1.75-2.32,1.47a2.43,2.43,0,0,1-1.76-1.55c-.21-.84,2.11-2.25,2.18-2.46a7.47,7.47,0,0,1,.84-2.18C424.58,285.7,425.63,284.86,425.7,285.35Z" style="fill:#a6a6a6;stroke:#263238;stroke-miterlimit:10"></path><path d="M437,316.22c0,1.21-3.34,2.19-7.46,2.19s-7.47-1-7.47-2.19,3.34-2.19,7.47-2.19S437,315,437,316.22Z" style="fill:#a6a6a6;stroke:#263238;stroke-miterlimit:10"></path><path d="M424.37,309.15s.27.25-.09.76-2.26.59-2.53,2.69,2.71,4,6.88,3.88,6.6-.26,7.69-2.19-.18-3.12-1.18-3.79a1.94,1.94,0,0,1-1-1.44Z" style="fill:#a6a6a6;stroke:#263238;stroke-miterlimit:10"></path><ellipse cx="429.49" cy="308.9" rx="5.75" ry="1.09" style="fill:#a6a6a6;stroke:#263238;stroke-miterlimit:10"></ellipse><path d="M431.72,298l.08-.15h-4.63l.18.26a24.48,24.48,0,0,1-2.71,10.24,23.68,23.68,0,0,0,9.87,0,24.73,24.73,0,0,1-2.8-10.35Z" style="fill:#a6a6a6;stroke:#263238;stroke-miterlimit:10"></path><path d="M425.42,297.81h8.85s.36-.47-.59-2-1.77-1.77-1.77-1.77h-4.83S424.6,295.45,425.42,297.81Z" style="fill:#a6a6a6;stroke:#263238;stroke-miterlimit:10"></path><rect x="427.08" y="290.73" width="4.95" height="3.3" style="fill:#a6a6a6;stroke:#263238;stroke-miterlimit:10"></rect><rect x="428.37" y="282.32" width="2.37" height="1.82" style="fill:#a6a6a6;stroke:#263238;stroke-miterlimit:10"></rect><path d="M433.09,288.6c0,2.61-1.58,4.72-3.54,4.72S426,291.21,426,288.6s1.59-4.71,3.54-4.71S433.09,286,433.09,288.6Z" style="fill:#a6a6a6;stroke:#263238;stroke-miterlimit:10"></path><path d="M431.91,285.3l-2.14,3a.53.53,0,0,0,0,.61h0a.53.53,0,0,0,.81,0l2-2.24" style="fill:#a6a6a6;stroke:#263238;stroke-miterlimit:10"></path><polygon points="436.84 280.28 434.98 280.28 434.98 278.21 432.69 278.21 432.69 280.28 430.73 280.28 430.73 281.91 432.69 281.91 432.69 284.31 434.98 284.31 434.98 281.91 436.84 281.91 436.84 280.28" style="fill:#a6a6a6;stroke:#263238;stroke-miterlimit:10"></polygon><path d="M440,284.64c-.38-.5-4.23-.55-6-.55-1.93,0-6.14.05-6.56.55-.55.66,1.31,2.51,1.85,3.6s1.53,2.94,1.53,2.94h6.09s.9-1.85,1.39-2.94S440.52,285.3,440,284.64Z" style="fill:#a6a6a6;stroke:#263238;stroke-miterlimit:10"></path><rect x="430.29" y="291.18" width="7.2" height="1.42" style="fill:#a6a6a6;stroke:#263238;stroke-miterlimit:10"></rect><rect x="429.48" y="292.76" width="8.83" height="1.54" style="fill:#a6a6a6;stroke:#263238;stroke-miterlimit:10"></rect><rect x="428.15" y="294.35" width="11.49" height="1.72" rx="0.73" style="fill:#a6a6a6;stroke:#263238;stroke-miterlimit:10"></rect><path d="M443,325.87c0,1.56-4,2.83-9,2.83s-9-1.27-9-2.83,4-2.84,9-2.84S443,324.3,443,325.87Z" style="fill:#a6a6a6;stroke:#263238;stroke-miterlimit:10"></path><path d="M427.78,316.71s.33.32-.1,1-2.73.76-3.06,3.49,3.27,5.12,8.29,5,8-.33,9.27-2.84-.22-4-1.42-4.91a2.52,2.52,0,0,1-1.2-1.85Z" style="fill:#a6a6a6;stroke:#263238;stroke-miterlimit:10"></path><ellipse cx="433.95" cy="316.38" rx="6.93" ry="1.42" style="fill:#a6a6a6;stroke:#263238;stroke-miterlimit:10"></ellipse><path d="M440,315.62c-3.6-6.77-2.51-19.42-2.51-19.42l-3.16-.09v0h-.55v0l-3.16.09s1.09,12.65-2.51,19.42a26.71,26.71,0,0,0,11.89,0Z" style="fill:#a6a6a6;stroke:#263238;stroke-miterlimit:10"></path><rect x="432.63" y="304.11" width="6.67" height="1.22" style="fill:#a6a6a6;stroke:#263238;stroke-miterlimit:10"></rect><rect x="431.88" y="305.47" width="8.19" height="1.33" style="fill:#a6a6a6;stroke:#263238;stroke-miterlimit:10"></rect><path d="M440.56,308.33h-9.17a.75.75,0,0,1-.74-.75h0a.74.74,0,0,1,.74-.74h9.17a.74.74,0,0,1,.74.74h0A.75.75,0,0,1,440.56,308.33Z" style="fill:#a6a6a6;stroke:#263238;stroke-miterlimit:10"></path><path d="M444.36,334c0,1.35-3.73,2.45-8.34,2.45s-8.34-1.1-8.34-2.45,3.73-2.44,8.34-2.44S444.36,332.67,444.36,334Z" style="fill:#a6a6a6;stroke:#263238;stroke-miterlimit:10"></path><path d="M430.31,326.12s.3.28-.1.85-2.53.66-2.83,3,3,4.42,7.68,4.33,7.38-.29,8.6-2.45-.21-3.48-1.32-4.23a2.16,2.16,0,0,1-1.11-1.6Z" style="fill:#a6a6a6;stroke:#263238;stroke-miterlimit:10"></path><path d="M442.44,325.84c0,.68-2.87,1.22-6.42,1.22s-6.42-.54-6.42-1.22,2.88-1.22,6.42-1.22S442.44,325.16,442.44,325.84Z" style="fill:#a6a6a6;stroke:#263238;stroke-miterlimit:10"></path><path d="M441.63,325.18c-3.33-5.83-2.32-16.74-2.32-16.74l-2.93-.08v0h-.51v0l-2.93.08s1,10.91-2.33,16.74a26.46,26.46,0,0,0,11,0Z" style="fill:#a6a6a6;stroke:#263238;stroke-miterlimit:10"></path><rect x="435.08" y="294.42" width="2.2" height="2.2" style="fill:#a6a6a6;stroke:#263238;stroke-miterlimit:10"></rect><path d="M439.55,298.89a3.46,3.46,0,1,1-3.4-2.85A3.16,3.16,0,0,1,439.55,298.89Z" style="fill:#a6a6a6;stroke:#263238;stroke-miterlimit:10"></path><path d="M433.34,304.11a21,21,0,0,0-.81-3.44,7.37,7.37,0,0,0-1.51-1.92,2.89,2.89,0,0,1,1.41-.3,2.37,2.37,0,0,1,1.16.77s0-1.38,1.17-1.18,1.51.71,1.51.71a1.4,1.4,0,0,1,1.42-.71,1.24,1.24,0,0,1,.88,1.24,2.9,2.9,0,0,1,2.08-.45A12.7,12.7,0,0,0,439,302.2a13,13,0,0,0-.2,1.91Z" style="fill:#a6a6a6;stroke:#263238;stroke-miterlimit:10"></path><ellipse cx="438.24" cy="343.75" rx="9.25" ry="2.71" style="fill:#a6a6a6;stroke:#263238;stroke-miterlimit:10"></ellipse><path d="M431.9,335s.34.31-.11.94-2.8.73-3.14,3.34,3.37,4.9,8.53,4.8,8.18-.32,9.53-2.72-.23-3.86-1.46-4.69a2.4,2.4,0,0,1-1.23-1.78Z" style="fill:#a6a6a6;stroke:#263238;stroke-miterlimit:10"></path><ellipse cx="438.24" cy="334.67" rx="7.12" ry="1.36" style="fill:#a6a6a6;stroke:#263238;stroke-miterlimit:10"></ellipse><path d="M441,321.12l.1-.19h-5.73l.21.33a30.05,30.05,0,0,1-3.35,12.68,29.09,29.09,0,0,0,12.23,0A30.65,30.65,0,0,1,441,321.12Z" style="fill:#a6a6a6;stroke:#263238;stroke-miterlimit:10"></path><path d="M433.21,320.93h11s.44-.58-.73-2.48-2.19-2.19-2.19-2.19h-6S432.19,318,433.21,320.93Z" style="fill:#a6a6a6;stroke:#263238;stroke-miterlimit:10"></path><rect x="435.26" y="312.16" width="6.14" height="4.09" style="fill:#a6a6a6;stroke:#263238;stroke-miterlimit:10"></rect><rect x="436.86" y="301.74" width="2.93" height="2.25" style="fill:#a6a6a6;stroke:#263238;stroke-miterlimit:10"></rect><ellipse cx="438.33" cy="309.53" rx="4.39" ry="5.85" style="fill:#a6a6a6;stroke:#263238;stroke-miterlimit:10"></ellipse><path d="M441.25,305.44l-2.66,3.72a.65.65,0,0,0,0,.75h0a.65.65,0,0,0,1,.06l2.54-2.78" style="fill:#a6a6a6;stroke:#263238;stroke-miterlimit:10"></path><path d="M433.23,355.07c0,1.4,3.86,2.53,8.62,2.53s8.62-1.13,8.62-2.53-3.86-2.52-8.62-2.52S433.23,353.68,433.23,355.07Z" style="fill:#a6a6a6;stroke:#263238;stroke-miterlimit:10"></path><path d="M447.76,346.91s-.32.29.1.87,2.61.68,2.93,3.11-3.14,4.57-8,4.48-7.63-.3-8.88-2.53.21-3.6,1.36-4.38a2.22,2.22,0,0,0,1.15-1.65Z" style="fill:#a6a6a6;stroke:#263238;stroke-miterlimit:10"></path><ellipse cx="441.85" cy="346.62" rx="6.64" ry="1.26" style="fill:#a6a6a6;stroke:#263238;stroke-miterlimit:10"></ellipse><path d="M439.31,323l-.37-3a10.67,10.67,0,0,1,7.66,1.37c4.28,2.37,5.2,5.93,4.56,9.76s-2.1,7.65-1.64,10.39,1.46,3,1.46,3a22.56,22.56,0,0,1-4.11,1.18c-2.09.37-2.55-.73-1.91-4.56s3.83-9.29,2.19-12.94-3.56-4.19-5.11-4.47S439.31,323.85,439.31,323Z" style="fill:#a6a6a6;stroke:#263238;stroke-miterlimit:10"></path><path d="M439.31,323s-.19-2.46.54-2.09A8.6,8.6,0,0,1,441.4,322s4.65.09,6.29,3.37,1.1,7.75-.18,11.31-1.27,5.92-.64,7.56-.36,2.38-3,2.65-5.57,0-6.93-1.28a5.11,5.11,0,0,1-1.1-5.92c1.1-2.28,5.47-4.93,6.29-6.29s-.09-3.74-.09-3.74a1.51,1.51,0,0,1-1.37.91,15,15,0,0,1-2.09-.18s-2,2.28-3,1.91a3.17,3.17,0,0,1-2.28-2c-.27-1.1,2.73-2.92,2.83-3.19a9.38,9.38,0,0,1,1.09-2.83C437.85,323.49,439.22,322.39,439.31,323Z" style="fill:#a6a6a6;stroke:#263238;stroke-miterlimit:10"></path><ellipse cx="448.22" cy="369.24" rx="8.89" ry="2.61" style="fill:#a6a6a6;stroke:#263238;stroke-miterlimit:10"></ellipse><path d="M442.13,360.82s.33.3-.1.91-2.7.7-3,3.2,3.23,4.71,8.19,4.61,7.86-.3,9.16-2.6-.22-3.71-1.41-4.51a2.3,2.3,0,0,1-1.18-1.71Z" style="fill:#a6a6a6;stroke:#263238;stroke-miterlimit:10"></path><ellipse cx="448.22" cy="360.52" rx="6.84" ry="1.3" style="fill:#a6a6a6;stroke:#263238;stroke-miterlimit:10"></ellipse><path d="M451.58,346.66h0l2.18-4h-11.4l2.72,4.14c-.05,3.92-.55,9.37-2.62,13a28.1,28.1,0,0,0,11.74,0C452.1,356.15,451.62,350.6,451.58,346.66Z" style="fill:#a6a6a6;stroke:#263238;stroke-miterlimit:10"></path><polygon points="449.02 336.67 449.02 340.39 447.23 340.39 447.23 336.67 442.36 336.67 442.36 342.69 445.44 342.69 447.23 342.69 449.02 342.69 450.94 342.69 453.89 342.69 453.89 336.67 449.02 336.67" style="fill:#a6a6a6;stroke:#263238;stroke-miterlimit:10"></polygon><ellipse cx="308.27" cy="301.63" rx="7.24" ry="2.12" style="fill:#fff;stroke:#263238;stroke-miterlimit:10"></ellipse><path d="M313.23,294.77s-.26.24.09.73,2.19.57,2.46,2.62-2.64,3.84-6.68,3.75-6.41-.24-7.46-2.12.17-3,1.14-3.68a1.86,1.86,0,0,0,1-1.39Z" style="fill:#fff;stroke:#263238;stroke-miterlimit:10"></path><path d="M302.69,294.52c0,.59,2.5,1.06,5.58,1.06s5.58-.47,5.58-1.06-2.5-1.06-5.58-1.06S302.69,293.93,302.69,294.52Z" style="fill:#fff;stroke:#263238;stroke-miterlimit:10"></path><path d="M305.54,283.22h0L303.75,280h9.3l-2.22,3.37c0,3.2.45,7.64,2.14,10.59a23.15,23.15,0,0,1-9.57,0C305.11,291,305.5,286.43,305.54,283.22Z" style="fill:#fff;stroke:#263238;stroke-miterlimit:10"></path><polygon points="307.62 275.08 307.62 278.11 309.08 278.11 309.08 275.08 313.05 275.08 313.05 279.99 310.54 279.99 309.08 279.99 307.62 279.99 306.05 279.99 303.65 279.99 303.65 275.08 307.62 275.08" style="fill:#fff;stroke:#263238;stroke-miterlimit:10"></polygon><ellipse cx="307.43" cy="310.06" rx="6.65" ry="1.95" style="fill:#fff;stroke:#263238;stroke-miterlimit:10"></ellipse><path d="M302.88,303.76s.24.23-.09.68-2,.52-2.25,2.4,2.42,3.52,6.12,3.45,5.89-.23,6.86-2-.16-2.78-1-3.38a1.71,1.71,0,0,1-.89-1.27Z" style="fill:#fff;stroke:#263238;stroke-miterlimit:10"></path><path d="M312.55,303.54c0,.54-2.29,1-5.12,1s-5.12-.43-5.12-1,2.29-1,5.12-1S312.55,303,312.55,303.54Z" style="fill:#fff;stroke:#263238;stroke-miterlimit:10"></path><path d="M309.39,285.35l.28-2.32a8.23,8.23,0,0,0-5.9,1.05c-3.31,1.83-4,4.57-3.52,7.53s1.62,5.9,1.27,8-1.13,2.32-1.13,2.32a17.19,17.19,0,0,0,3.17.92c1.61.28,2-.56,1.47-3.52s-2.95-7.17-1.68-10,2.74-3.24,3.93-3.45S309.39,286,309.39,285.35Z" style="fill:#fff;stroke:#263238;stroke-miterlimit:10"></path><path d="M309.39,285.35s.14-1.9-.42-1.62a6.59,6.59,0,0,0-1.19.85s-3.59.07-4.86,2.6-.84,6,.14,8.72,1,4.57.5,5.83.28,1.83,2.32,2,4.29,0,5.34-1a3.93,3.93,0,0,0,.84-4.57c-.84-1.76-4.21-3.8-4.85-4.85s.07-2.89.07-2.89a1.18,1.18,0,0,0,1.06.71,11.65,11.65,0,0,0,1.62-.14s1.54,1.75,2.32,1.47A2.43,2.43,0,0,0,314,291c.21-.84-2.11-2.25-2.18-2.46a7.47,7.47,0,0,0-.84-2.18C310.52,285.7,309.46,284.86,309.39,285.35Z" style="fill:#fff;stroke:#263238;stroke-miterlimit:10"></path><path d="M298.14,316.22c0,1.21,3.34,2.19,7.47,2.19s7.47-1,7.47-2.19-3.35-2.19-7.47-2.19S298.14,315,298.14,316.22Z" style="fill:#fff;stroke:#263238;stroke-miterlimit:10"></path><path d="M310.72,309.15s-.27.25.09.76,2.27.59,2.54,2.69-2.72,4-6.88,3.88-6.61-.26-7.7-2.19.18-3.12,1.18-3.79a1.94,1.94,0,0,0,1-1.44Z" style="fill:#fff;stroke:#263238;stroke-miterlimit:10"></path><ellipse cx="305.61" cy="308.9" rx="5.75" ry="1.09" style="fill:#fff;stroke:#263238;stroke-miterlimit:10"></ellipse><path d="M303.38,298l-.09-.15h4.63l-.17.26a24.31,24.31,0,0,0,2.7,10.24,23.68,23.68,0,0,1-9.87,0,24.73,24.73,0,0,0,2.8-10.35Z" style="fill:#fff;stroke:#263238;stroke-miterlimit:10"></path><path d="M309.67,297.81h-8.85s-.35-.47.59-2,1.77-1.77,1.77-1.77H308S310.49,295.45,309.67,297.81Z" style="fill:#fff;stroke:#263238;stroke-miterlimit:10"></path><rect x="303.06" y="290.73" width="4.95" height="3.3" transform="translate(611.08 584.76) rotate(180)" style="fill:#fff;stroke:#263238;stroke-miterlimit:10"></rect><rect x="304.35" y="282.32" width="2.37" height="1.82" transform="translate(611.07 566.45) rotate(180)" style="fill:#fff;stroke:#263238;stroke-miterlimit:10"></rect><path d="M302,288.6c0,2.61,1.58,4.72,3.54,4.72s3.54-2.11,3.54-4.72-1.59-4.71-3.54-4.71S302,286,302,288.6Z" style="fill:#fff;stroke:#263238;stroke-miterlimit:10"></path><path d="M303.18,285.3l2.14,3a.53.53,0,0,1,0,.61h0a.52.52,0,0,1-.8,0l-2-2.24" style="fill:#fff;stroke:#263238;stroke-miterlimit:10"></path><polygon points="298.26 280.28 300.11 280.28 300.11 278.21 302.4 278.21 302.4 280.28 304.36 280.28 304.36 281.91 302.4 281.91 302.4 284.31 300.11 284.31 300.11 281.91 298.26 281.91 298.26 280.28" style="fill:#fff;stroke:#263238;stroke-miterlimit:10"></polygon><path d="M295.07,284.64c.39-.5,4.24-.55,6-.55,1.94,0,6.15.05,6.57.55.54.66-1.31,2.51-1.86,3.6s-1.53,2.94-1.53,2.94h-6.08s-.9-1.85-1.4-2.94S294.58,285.3,295.07,284.64Z" style="fill:#fff;stroke:#263238;stroke-miterlimit:10"></path><rect x="297.6" y="291.18" width="7.2" height="1.42" transform="translate(602.4 583.79) rotate(180)" style="fill:#fff;stroke:#263238;stroke-miterlimit:10"></rect><rect x="296.79" y="292.76" width="8.83" height="1.54" transform="translate(602.4 587.06) rotate(180)" style="fill:#fff;stroke:#263238;stroke-miterlimit:10"></rect><rect x="295.46" y="294.35" width="11.49" height="1.72" rx="0.73" transform="translate(602.4 590.42) rotate(180)" style="fill:#fff;stroke:#263238;stroke-miterlimit:10"></rect><path d="M292.15,325.87c0,1.56,4,2.83,9,2.83s9-1.27,9-2.83-4-2.84-9-2.84S292.15,324.3,292.15,325.87Z" style="fill:#fff;stroke:#263238;stroke-miterlimit:10"></path><path d="M307.31,316.71s-.33.32.11,1,2.72.76,3.05,3.49-3.27,5.12-8.29,5-8-.33-9.27-2.84.22-4,1.42-4.91a2.52,2.52,0,0,0,1.2-1.85Z" style="fill:#fff;stroke:#263238;stroke-miterlimit:10"></path><ellipse cx="301.15" cy="316.38" rx="6.93" ry="1.42" style="fill:#fff;stroke:#263238;stroke-miterlimit:10"></ellipse><path d="M295.09,315.62c3.6-6.77,2.51-19.42,2.51-19.42l3.16-.09v0h.55v0l3.16.09s-1.09,12.65,2.51,19.42a26.71,26.71,0,0,1-11.89,0Z" style="fill:#fff;stroke:#263238;stroke-miterlimit:10"></path><rect x="295.79" y="304.11" width="6.67" height="1.22" transform="translate(598.24 609.44) rotate(180)" style="fill:#fff;stroke:#263238;stroke-miterlimit:10"></rect><rect x="295.03" y="305.47" width="8.19" height="1.33" transform="translate(598.24 612.27) rotate(180)" style="fill:#fff;stroke:#263238;stroke-miterlimit:10"></rect><path d="M294.54,308.33h9.17a.75.75,0,0,0,.74-.75h0a.74.74,0,0,0-.74-.74h-9.17a.74.74,0,0,0-.74.74h0A.75.75,0,0,0,294.54,308.33Z" style="fill:#fff;stroke:#263238;stroke-miterlimit:10"></path><path d="M290.73,334c0,1.35,3.73,2.45,8.34,2.45s8.34-1.1,8.34-2.45-3.73-2.44-8.34-2.44S290.73,332.67,290.73,334Z" style="fill:#fff;stroke:#263238;stroke-miterlimit:10"></path><path d="M304.78,326.12s-.3.28.11.85,2.52.66,2.83,3-3,4.42-7.69,4.33-7.38-.29-8.59-2.45.2-3.48,1.31-4.23a2.16,2.16,0,0,0,1.11-1.6Z" style="fill:#fff;stroke:#263238;stroke-miterlimit:10"></path><path d="M292.65,325.84c0,.68,2.88,1.22,6.42,1.22s6.42-.54,6.42-1.22-2.87-1.22-6.42-1.22S292.65,325.16,292.65,325.84Z" style="fill:#fff;stroke:#263238;stroke-miterlimit:10"></path><path d="M293.46,325.18c3.34-5.83,2.33-16.74,2.33-16.74l2.93-.08v0h.5v0l2.94.08s-1,10.91,2.32,16.74a26.46,26.46,0,0,1-11,0Z" style="fill:#fff;stroke:#263238;stroke-miterlimit:10"></path><rect x="297.81" y="294.42" width="2.2" height="2.2" transform="translate(597.83 591.05) rotate(180)" style="fill:#fff;stroke:#263238;stroke-miterlimit:10"></rect><path d="M295.55,298.89A3.45,3.45,0,1,0,299,296,3.16,3.16,0,0,0,295.55,298.89Z" style="fill:#fff;stroke:#263238;stroke-miterlimit:10"></path><path d="M301.75,304.11a22.07,22.07,0,0,1,.81-3.44,7.32,7.32,0,0,1,1.52-1.92,2.91,2.91,0,0,0-1.42-.3,2.32,2.32,0,0,0-1.15.77s0-1.38-1.17-1.18-1.52.71-1.52.71a1.4,1.4,0,0,0-1.42-.71,1.24,1.24,0,0,0-.88,1.24,2.88,2.88,0,0,0-2.07-.45,13,13,0,0,1,1.62,3.37,12,12,0,0,1,.19,1.91Z" style="fill:#fff;stroke:#263238;stroke-miterlimit:10"></path><ellipse cx="296.85" cy="343.75" rx="9.25" ry="2.71" style="fill:#fff;stroke:#263238;stroke-miterlimit:10"></ellipse><path d="M303.19,335s-.34.31.11.94,2.81.73,3.14,3.34-3.36,4.9-8.52,4.8-8.19-.32-9.54-2.72.23-3.86,1.46-4.69a2.4,2.4,0,0,0,1.24-1.78Z" style="fill:#fff;stroke:#263238;stroke-miterlimit:10"></path><ellipse cx="296.85" cy="334.67" rx="7.12" ry="1.36" style="fill:#fff;stroke:#263238;stroke-miterlimit:10"></ellipse><path d="M294.09,321.12l-.11-.19h5.74l-.22.33a30.35,30.35,0,0,0,3.35,12.68,29,29,0,0,1-12.22,0,30.63,30.63,0,0,0,3.46-12.82Z" style="fill:#fff;stroke:#263238;stroke-miterlimit:10"></path><path d="M301.88,320.93h-11s-.44-.58.73-2.48,2.19-2.19,2.19-2.19h6S302.91,318,301.88,320.93Z" style="fill:#fff;stroke:#263238;stroke-miterlimit:10"></path><rect x="293.7" y="312.16" width="6.14" height="4.09" transform="translate(593.54 628.42) rotate(180)" style="fill:#fff;stroke:#263238;stroke-miterlimit:10"></rect><rect x="295.3" y="301.74" width="2.93" height="2.25" transform="translate(593.53 605.73) rotate(180)" style="fill:#fff;stroke:#263238;stroke-miterlimit:10"></rect><path d="M292.38,309.53c0,3.23,2,5.85,4.39,5.85s4.38-2.62,4.38-5.85-2-5.84-4.38-5.84S292.38,306.3,292.38,309.53Z" style="fill:#fff;stroke:#263238;stroke-miterlimit:10"></path><path d="M293.84,305.44l2.66,3.72a.65.65,0,0,1,0,.75h0a.65.65,0,0,1-1,.06L293,307.19" style="fill:#fff;stroke:#263238;stroke-miterlimit:10"></path><path d="M301.87,355.07c0,1.4-3.86,2.53-8.63,2.53s-8.62-1.13-8.62-2.53,3.86-2.52,8.62-2.52S301.87,353.68,301.87,355.07Z" style="fill:#fff;stroke:#263238;stroke-miterlimit:10"></path><path d="M287.34,346.91s.31.29-.11.87-2.61.68-2.92,3.11,3.13,4.57,7.94,4.48,7.63-.3,8.88-2.53-.2-3.6-1.35-4.38a2.22,2.22,0,0,1-1.15-1.65Z" style="fill:#fff;stroke:#263238;stroke-miterlimit:10"></path><ellipse cx="293.24" cy="346.62" rx="6.64" ry="1.26" style="fill:#fff;stroke:#263238;stroke-miterlimit:10"></ellipse><path d="M295.79,323l.36-3a10.67,10.67,0,0,0-7.66,1.37c-4.28,2.37-5.19,5.93-4.56,9.76s2.1,7.65,1.65,10.39-1.46,3-1.46,3a22.31,22.31,0,0,0,4.1,1.18c2.1.37,2.55-.73,1.91-4.56s-3.82-9.29-2.18-12.94,3.55-4.19,5.1-4.47S295.79,323.85,295.79,323Z" style="fill:#fff;stroke:#263238;stroke-miterlimit:10"></path><path d="M295.79,323s.18-2.46-.55-2.09a8.6,8.6,0,0,0-1.55,1.09s-4.65.09-6.29,3.37-1.09,7.75.18,11.31,1.28,5.92.64,7.56.36,2.38,3,2.65,5.56,0,6.93-1.28a5.11,5.11,0,0,0,1.09-5.92c-1.09-2.28-5.47-4.93-6.29-6.29s.09-3.74.09-3.74a1.53,1.53,0,0,0,1.37.91,15.18,15.18,0,0,0,2.1-.18s2,2.28,3,1.91a3.15,3.15,0,0,0,2.28-2c.28-1.1-2.73-2.92-2.82-3.19a9.47,9.47,0,0,0-1.1-2.83C297.25,323.49,295.88,322.39,295.79,323Z" style="fill:#fff;stroke:#263238;stroke-miterlimit:10"></path><ellipse cx="286.87" cy="369.24" rx="8.89" ry="2.61" style="fill:#fff;stroke:#263238;stroke-miterlimit:10"></ellipse><path d="M293,360.82s-.32.3.11.91,2.69.7,3,3.2-3.23,4.71-8.18,4.61-7.87-.3-9.16-2.6.21-3.71,1.4-4.51a2.3,2.3,0,0,0,1.18-1.71Z" style="fill:#fff;stroke:#263238;stroke-miterlimit:10"></path><ellipse cx="286.87" cy="360.52" rx="6.84" ry="1.3" style="fill:#fff;stroke:#263238;stroke-miterlimit:10"></ellipse><path d="M283.52,346.66h0l-2.18-4h11.4L290,346.83c.06,3.92.55,9.37,2.63,13a28.15,28.15,0,0,1-11.75,0C283,356.15,283.47,350.6,283.52,346.66Z" style="fill:#fff;stroke:#263238;stroke-miterlimit:10"></path><polygon points="286.07 336.67 286.07 340.39 287.87 340.39 287.87 336.67 292.73 336.67 292.73 342.69 289.66 342.69 287.87 342.69 286.07 342.69 284.15 342.69 281.2 342.69 281.2 336.67 286.07 336.67" style="fill:#fff;stroke:#263238;stroke-miterlimit:10"></polygon><path d="M415.1,302.15c0,1-2.67,1.75-6,1.75s-6-.78-6-1.75,2.67-1.74,6-1.74S415.1,301.19,415.1,302.15Z" style="fill:#a6a6a6;stroke:#263238;stroke-miterlimit:10"></path><path d="M405.06,296.51s.22.2-.07.6-1.81.47-2,2.15,2.16,3.16,5.49,3.1,5.27-.21,6.14-1.75-.15-2.49-.94-3a1.52,1.52,0,0,1-.8-1.14Z" style="fill:#a6a6a6;stroke:#263238;stroke-miterlimit:10"></path><ellipse cx="409.14" cy="296.31" rx="4.59" ry="0.87" style="fill:#a6a6a6;stroke:#263238;stroke-miterlimit:10"></ellipse><path d="M407.06,290.78a18,18,0,0,1-1.78,5.06,19.09,19.09,0,0,0,7.87,0,18.69,18.69,0,0,1-1.82-5.06Z" style="fill:#a6a6a6;stroke:#263238;stroke-miterlimit:10"></path><path d="M407.63,288.45l-1.39.79a.36.36,0,0,0-.08.55l.9,1h4.27l.83-1a.35.35,0,0,0-.09-.52l-1.48-.92Z" style="fill:#a6a6a6;stroke:#263238;stroke-miterlimit:10"></path><path d="M407.38,288.58h3.52a3,3,0,1,0-3.52,0Z" style="fill:#a6a6a6;stroke:#263238;stroke-miterlimit:10"></path><path d="M417.43,309c0,1-2.67,1.75-6,1.75s-6-.78-6-1.75,2.67-1.74,6-1.74S417.43,308,417.43,309Z" style="fill:#a6a6a6;stroke:#263238;stroke-miterlimit:10"></path><path d="M407.39,303.31s.21.2-.08.6-1.8.47-2,2.15,2.17,3.16,5.49,3.1,5.28-.21,6.14-1.75-.14-2.49-.94-3a1.52,1.52,0,0,1-.79-1.14Z" style="fill:#a6a6a6;stroke:#263238;stroke-miterlimit:10"></path><ellipse cx="411.47" cy="303.11" rx="4.59" ry="0.87" style="fill:#a6a6a6;stroke:#263238;stroke-miterlimit:10"></ellipse><path d="M409.38,297.58a17.67,17.67,0,0,1-1.78,5.06,19.14,19.14,0,0,0,7.88,0,18.36,18.36,0,0,1-1.82-5.06Z" style="fill:#a6a6a6;stroke:#263238;stroke-miterlimit:10"></path><path d="M410,295.25l-1.38.79a.36.36,0,0,0-.09.55l.9,1h4.28l.82-1a.35.35,0,0,0-.08-.52l-1.49-.92Z" style="fill:#a6a6a6;stroke:#263238;stroke-miterlimit:10"></path><path d="M409.7,295.38h3.52a3,3,0,1,0-3.52,0Z" style="fill:#a6a6a6;stroke:#263238;stroke-miterlimit:10"></path><ellipse cx="412.83" cy="318.54" rx="5.96" ry="1.75" style="fill:#a6a6a6;stroke:#263238;stroke-miterlimit:10"></ellipse><path d="M408.75,312.9s.21.2-.08.6-1.8.47-2,2.15,2.17,3.16,5.49,3.09,5.27-.2,6.14-1.74-.14-2.49-.94-3a1.54,1.54,0,0,1-.79-1.14Z" style="fill:#a6a6a6;stroke:#263238;stroke-miterlimit:10"></path><path d="M417.41,312.69c0,.49-2.05.88-4.58.88s-4.59-.39-4.59-.88,2.05-.87,4.59-.87S417.41,312.21,417.41,312.69Z" style="fill:#a6a6a6;stroke:#263238;stroke-miterlimit:10"></path><path d="M410.74,307.17a17.5,17.5,0,0,1-1.78,5.05,18.69,18.69,0,0,0,7.88,0,18.3,18.3,0,0,1-1.82-5.05Z" style="fill:#a6a6a6;stroke:#263238;stroke-miterlimit:10"></path><path d="M411.31,304.84l-1.38.79a.35.35,0,0,0-.09.54l.9,1H415l.82-1a.34.34,0,0,0-.09-.52l-1.48-.93Z" style="fill:#a6a6a6;stroke:#263238;stroke-miterlimit:10"></path><path d="M411.06,305h3.52a3,3,0,0,0-1.76-5.48,3,3,0,0,0-1.76,5.48Z" style="fill:#a6a6a6;stroke:#263238;stroke-miterlimit:10"></path><path d="M385.07,326.75c0,1-2.67,1.74-6,1.74s-6-.78-6-1.74,2.67-1.75,6-1.75S385.07,325.78,385.07,326.75Z" style="fill:#a6a6a6;stroke:#263238;stroke-miterlimit:10"></path><path d="M375,321.1s.21.2-.08.61-1.8.47-2,2.15,2.17,3.15,5.49,3.09,5.27-.2,6.14-1.75-.14-2.49-.94-3a1.55,1.55,0,0,1-.79-1.15Z" style="fill:#a6a6a6;stroke:#263238;stroke-miterlimit:10"></path><path d="M383.69,320.9c0,.48-2.05.87-4.58.87s-4.59-.39-4.59-.87,2.05-.87,4.59-.87S383.69,320.42,383.69,320.9Z" style="fill:#a6a6a6;stroke:#263238;stroke-miterlimit:10"></path><path d="M377,315.38a17.72,17.72,0,0,1-1.78,5.05,19.14,19.14,0,0,0,7.88,0,18.41,18.41,0,0,1-1.82-5.05Z" style="fill:#a6a6a6;stroke:#263238;stroke-miterlimit:10"></path><path d="M377.59,313.05l-1.38.79a.35.35,0,0,0-.09.54l.9,1h4.28l.82-1a.35.35,0,0,0-.09-.53l-1.48-.92Z" style="fill:#a6a6a6;stroke:#263238;stroke-miterlimit:10"></path><path d="M377.34,313.17h3.52a3,3,0,1,0-3.52,0Z" style="fill:#a6a6a6;stroke:#263238;stroke-miterlimit:10"></path><path d="M423.59,336.33c0,1-2.67,1.75-6,1.75s-6-.78-6-1.75,2.67-1.75,6-1.75S423.59,335.37,423.59,336.33Z" style="fill:#a6a6a6;stroke:#263238;stroke-miterlimit:10"></path><path d="M413.55,330.69s.22.2-.07.6-1.81.47-2,2.15,2.17,3.16,5.49,3.09,5.28-.2,6.14-1.75-.14-2.48-.93-3a1.54,1.54,0,0,1-.8-1.14Z" style="fill:#a6a6a6;stroke:#263238;stroke-miterlimit:10"></path><path d="M422.22,330.48c0,.49-2.06.88-4.59.88S413,331,413,330.48s2.06-.87,4.59-.87S422.22,330,422.22,330.48Z" style="fill:#a6a6a6;stroke:#263238;stroke-miterlimit:10"></path><path d="M415.54,325a17.79,17.79,0,0,1-1.77,5.05,18.64,18.64,0,0,0,7.87,0,18.3,18.3,0,0,1-1.82-5.05Z" style="fill:#a6a6a6;stroke:#263238;stroke-miterlimit:10"></path><path d="M416.11,322.63l-1.38.79a.35.35,0,0,0-.09.54l.9,1h4.28l.83-1a.35.35,0,0,0-.09-.52l-1.49-.93Z" style="fill:#a6a6a6;stroke:#263238;stroke-miterlimit:10"></path><path d="M415.87,322.76h3.51a3,3,0,1,0-3.51,0Z" style="fill:#a6a6a6;stroke:#263238;stroke-miterlimit:10"></path><path d="M426.28,346.76c0,1.06-2.93,1.92-6.54,1.92s-6.55-.86-6.55-1.92,2.93-1.91,6.55-1.91S426.28,345.7,426.28,346.76Z" style="fill:#a6a6a6;stroke:#263238;stroke-miterlimit:10"></path><path d="M415.26,340.57s.23.22-.08.66-2,.52-2.22,2.36,2.38,3.47,6,3.39,5.79-.22,6.75-1.91-.16-2.73-1-3.32a1.69,1.69,0,0,1-.87-1.26Z" style="fill:#a6a6a6;stroke:#263238;stroke-miterlimit:10"></path><path d="M424.77,340.34c0,.53-2.25,1-5,1s-5-.43-5-1,2.26-.95,5-.95S424.77,339.81,424.77,340.34Z" style="fill:#a6a6a6;stroke:#263238;stroke-miterlimit:10"></path><path d="M417.45,334.28a19.56,19.56,0,0,1-2,5.55,21,21,0,0,0,8.65,0,20.38,20.38,0,0,1-2-5.55Z" style="fill:#a6a6a6;stroke:#263238;stroke-miterlimit:10"></path><path d="M418.07,331.72l-1.52.87a.39.39,0,0,0-.09.6l1,1.09h4.69l.91-1.11a.39.39,0,0,0-.1-.58l-1.63-1Z" style="fill:#a6a6a6;stroke:#263238;stroke-miterlimit:10"></path><path d="M417.8,331.86h3.86a3.32,3.32,0,1,0-3.86,0Z" style="fill:#a6a6a6;stroke:#263238;stroke-miterlimit:10"></path><path d="M428.5,357.71c0,1.06-2.93,1.92-6.54,1.92s-6.55-.86-6.55-1.92,2.93-1.91,6.55-1.91S428.5,356.66,428.5,357.71Z" style="fill:#a6a6a6;stroke:#263238;stroke-miterlimit:10"></path><path d="M417.48,351.52s.23.22-.08.66-2,.52-2.22,2.36,2.38,3.47,6,3.4S427,357.71,428,356s-.16-2.73-1-3.32a1.69,1.69,0,0,1-.88-1.26Z" style="fill:#a6a6a6;stroke:#263238;stroke-miterlimit:10"></path><path d="M427,351.3c0,.53-2.25,1-5,1s-5-.43-5-1,2.26-1,5-1S427,350.77,427,351.3Z" style="fill:#a6a6a6;stroke:#263238;stroke-miterlimit:10"></path><path d="M419.67,345.23a19.56,19.56,0,0,1-2,5.55,20.56,20.56,0,0,0,8.65,0,20.26,20.26,0,0,1-2-5.55Z" style="fill:#a6a6a6;stroke:#263238;stroke-miterlimit:10"></path><path d="M420.29,342.67l-1.52.87a.39.39,0,0,0-.09.6l1,1.09h4.69l.91-1.11a.39.39,0,0,0-.1-.58l-1.63-1Z" style="fill:#a6a6a6;stroke:#263238;stroke-miterlimit:10"></path><path d="M420,342.81h3.86a3.32,3.32,0,1,0-3.86,0Z" style="fill:#a6a6a6;stroke:#263238;stroke-miterlimit:10"></path><path d="M431.18,369.88c0,1.06-2.93,1.92-6.54,1.92s-6.55-.86-6.55-1.92S421,368,424.64,368,431.18,368.82,431.18,369.88Z" style="fill:#a6a6a6;stroke:#263238;stroke-miterlimit:10"></path><path d="M420.16,363.69s.23.22-.08.66-2,.52-2.22,2.36,2.38,3.47,6,3.39,5.79-.22,6.75-1.91-.16-2.73-1-3.32a1.69,1.69,0,0,1-.88-1.26Z" style="fill:#a6a6a6;stroke:#263238;stroke-miterlimit:10"></path><path d="M429.67,363.46c0,.53-2.25,1-5,1s-5-.43-5-1,2.26-.95,5-.95S429.67,362.93,429.67,363.46Z" style="fill:#a6a6a6;stroke:#263238;stroke-miterlimit:10"></path><path d="M422.35,357.4a19.56,19.56,0,0,1-2,5.55,21,21,0,0,0,8.65,0,20.38,20.38,0,0,1-2-5.55Z" style="fill:#a6a6a6;stroke:#263238;stroke-miterlimit:10"></path><path d="M423,354.84l-1.52.87a.39.39,0,0,0-.09.6l1,1.09H427l.91-1.11a.39.39,0,0,0-.1-.58l-1.63-1Z" style="fill:#a6a6a6;stroke:#263238;stroke-miterlimit:10"></path><path d="M422.7,355h3.86a3.32,3.32,0,1,0-3.86,0Z" style="fill:#a6a6a6;stroke:#263238;stroke-miterlimit:10"></path><path d="M320.71,302.15c0,1,2.66,1.75,6,1.75s6-.78,6-1.75-2.66-1.74-6-1.74S320.71,301.19,320.71,302.15Z" style="fill:#fff;stroke:#263238;stroke-miterlimit:10"></path><path d="M330.75,296.51s-.22.2.07.6,1.8.47,2,2.15-2.17,3.16-5.49,3.1-5.27-.21-6.14-1.75.15-2.49.94-3a1.52,1.52,0,0,0,.79-1.14Z" style="fill:#fff;stroke:#263238;stroke-miterlimit:10"></path><path d="M322.08,296.31c0,.48,2.05.87,4.58.87s4.59-.39,4.59-.87-2.05-.88-4.59-.88S322.08,295.83,322.08,296.31Z" style="fill:#fff;stroke:#263238;stroke-miterlimit:10"></path><path d="M328.75,290.78a17.67,17.67,0,0,0,1.78,5.06,19.09,19.09,0,0,1-7.87,0,18.69,18.69,0,0,0,1.82-5.06Z" style="fill:#fff;stroke:#263238;stroke-miterlimit:10"></path><path d="M328.18,288.45l1.38.79a.36.36,0,0,1,.09.55l-.9,1h-4.27l-.83-1a.35.35,0,0,1,.09-.52l1.48-.92Z" style="fill:#fff;stroke:#263238;stroke-miterlimit:10"></path><path d="M328.43,288.58h-3.52a3,3,0,1,1,3.52,0Z" style="fill:#fff;stroke:#263238;stroke-miterlimit:10"></path><path d="M318.38,309c0,1,2.67,1.75,6,1.75s6-.78,6-1.75-2.67-1.74-6-1.74S318.38,308,318.38,309Z" style="fill:#fff;stroke:#263238;stroke-miterlimit:10"></path><path d="M328.42,303.31s-.22.2.07.6,1.81.47,2,2.15-2.17,3.16-5.49,3.1-5.28-.21-6.14-1.75.14-2.49.93-3a1.52,1.52,0,0,0,.8-1.14Z" style="fill:#fff;stroke:#263238;stroke-miterlimit:10"></path><path d="M319.75,303.11c0,.48,2.06.87,4.59.87s4.59-.39,4.59-.87-2.06-.88-4.59-.88S319.75,302.63,319.75,303.11Z" style="fill:#fff;stroke:#263238;stroke-miterlimit:10"></path><path d="M326.43,297.58a18,18,0,0,0,1.77,5.06,19.09,19.09,0,0,1-7.87,0,18.36,18.36,0,0,0,1.82-5.06Z" style="fill:#fff;stroke:#263238;stroke-miterlimit:10"></path><path d="M325.86,295.25l1.38.79a.36.36,0,0,1,.09.55l-.9,1h-4.28l-.83-1a.35.35,0,0,1,.09-.52l1.49-.92Z" style="fill:#fff;stroke:#263238;stroke-miterlimit:10"></path><path d="M326.1,295.38h-3.51a3,3,0,1,1,3.51,0Z" style="fill:#fff;stroke:#263238;stroke-miterlimit:10"></path><ellipse cx="322.98" cy="318.54" rx="5.96" ry="1.75" style="fill:#fff;stroke:#263238;stroke-miterlimit:10"></ellipse><path d="M327.06,312.9s-.21.2.07.6,1.81.47,2,2.15-2.17,3.16-5.49,3.09-5.28-.2-6.14-1.74.14-2.49.94-3a1.54,1.54,0,0,0,.79-1.14Z" style="fill:#fff;stroke:#263238;stroke-miterlimit:10"></path><path d="M318.39,312.69c0,.49,2.06.88,4.59.88s4.59-.39,4.59-.88-2.06-.87-4.59-.87S318.39,312.21,318.39,312.69Z" style="fill:#fff;stroke:#263238;stroke-miterlimit:10"></path><path d="M325.07,307.17a17.5,17.5,0,0,0,1.78,5.05,18.69,18.69,0,0,1-7.88,0,18.3,18.3,0,0,0,1.82-5.05Z" style="fill:#fff;stroke:#263238;stroke-miterlimit:10"></path><path d="M324.5,304.84l1.38.79a.35.35,0,0,1,.09.54l-.9,1h-4.28l-.82-1a.35.35,0,0,1,.08-.52l1.49-.93Z" style="fill:#fff;stroke:#263238;stroke-miterlimit:10"></path><path d="M324.74,305h-3.51a3,3,0,1,1,3.51,0Z" style="fill:#fff;stroke:#263238;stroke-miterlimit:10"></path><path d="M351,326.75c0,1,2.67,1.74,6,1.74s6-.78,6-1.74-2.67-1.75-6-1.75S351,325.78,351,326.75Z" style="fill:#fff;stroke:#263238;stroke-miterlimit:10"></path><path d="M361,321.1s-.21.2.07.61,1.81.47,2,2.15S360.92,327,357.6,327s-5.28-.2-6.14-1.75.14-2.49.94-3a1.55,1.55,0,0,0,.79-1.15Z" style="fill:#fff;stroke:#263238;stroke-miterlimit:10"></path><path d="M352.32,320.9c0,.48,2.06.87,4.59.87s4.59-.39,4.59-.87-2.06-.87-4.59-.87S352.32,320.42,352.32,320.9Z" style="fill:#fff;stroke:#263238;stroke-miterlimit:10"></path><path d="M359,315.38a17.72,17.72,0,0,0,1.78,5.05,19.14,19.14,0,0,1-7.88,0,18.41,18.41,0,0,0,1.82-5.05Z" style="fill:#fff;stroke:#263238;stroke-miterlimit:10"></path><path d="M358.43,313.05l1.38.79a.35.35,0,0,1,.09.54l-.9,1h-4.28l-.82-1a.36.36,0,0,1,.08-.53l1.49-.92Z" style="fill:#fff;stroke:#263238;stroke-miterlimit:10"></path><path d="M358.68,313.17h-3.52a3,3,0,1,1,3.52,0Z" style="fill:#fff;stroke:#263238;stroke-miterlimit:10"></path><path d="M312.22,336.33c0,1,2.67,1.75,6,1.75s6-.78,6-1.75-2.67-1.75-6-1.75S312.22,335.37,312.22,336.33Z" style="fill:#fff;stroke:#263238;stroke-miterlimit:10"></path><path d="M322.26,330.69s-.22.2.07.6,1.81.47,2,2.15-2.16,3.16-5.49,3.09-5.27-.2-6.14-1.75.15-2.48.94-3a1.54,1.54,0,0,0,.8-1.14Z" style="fill:#fff;stroke:#263238;stroke-miterlimit:10"></path><path d="M313.59,330.48c0,.49,2.05.88,4.59.88s4.58-.39,4.58-.88-2.05-.87-4.58-.87S313.59,330,313.59,330.48Z" style="fill:#fff;stroke:#263238;stroke-miterlimit:10"></path><path d="M320.26,325A17.81,17.81,0,0,0,322,330a18.64,18.64,0,0,1-7.87,0A18.63,18.63,0,0,0,316,325Z" style="fill:#fff;stroke:#263238;stroke-miterlimit:10"></path><path d="M319.69,322.63l1.39.79a.35.35,0,0,1,.08.54l-.9,1H316l-.83-1a.35.35,0,0,1,.09-.52l1.48-.93Z" style="fill:#fff;stroke:#263238;stroke-miterlimit:10"></path><path d="M319.94,322.76h-3.52a3,3,0,1,1,3.52,0Z" style="fill:#fff;stroke:#263238;stroke-miterlimit:10"></path><ellipse cx="316.07" cy="346.76" rx="6.54" ry="1.92" style="fill:#fff;stroke:#263238;stroke-miterlimit:10"></ellipse><path d="M320.55,340.57s-.24.22.08.66,2,.52,2.22,2.36-2.38,3.47-6,3.39-5.79-.22-6.74-1.91.16-2.73,1-3.32a1.69,1.69,0,0,0,.88-1.26Z" style="fill:#fff;stroke:#263238;stroke-miterlimit:10"></path><ellipse cx="316.07" cy="340.34" rx="5.04" ry="0.96" style="fill:#fff;stroke:#263238;stroke-miterlimit:10"></ellipse><path d="M318.36,334.28a19.55,19.55,0,0,0,1.95,5.55,21,21,0,0,1-8.64,0,20.38,20.38,0,0,0,2-5.55Z" style="fill:#fff;stroke:#263238;stroke-miterlimit:10"></path><path d="M317.74,331.72l1.51.87a.39.39,0,0,1,.1.6l-1,1.09h-4.69l-.91-1.11a.39.39,0,0,1,.1-.58l1.63-1Z" style="fill:#fff;stroke:#263238;stroke-miterlimit:10"></path><path d="M318,331.86h-3.86a3.32,3.32,0,1,1,3.86,0Z" style="fill:#fff;stroke:#263238;stroke-miterlimit:10"></path><path d="M307.31,357.71c0,1.06,2.93,1.92,6.54,1.92s6.54-.86,6.54-1.92-2.93-1.91-6.54-1.91S307.31,356.66,307.31,357.71Z" style="fill:#fff;stroke:#263238;stroke-miterlimit:10"></path><path d="M318.33,351.52s-.24.22.08.66,2,.52,2.22,2.36-2.38,3.47-6,3.4-5.79-.23-6.74-1.92.16-2.73,1-3.32a1.69,1.69,0,0,0,.87-1.26Z" style="fill:#fff;stroke:#263238;stroke-miterlimit:10"></path><path d="M308.81,351.3c0,.53,2.26,1,5,1s5-.43,5-1-2.26-1-5-1S308.81,350.77,308.81,351.3Z" style="fill:#fff;stroke:#263238;stroke-miterlimit:10"></path><path d="M316.14,345.23a19.55,19.55,0,0,0,1.95,5.55,20.52,20.52,0,0,1-8.64,0,20.26,20.26,0,0,0,2-5.55Z" style="fill:#fff;stroke:#263238;stroke-miterlimit:10"></path><path d="M315.52,342.67l1.51.87a.39.39,0,0,1,.1.6l-1,1.09h-4.69l-.91-1.11a.39.39,0,0,1,.1-.58l1.62-1Z" style="fill:#fff;stroke:#263238;stroke-miterlimit:10"></path><path d="M315.79,342.81h-3.86a3.32,3.32,0,1,1,3.86,0Z" style="fill:#fff;stroke:#263238;stroke-miterlimit:10"></path><ellipse cx="311.17" cy="369.88" rx="6.54" ry="1.92" style="fill:#fff;stroke:#263238;stroke-miterlimit:10"></ellipse><path d="M315.65,363.69s-.24.22.08.66,2,.52,2.22,2.36-2.38,3.47-6,3.39-5.79-.22-6.74-1.91.16-2.73,1-3.32a1.69,1.69,0,0,0,.87-1.26Z" style="fill:#fff;stroke:#263238;stroke-miterlimit:10"></path><path d="M306.13,363.46c0,.53,2.26,1,5,1s5-.43,5-1-2.26-.95-5-.95S306.13,362.93,306.13,363.46Z" style="fill:#fff;stroke:#263238;stroke-miterlimit:10"></path><path d="M313.46,357.4a19.55,19.55,0,0,0,2,5.55,21,21,0,0,1-8.64,0,20.38,20.38,0,0,0,2-5.55Z" style="fill:#fff;stroke:#263238;stroke-miterlimit:10"></path><path d="M312.84,354.84l1.51.87a.39.39,0,0,1,.1.6l-1,1.09h-4.69l-.91-1.11a.4.4,0,0,1,.09-.58l1.63-1Z" style="fill:#fff;stroke:#263238;stroke-miterlimit:10"></path><path d="M313.11,355h-3.87a3.33,3.33,0,1,1,3.87,0Z" style="fill:#fff;stroke:#263238;stroke-miterlimit:10"></path></g></svg>