<?xml version="1.0" encoding="UTF-8" standalone="no"?>
<!-- Created with Inkscape (http://www.inkscape.org/) -->

<svg
   xmlns:dc="http://purl.org/dc/elements/1.1/"
   xmlns:cc="http://creativecommons.org/ns#"
   xmlns:rdf="http://www.w3.org/1999/02/22-rdf-syntax-ns#"
   xmlns:svg="http://www.w3.org/2000/svg"
   xmlns="http://www.w3.org/2000/svg"
   xmlns:sodipodi="http://sodipodi.sourceforge.net/DTD/sodipodi-0.dtd"
   xmlns:inkscape="http://www.inkscape.org/namespaces/inkscape"
   width="357.71008mm"
   height="323.32175mm"
   viewBox="0 0 357.71008 323.32175"
   version="1.1"
   id="svg8"
   sodipodi:docname="Paramount Plus logo.svg"
   inkscape:version="0.92.4 (5da689c313, 2019-01-14)">
  <defs
     id="defs2">
    <filter
       height="234.64999"
       width="261.15601"
       y="696.76898"
       x="37.18"
       filterUnits="userSpaceOnUse"
       id="Adobe_OpacityMaskFilter">
      <feColorMatrix
         id="feColorMatrix108"
         values="1 0 0 0 0  0 1 0 0 0  0 0 1 0 0  0 0 0 1 0"
         type="matrix" />
    </filter>
    <defs
       id="defs111">
      <filter
         height="234.64999"
         width="261.15601"
         y="696.76898"
         x="37.18"
         filterUnits="userSpaceOnUse"
         id="filter173">
        <feColorMatrix
           id="feColorMatrix171"
           values="1 0 0 0 0  0 1 0 0 0  0 0 1 0 0  0 0 0 1 0"
           type="matrix" />
      </filter>
    </defs>
  </defs>
  <sodipodi:namedview
     id="base"
     pagecolor="#ffffff"
     bordercolor="#666666"
     borderopacity="1.0"
     inkscape:pageopacity="0.0"
     inkscape:pageshadow="2"
     inkscape:zoom="0.66120926"
     inkscape:cx="675.98755"
     inkscape:cy="611.00173"
     inkscape:document-units="mm"
     inkscape:current-layer="layer1"
     showgrid="false"
     fit-margin-top="0"
     fit-margin-left="0"
     fit-margin-right="0"
     fit-margin-bottom="0"
     inkscape:window-width="1920"
     inkscape:window-height="1001"
     inkscape:window-x="-9"
     inkscape:window-y="-9"
     inkscape:window-maximized="1" />
  <metadata
     id="metadata5">
    <rdf:RDF>
      <cc:Work
         rdf:about="">
        <dc:format>image/svg+xml</dc:format>
        <dc:type
           rdf:resource="http://purl.org/dc/dcmitype/StillImage" />
        <dc:title></dc:title>
      </cc:Work>
    </rdf:RDF>
  </metadata>
  <g
     inkscape:label="Layer 1"
     inkscape:groupmode="layer"
     id="layer1"
     transform="translate(94.00506,27.088116)">
    <path
       style="fill:#114795;fill-opacity:1;stroke-width:0.21150416"
       d="m 20.043864,6.9951643 -6.187364,-5.91251 3.819172,-7.67021 -7.6809264,3.86236 -5.961985,-5.8576 1.389473,8.14343005 -7.618988,3.89978995 8.599643,1.35541 1.368183,8.3851397 3.7968074,-7.5227297 z"
       id="polygon3232"
       inkscape:connector-curvature="0" />
    <path
       style="fill:#114795;fill-opacity:1;stroke-width:0.21150416"
       d="m 42.085339,-10.197796 5.209941,-6.71815 -8.253837,2.30476 -4.717028,-6.84607 -0.224088,8.25743 -8.250392,2.36072 8.168671,2.9643703 -0.305594,8.51245005 5.229287,-6.68236005 8.065884,2.87617 z"
       id="polygon3234"
       inkscape:connector-curvature="0" />
    <path
       style="fill:#114795;fill-opacity:1;stroke-width:0.21150416"
       d="m -5.1565647,20.210554 -7.2108143,-4.6888 2.227976,-8.2012497 -6.741562,5.2175397 -7.006081,-4.6309497 2.92024,7.7623597 -6.718982,5.18031 8.743515,-0.22091 2.9811,7.9633 2.246472,-8.0904 z"
       id="polygon3236"
       inkscape:connector-curvature="0" />
    <path
       style="fill:#114795;fill-opacity:1;stroke-width:0.21150416"
       d="m 72.892056,-14.529636 6.391021,-5.69431 -8.557925,0.76901 -3.246689,-7.63318 -1.899801,8.09246 -8.515775,0.8044 7.432751,4.41171 -1.958294,8.2742703 6.430378,-5.5853103 7.353394,4.3399503 z"
       id="polygon3238"
       inkscape:connector-curvature="0" />
    <path
       style="fill:#114795;fill-opacity:1;stroke-width:0.21150416"
       d="m -54.089883,65.849084 7.843938,-3.42221 -8.515556,-1.68531 -1.084956,-8.42071 -4.267563,7.30307 -8.209317,-1.73835 5.696392,6.11428 -4.267562,7.28622 8.005443,-3.44051 5.76134,6.31482 z"
       id="polygon3240"
       inkscape:connector-curvature="0" />
    <path
       style="fill:#114795;fill-opacity:1;stroke-width:0.21150416"
       d="m -66.593645,93.754214 7.066727,-4.81505 -8.718999,-0.0919 -2.696582,-8.03465 -2.756582,7.98201 -8.436846,-0.20094 6.800703,4.94235 -2.757012,7.942926 7.149737,-4.831906 6.963716,5.107306 z"
       id="polygon3242"
       inkscape:connector-curvature="0" />
    <path
       style="fill:#114795;fill-opacity:1;stroke-width:0.21150416"
       d="m -26.989868,39.884264 -8.00695,-3.25705 0.572693,-8.4596 -5.618112,6.38968 -7.73856,-3.26036 4.391005,7.06677 -5.575101,6.33374 8.495556,-1.84673 4.472296,7.24857 0.633339,-8.31338 z"
       id="polygon3244"
       inkscape:connector-curvature="0" />
    <path
       style="fill:#114795;fill-opacity:1;stroke-width:0.21150416"
       d="m -75.198449,122.94569 5.942631,-6.04128 -8.517706,1.53742 -4.244982,-7.37733 -1.123451,8.29258 -8.333834,1.41074 7.618775,3.60504 -1.144311,8.31381 6.106288,-6.11617 7.802216,3.73339 z"
       id="polygon3252"
       inkscape:connector-curvature="0" />
    <path
       style="fill:#114795;fill-opacity:1;stroke-width:0.21150416"
       d="m -77.625781,153.29143 4.677674,-7.04763 -8.089101,3.11289 -5.573596,-6.47852 0.449897,8.4018 -7.844153,2.92734 8.189962,2.0849 0.490972,8.35228 4.797245,-7.12481 8.396416,2.23925 z"
       id="polygon3272"
       inkscape:connector-curvature="0" />
    <path
       style="fill:#114795;fill-opacity:1;stroke-width:0.21150416"
       d="m -76.263189,205.50375 3.673579,7.59928 -6.186074,5.62005 8.373405,-1.04526 3.67573,7.54416 1.715283,-8.34688 8.618998,-1.00948 -7.535332,-4.01108 1.610982,-8.22103 -6.269302,5.82682 z"
       id="polygon3280"
       inkscape:connector-curvature="0" />
    <path
       style="fill:#114795;fill-opacity:1;stroke-width:0.21150416"
       d="m -77.794814,179.38043 -6.760703,-5.32862 2.103888,8.18066 -7.170598,4.34057 8.478136,0.5346 2.062384,8.10371 3.328416,-7.8878 8.701363,0.58617 -6.638766,-5.29097 3.227769,-7.77879 z"
       id="polygon3286"
       inkscape:connector-curvature="0" />
    <path
       style="fill:#114795;fill-opacity:1;stroke-width:0.21150416"
       d="m 152.02471,-6.5875557 7.68071,3.86236 5.96199,-5.8576 -1.38905,8.14343005 7.61878,3.89978995 -8.60007,1.35541 -1.36797,8.3851397 -3.7968,-7.5227297 -8.47599,1.31692 6.18693,-5.91251 z"
       id="polygon3289"
       inkscape:connector-curvature="0" />
    <path
       style="fill:#114795;fill-opacity:1;stroke-width:0.21150416"
       d="m 130.6583,-14.611186 4.71767,-6.84607 0.22495,8.25743 8.24953,2.36072 -8.16845,2.9643703 0.30409,8.51245005 -5.22736,-6.68236005 -8.0676,2.87617 4.92349,-7.0293203 -5.2093,-6.71815 z"
       id="polygon3291"
       inkscape:connector-curvature="0" />
    <path
       style="fill:#114795;fill-opacity:1;stroke-width:0.21150416"
       d="m 179.84022,7.3205043 6.74134,5.2175397 7.00544,-4.6309497 -2.91981,7.7623597 6.71963,5.18031 -8.74438,-0.22091 -2.98067,7.9633 -2.24625,-8.0904 -8.55879,-0.2912 7.21082,-4.6888 z"
       id="polygon3293"
       inkscape:connector-curvature="0" />
    <path
       style="fill:#114795;fill-opacity:1;stroke-width:0.21150416"
       d="m 98.97545,-19.454936 3.24648,-7.63318 1.8998,8.09246 8.51621,0.8044 -7.43341,4.41171 1.95916,8.2742703 -6.43123,-5.5853103 -7.35297,4.3399503 3.42906,-7.7790003 -6.39017,-5.69431 z"
       id="polygon3295"
       inkscape:connector-curvature="0" />
    <path
       style="fill:#114795;fill-opacity:1;stroke-width:0.21150416"
       d="m 224.4621,60.741564 1.08432,-8.42071 4.26798,7.30307 8.20782,-1.73835 -5.69467,6.11428 4.26691,7.28622 -8.00501,-3.44051 -5.76155,6.31482 0.96108,-8.3113 -7.84394,-3.42221 z"
       id="polygon3297"
       inkscape:connector-curvature="0" />
    <path
       style="fill:#114795;fill-opacity:1;stroke-width:0.21150416"
       d="m 237.94609,88.847234 2.69615,-8.03465 2.75723,7.98202 8.4362,-0.20094 -6.79941,4.94234 2.75529,7.942926 -7.14931,-4.831896 -6.96243,5.107296 2.61358,-8.000116 -7.06652,-4.81505 z"
       id="polygon3299"
       inkscape:connector-curvature="0" />
    <path
       style="fill:#114795;fill-opacity:1;stroke-width:0.21150416"
       d="m 204.12387,28.167614 5.61831,6.38968 7.73836,-3.26036 -4.39122,7.06677 5.57575,6.33374 -8.49557,-1.84673 -4.4725,7.24857 -0.63376,-8.31338 -8.3732,-1.90164 8.00674,-3.25705 z"
       id="polygon3301"
       inkscape:connector-curvature="0" />
    <path
       style="fill:#114795;fill-opacity:1;stroke-width:0.21150416"
       d="m 247.47283,118.44183 4.24477,-7.37733 1.12411,8.29258 8.33447,1.41074 -7.61835,3.60504 1.1441,8.31381 -6.10585,-6.11617 -7.80437,3.73339 4.10691,-7.3582 -5.94306,-6.04128 z"
       id="polygon3303"
       inkscape:connector-curvature="0" />
    <path
       style="fill:#114795;fill-opacity:1;stroke-width:0.21150416"
       d="m 250.73695,149.35669 5.57381,-6.47852 -0.45011,8.4018 7.84437,2.92734 -8.18889,2.0849 -0.49248,8.35228 -4.7966,-7.12481 -8.39576,2.23925 5.49423,-6.4675 -4.67682,-7.04763 z"
       id="polygon3305"
       inkscape:connector-curvature="0" />
    <path
       style="fill:#114795;fill-opacity:1;stroke-width:0.21150416"
       d="m 248.47607,218.72308 -8.37405,-1.04526 -3.67595,7.54416 -1.71485,-8.34688 -8.61813,-1.00948 7.53489,-4.01108 -1.61184,-8.22103 6.27017,5.82682 7.67705,-3.95658 -3.6738,7.59928 z"
       id="polygon3307"
       inkscape:connector-curvature="0" />
    <path
       style="fill:#114795;fill-opacity:1;stroke-width:0.21150416"
       d="m 252.15245,182.23247 7.1693,4.34057 -8.47814,0.5346 -2.06217,8.10371 -3.32905,-7.8878 -8.7003,0.58617 6.63791,-5.29097 -3.22669,-7.77879 7.33232,4.54047 6.75985,-5.32862 z"
       id="polygon3309"
       inkscape:connector-curvature="0" />
    <path
       style="fill:#114795;fill-opacity:1;stroke-width:0.35771021"
       inkscape:connector-curvature="0"
       d="m -18.271288,202.64765 -0.505801,-0.78124 14.7766506,-24.37617 8.444467,-13.148 9.5787644,-10.07132 -10.4612364,21.06985 -5.671138,4.42523 z m 45.55905,-20.94966 3.530242,-5.05767 3.276984,-0.84241 9.998713,-19.04878 1.176509,-12.38966 5.462594,-12.22117 -0.419592,-1.60217 -8.488109,10.70412 -2.101187,0.75904 -15.376174,23.34705 2.183462,2.27539 -15.881618,35.40151 10.672283,-11.04144 z m 20.924263,3.62466 -1.596818,-2.69748 -13.614098,24.61154 -3.192563,13.823 h 2.64634 l 8.69701,-10.36715 3.529168,-16.18211 z M 101.65608,78.165924 90.73125,67.433904 v 35.343536 l -9.075472,24.78037 12.324902,7.86679 -21.007954,56.58403 4.032827,3.48337 -10.924119,24.66806 13.669187,14.8346 h 20.615189 l -3.52916,-8.9896 31.14797,11.46282 h 35.3475 l -7.45076,-12.86864 -3.86576,-10.11281 -1.51276,-7.6432 18.37451,22.81441 h 22.63231 l -6.66629,-13.76756 -10.19581,-10.33853 -25.65604,-56.24745 -11.42777,-3.48302 -3.30525,3.70803 h -2.0107 l -5.73481,-15.11541 -5.73443,-10.17042 -7.919,-12.75595 z M 83.927238,7.5277943 c -78.0781244,0 -141.372804,63.4867897 -141.372804,141.8031357 0,21.51805 4.777936,41.91613 13.328282,60.18511 l 53.9806226,-62.11603 4.6634674,-1.51597 20.795844,-29.33116 9.075462,-7.8378 13.611951,-21.365656 8.192993,-7.83851 13.233851,-18.58413 8.318903,-6.32144 15.50317,11.12549 7.68789,14.28588 9.83204,29.330806 11.46926,20.35371 24.07282,10.74633 21.80494,44.62684 5.29376,17.82615 5.16784,3.79172 4.53721,5.31057 8.42371,16.02864 c 15.00201,-22.51679 23.75232,-49.58473 23.75232,-78.70055 0,-78.316346 -63.29433,-141.8031357 -141.373532,-141.8031357 z"
       id="path104" />
    <path
       style="fill:#114795;fill-opacity:1;stroke-width:0.30895126"
       inkscape:connector-curvature="0"
       id="Fill-1"
       d="m 186.93095,245.69619 h -6.86181 l -1.5813,3.65486 -2.6722,6.18109 h -3.22253 l -0.95606,2.09763 h 3.30293 l -3.97984,9.03237 c -2.84159,6.35124 -7.35069,12.61133 -9.92596,12.61133 -0.54638,0 -0.88636,-0.25848 -0.88636,-0.83855 0,-0.54445 0.14829,-1.13544 0.81787,-2.72013 0.81634,-1.94559 2.12949,-4.706 3.11002,-6.74867 1.41957,-2.94679 3.70989,-7.5738 3.70989,-9.87747 0,-2.31585 -1.43761,-4.07912 -4.24432,-4.07912 -3.16933,0 -6.01336,1.9562 -8.63971,4.74563 l 1.70483,-4.22302 h -6.48909 l -5.28112,12.21267 c -2.09617,4.34074 -6.41968,11.5193 -9.0934,11.5193 -0.55554,0 -0.78974,-0.34685 -0.78974,-0.91036 0,-0.30377 0.14768,-0.93846 0.38493,-1.49197 0.23785,-0.55476 3.39405,-8.01649 3.39405,-8.01649 l 5.71434,-13.34812 h -6.9529 l -5.55352,12.98223 c -1.74304,4.02137 -6.08491,10.81468 -8.8687,10.81468 -0.56716,0 -0.9365,-0.29221 -0.9365,-1.00806 0,-0.71461 0.51611,-1.98712 0.91662,-2.93962 l 2.91007,-6.5036 0.01,0.003 6.01214,-13.34812 h -6.95138 l -1.35689,3.00736 -0.005,-8.4e-4 c -0.99825,2.02208 -2.76086,4.4322 -5.4777,4.4322 -1.32142,0 -1.9213,-0.5329 -2.2466,-1.05488 -0.40511,-4.49558 -3.17973,-6.89447 -7.32897,-6.89447 -5.73574,0 -9.82415,3.46691 -12.50828,7.63967 -1.7892,2.78975 -3.00851,5.81771 -4.09053,9.30305 -2.4585,4.11467 -5.05852,7.33527 -7.07338,7.33527 -0.516086,0 -0.834988,-0.31408 -0.834988,-1.00559 0,-0.77204 0.667146,-2.28774 0.926398,-2.8553 l 4.49964,-9.78289 c 1.25416,-3.02919 2.12828,-5.02973 2.12828,-6.9903 0,-2.11231 -1.44556,-3.62082 -3.79489,-3.62082 -3.258918,0 -6.820823,1.89938 -9.615007,5.08157 0.09383,-0.44518 0.139413,-0.95968 0.139413,-1.53475 0,-2.31833 -1.11779,-3.54682 -3.524913,-3.54682 -2.984968,0 -6.050357,1.79511 -8.856773,5.09687 l 1.861972,-4.57425 h -6.341475 l -5.315041,12.21268 c -2.537672,5.75434 -6.584798,11.51927 -8.893161,11.51927 -0.539329,0 -0.846596,-0.28159 -0.846596,-0.98278 0,-1.12919 1.186282,-3.83279 1.662626,-4.94576 l 7.033018,-16.29304 c 0.524037,-1.21692 -2.856258,-1.97087 -7.152558,-1.97087 -4.412188,0 -8.917624,2.24094 -12.255722,5.04755 -2.329161,1.96151 -4.056604,2.95928 -4.948157,2.95928 -0.433236,0 -0.62708,-0.24133 -0.62708,-0.52512 0,-1.00494 2.342608,-3.80438 2.342608,-5.92792 0,-0.96655 -0.513955,-1.61591 -1.819176,-1.61591 -2.527273,0 -5.48809,2.47195 -7.692501,5.02506 l 1.859532,-4.50495 h -6.153071 l -5.303729,12.21519 c -2.538588,5.75434 -6.6988374,11.7681 -9.0050594,11.7681 -0.537804,0 -0.84752,-0.28411 -0.84752,-0.98466 0,-1.08642 1.137059,-3.77316 1.780037,-5.19271 l 7.0320964,-16.29304 c 0.523434,-1.21692 -2.8535034,-1.97087 -7.1485844,-1.97087 -6.339588,0 -12.5192731,4.36353 -15.8344476,8.83039 -3.614193,4.86083 -6.063196,10.0011 -6.118536,14.19322 -0.04677,3.3592 1.663856,5.48055 5.111417,5.48055 3.8383029,0 6.9042956,-3.10975 8.7356986,-5.43279 -0.04281,0.2432 -0.215853,1.09893 -0.215853,1.39144 0,2.34394 0.917229,4.03948 3.70071596,4.03948 2.46123304,0 5.75103304,-2.10232 8.39601704,-5.45121 l -2.138064,4.96169 h 6.7147374 l 6.577456,-15.21222 c 2.146929,-4.95107 4.639654,-7.51886 5.309237,-7.51886 0.21585,0 0.310939,0.0971 0.310939,0.28722 0,0.52729 -1.007122,1.91531 -1.007122,3.21715 0,1.33055 0.710246,2.24091 2.509546,2.24091 1.4373,0 3.053452,-0.71522 4.475776,-1.61278 -3.378165,4.68944 -5.641579,9.58776 -5.694472,13.60975 -0.04375,3.35917 1.669966,5.48053 5.116919,5.48053 3.638044,0 6.974311,-3.47877 8.80755,-5.8018 -0.06572,0.36526 -0.132692,1.15793 -0.132692,1.60968 0,2.28337 1.265162,4.19024 3.850221,4.19024 2.836075,0 5.178377,-1.81882 8.029436,-5.36877 l -2.105963,4.87926 h 6.87617 l 6.273843,-14.53944 c 2.742824,-6.32816 6.465248,-9.66207 8.303074,-9.66207 0.543929,0 0.908982,0.2969 0.908982,0.94626 0,0.39024 -0.165108,1.10798 -0.564101,2.05985 l -9.199814,21.19571 7.040962,-0.0185 6.42611,-14.79264 c 2.762398,-6.33534 5.819214,-9.46944 8.090271,-9.46944 0.686393,0 0.979908,0.36215 0.979908,1.12795 0,0.42427 -0.131474,1.13234 -0.66223,2.32084 L 77.9491,275.6557 c -0.512125,1.1451 -1.012933,2.79317 -1.012933,4.06568 0,2.02987 1.104038,3.8537 4.172794,3.8537 3.992389,0 7.062049,-3.07572 10.487299,-7.7146 l 0.0156,0.99341 c 0.25469,3.68232 2.29094,6.86324 7.6023,6.86324 6.29343,0 11.39109,-4.45187 14.48673,-11.48652 1.38961,-3.15783 2.05979,-5.85049 2.24538,-7.89004 0.58674,0.3 1.32204,0.48794 2.2466,0.48794 0.86984,0 1.89746,-0.17606 2.96418,-0.73583 l -1.09426,2.4245 c -1.26057,2.68829 -2.66393,5.67753 -3.70529,8.16883 -0.76834,1.83913 -1.2291,3.56212 -1.2291,4.71286 0,2.52002 1.34742,4.29516 4.15108,4.29516 2.81132,0 6.6698,-2.69204 9.38481,-6.46521 h 0.085 c -0.15655,0.75176 -0.31004,1.81822 -0.31004,2.3836 0,2.07546 0.62251,4.06507 3.49191,4.06507 3.32403,0 5.88708,-2.45604 8.41191,-5.52021 l -2.12982,4.9286 h 6.95262 l 5.5413,-12.81646 c 3.13722,-7.23287 6.3032,-11.58173 9.23497,-11.58173 0.62586,0 0.94841,0.42364 0.94841,1.05739 0,1.20475 -1.6877,4.52617 -3.28399,7.88911 -1.44126,3.03234 -2.51291,5.35069 -3.26318,7.1742 -0.66256,1.61592 -1.20616,3.56462 -1.20616,4.83586 0,2.22751 1.21471,3.93114 3.88538,3.93114 3.99943,0 8.09791,-3.93706 10.24301,-6.97252 -0.49285,1.40301 -0.80258,3.10257 -0.80258,4.44314 0,4.08223 2.43249,6.13396 5.79201,6.13396 2.36919,0 4.42074,-0.84137 6.23227,-2.12446 2.62725,-1.86099 4.7427,-4.65979 6.5371,-7.25662 l -1.18262,-1.1623 c -1.65927,2.39078 -3.48211,4.68353 -5.35448,6.09558 -1.17314,0.88724 -2.36615,1.43046 -3.54785,1.43046 -1.42751,0 -2.34412,-0.7499 -2.34412,-2.65364 0,-1.87504 0.84568,-4.39817 2.16191,-7.75049 0.0694,-0.16234 1.93779,-4.44252 3.72976,-8.5669 1.51862,-3.49032 2.98252,-6.87261 3.2644,-7.561 h 4.50911 l 0.91326,-2.09763 h -4.48832 z M -8.3818735,279.29221 c -0.9936657,0 -1.6583515,-0.33842 -1.6831165,-1.65369 0.04861,-3.46816 2.8449421,-9.56996 6.3759716,-14.45359 2.445641,-3.38356 5.666342,-5.88171 9.097699,-5.88171 l -4.369071,9.92492 c -3.238742,7.50261 -6.8037079,12.06407 -9.4214831,12.06407 z m 42.7906135,0 c -0.993053,0 -1.662935,-0.33842 -1.684642,-1.65369 0.04828,-3.46816 2.844324,-9.56996 6.374445,-14.45359 2.444721,-3.38356 5.665724,-5.88171 9.096168,-5.88171 l -4.369077,9.92492 h 0.01042 c -3.289187,7.61126 -6.69089,12.06407 -9.427291,12.06407 z m 68.82343,-0.86072 c -1.54982,2.22062 -2.87917,2.86094 -4.02968,2.86094 -1.58254,0 -2.05186,-1.34932 -1.858,-3.32362 0.34607,-3.46595 3.13355,-11.46747 7.04615,-17.0067 1.78065,-2.52252 3.00943,-3.57085 4.33819,-3.57085 1.31074,0 1.77514,1.15167 1.72745,2.59463 -0.12291,3.75661 -3.39344,12.95101 -7.22411,18.4456 z" />
    <path
       d="m -26.217037,262.67895 c 2.416475,-0.28322 6.367676,-1.07308 7.871876,-1.61843 9.2945743,-2.59113 19.8224056,-8.80932 19.8224056,-19.85167 0,-12.71773 -13.4802166,-18.8173 -29.5452676,-18.8173 -17.144739,0 -32.869299,7.59811 -38.702639,19.33905 -1.542277,3.10752 -2.402316,6.4989 -2.402316,10.12346 0,3.27463 0.797731,6.21819 2.402316,8.59314 2.473749,3.66326 6.883448,5.96487 13.398085,5.96487 7.939534,0 14.26819,-4.35966 14.26819,-11.94077 0,0 0.117693,-2.13042 -2.356055,-2.13042 -2.030042,0 -2.551476,1.39468 -2.50396,2.13042 0.289197,5.9589 -3.22522,10.68957 -9.536568,10.68957 -7.048343,0 -10.009228,-5.99004 -10.009228,-12.41405 0,-13.12839 9.905696,-21.82695 20.212616,-25.55411 5.283898,-1.92744 9.534995,-2.62133 15.077251,-2.62133 11.658498,0 21.1934924,4.48302 21.1934924,16.443 0,10.02086 -8.4096764,18.54446 -18.5227494,19.25659 l 0.399337,-1.37801 c 2.073152,-7.34163 4.573021,-15.36991 8.698558,-21.34454 0.242938,-0.37416 0.673429,-0.93304 1.144199,-1.53032 l -0.564861,-0.70301 c -0.735737,0.42483 -2.05144,1.38462 -2.576967,1.79403 -19.350375,15.06686 -19.934117,57.35472 -45.697486,57.35472 -0.934617,0 -1.806299,-0.0736 -2.624168,-0.20392 -5.376416,-0.86538 -8.189082,-4.47515 -8.171145,-9.49156 0.0037,-0.98592 0.340805,-2.34535 0.340805,-3.11729 0,-1.30122 -0.883325,-2.65091 -2.815813,-2.65091 -2.299413,0 -3.242842,1.78867 -3.285955,4.42417 -0.122098,7.53579 5.411976,11.89357 13.932108,12.6784 0.930527,0.0872 1.896927,0.1309 2.897631,0.1309 20.09807,-6.2e-4 32.451711,-15.15057 37.656308,-33.55468"
       mask="none"
       id="Fill-3"
       inkscape:connector-curvature="0"
       style="fill:#114795;fill-opacity:1;stroke-width:0.3146863" />
    <path
       style="opacity:1;fill:#114795;fill-opacity:1;fill-rule:evenodd;stroke:none;stroke-width:3.95861125;stroke-linecap:square;stroke-linejoin:miter;stroke-miterlimit:4;stroke-dasharray:none;stroke-opacity:1"
       d="m 224.55669,241.60471 -8.6992,18.79936 H 197.0576 l -5.51956,11.92795 h 18.79989 l -8.69922,18.79939 h 11.92744 l 8.69921,-18.79939 h 18.79989 l 5.51956,-11.92795 h -18.79989 l 8.69921,-18.79936 z"
       id="rect111"
       inkscape:connector-curvature="0" />
  </g>
</svg>
